<svg xmlns="http://www.w3.org/2000/svg" width="64" height="64" viewBox="0 0 64 64"><path d="M63.636 18.243L45.756.363c-.582-.582-1.352-.45-1.71.293L41.65 5.65l16.7 16.7 4.994-2.397c.744-.357.875-1.126.292-1.71zM38.462 8.46L22 9.834c-1.094.135-2.005.37-2.318 1.797v.004C15.216 33.076 0 54 0 54l3.586 3.585 17-17C20.21 39.804 20 38.926 20 38c0-3.315 2.686-6 6-6s6 2.685 6 6-2.686 6-6 6c-.926 0-1.803-.21-2.587-.586l-17 17L10 63.998S30.924 48.78 52.365 44.317h.004c1.427-.314 1.66-1.225 1.796-2.32l1.372-16.46L38.46 8.46z"/></svg>