<svg xmlns="http://www.w3.org/2000/svg" width="64" height="64" viewBox="0 0 64 64"><path d="M24 0v6c4.593 0 9.044.898 13.232 2.67 4.048 1.71 7.685 4.164 10.81 7.288s5.576 6.76 7.288 10.81c1.77 4.187 2.67 8.64 2.67 13.23h6C64 17.91 46.09 0 24 0zM24 12v6c5.876 0 11.4 2.288 15.556 6.444S46 34.124 46 40h6c0-15.464-12.536-28-28-28zM30 24l-4 4-14 4L0 58l1.586 1.586 14.55-14.55C16.048 44.706 16 44.358 16 44c0-2.21 1.79-4 4-4s4 1.79 4 4-1.79 4-4 4c-.358 0-.705-.048-1.035-.136l-14.55 14.55L6 64l26-12 4-14 4-4-10-10z"/></svg>