<svg xmlns="http://www.w3.org/2000/svg" width="64" height="64" viewBox="0 0 64 64"><path d="M54.04 29.573C49.93 18.108 41.22 7.813 32 0 22.78 7.813 14.07 18.108 9.96 29.573c-2.54 7.09-2.792 14.785.788 21.587C14.863 58.98 23.163 64 32 64s17.138-5.02 21.253-12.84c3.58-6.802 3.328-14.498.787-21.587zm-7.867 17.862C43.435 52.638 37.873 56 32 56c-3.445 0-6.783-1.16-9.507-3.166.828.108 1.665.166 2.507.166 7.34 0 14.292-4.2 17.713-10.703 2.805-5.33 2.56-10.866 1.493-15.27.91 1.758 1.682 3.51 2.303 5.245 1.412 3.94 2.5 9.77-.337 15.163z"/></svg>