<svg xmlns="http://www.w3.org/2000/svg" width="64" height="64" viewBox="0 0 64 64"><path d="M18 36h-4v28h4c1.1 0 2-.9 2-2V38c0-1.1-.9-2-2-2zM46 36c-1.1 0-2 .9-2 2v24c0 1.1.9 2 2 2h4V36h-4zM64 32C64 14.327 49.673 0 32 0S0 14.327 0 32c0 3.838.677 7.518 1.916 10.928C.7 45.003 0 47.42 0 50c0 7.053 5.215 12.887 12 13.857V36.143c-1.995.285-3.854.99-5.485 2.024C6.178 36.497 6 34.77 6 33 6 18.64 17.64 7 32 7s26 11.64 26 26c0 1.77-.177 3.498-.514 5.17-1.63-1.035-3.49-1.74-5.486-2.027v27.715c6.784-.97 12-6.805 12-13.857 0-2.58-.7-4.995-1.916-7.07C63.324 39.52 64 35.84 64 32z"/></svg>