<svg xmlns="http://www.w3.org/2000/svg" width="64" height="64" viewBox="0 0 64 64"><path d="M54 12H22c-5.5 0-10 4.5-10 10v32c0 5.5 4.5 10 10 10h32c5.5 0 10-4.5 10-10V22c0-5.5-4.5-10-10-10zM26 56c-3.314 0-6-2.686-6-6s2.686-6 6-6 6 2.686 6 6-2.686 6-6 6zm0-24c-3.314 0-6-2.686-6-6s2.686-6 6-6 6 2.686 6 6-2.686 6-6 6zm12 12c-3.314 0-6-2.686-6-6s2.686-6 6-6 6 2.686 6 6-2.686 6-6 6zm12 12c-3.314 0-6-2.686-6-6s2.686-6 6-6 6 2.686 6 6-2.686 6-6 6zm0-24c-3.314 0-6-2.686-6-6s2.686-6 6-6 6 2.686 6 6-2.686 6-6 6zm1.797-24C50.864 3.45 46.815 0 42 0H10C4.5 0 0 4.5 0 10v32c0 4.815 3.45 8.864 8 9.797V12c0-2.2 1.8-4 4-4h39.797z"/></svg>