<svg xmlns="http://www.w3.org/2000/svg" width="64" height="64" viewBox="0 0 64 64"><path d="M49.177 24.548c-3.69 0-7.005 1.537-9.366 4.043-1 1.062-2.734 2.32-4.61 3.427.88-3.367 3.666-7.606 5.6-9.466 2.478-2.385 4-5.738 4-9.468C44.8 5.902 39.083.076 32 0c-7.08.076-12.8 5.902-12.8 13.082 0 3.73 1.522 7.083 4 9.47 1.935 1.86 4.72 6.098 5.602 9.465-1.878-1.106-3.613-2.364-4.613-3.426-2.36-2.505-5.677-4.042-9.367-4.042-7.15 0-12.943 5.854-12.943 13.083 0 7.228 5.793 13.085 12.943 13.085 3.69 0 7.005-1.585 9.366-4.09 1.05-1.118 2.902-2.51 4.892-3.665-.188 9.23-4.596 16.01-9.082 18.682v2.36h24v-2.36c-4.486-2.67-8.894-9.45-9.082-18.682 1.99 1.156 3.843 2.548 4.893 3.664 2.36 2.506 5.676 4.09 9.367 4.09 7.15 0 12.942-5.855 12.942-13.083S56.325 24.55 49.175 24.55z"/></svg>