<svg xmlns="http://www.w3.org/2000/svg" width="64" height="64" viewBox="0 0 64 64"><path d="M64 26.828C64 14.27 60.325 4.082 55.782 4h.054-5.184S38.477 13.144 20.95 16.733c-.535 2.83-.877 6.205-.877 10.094s.342 7.263.877 10.094c17.527 3.59 29.702 12.735 29.702 12.735h5.184l-.054-.002C60.326 49.575 64 39.385 64 26.83zm-9.95 19.375c-.585 0-1.22-.61-1.546-.972-.79-.878-1.55-2.247-2.2-3.957-1.452-3.827-2.253-8.957-2.253-14.445s.802-10.618 2.255-14.445c.65-1.71 1.41-3.08 2.2-3.958.325-.363.96-.972 1.546-.972s1.222.61 1.548.972c.79.88 1.55 2.247 2.2 3.958 1.453 3.827 2.253 8.957 2.253 14.445s-.8 10.618-2.253 14.445c-.65 1.71-1.41 3.08-2.2 3.958-.324.364-.96.973-1.546.973zM15.74 26.828c0-3.247.238-6.402.69-9.318-2.96.41-5.558.645-8.77.645h-4.19L0 24.073v5.51l3.466 5.92h4.19c3.213 0 5.812.235 8.772.644-.452-2.916-.69-6.072-.69-9.32zm7.27 13.308l-8-1.532L20.125 58.7c.265 1.04 1.296 1.565 2.293 1.166l7.41-2.966c.997-.398 1.395-1.498.887-2.443L23.01 40.135zm31.043-5.84c-.225 0-.47-.235-.595-.374-.304-.34-.597-.866-.848-1.526-.56-1.475-.87-3.452-.87-5.567s.31-4.093.87-5.568c.25-.66.544-1.187.848-1.526.126-.14.37-.375.596-.375s.472.236.597.376c.304.34.597.866.847 1.526.56 1.475.87 3.452.87 5.567s-.31 4.09-.87 5.566c-.25.66-.544 1.187-.847 1.526-.126.14-.37.374-.596.374z"/></svg>