<svg xmlns="http://www.w3.org/2000/svg" width="80" height="64" viewBox="0 0 80 64"><path d="M40 36c6.617 0 12.617 2.692 16.963 7.037L51.31 48.69C48.41 45.795 44.41 44 40 44s-8.41 1.793-11.307 4.69l-5.654-5.653C27.384 38.69 33.384 36 40 36zm-28.284-4.284C19.27 24.16 29.316 20 40 20s20.73 4.16 28.284 11.716l-5.657 5.657C56.583 31.33 48.547 28 40 28s-16.583 3.328-22.627 9.373l-5.657-5.657zM61.8 8.402c6.668 2.82 12.656 6.858 17.798 12L73.94 26.06C64.876 16.992 52.82 12 40 12S15.125 16.993 6.06 26.06L.4 20.4c5.142-5.142 11.13-9.18 17.8-12C25.107 5.482 32.44 4 40 4s14.892 1.48 21.8 4.402zM36 56c0-2.21 1.79-4 4-4s4 1.79 4 4-1.79 4-4 4-4-1.79-4-4z"/></svg>