<svg xmlns="http://www.w3.org/2000/svg" width="64" height="64" viewBox="0 0 64 64"><path d="M64 32C64 14.327 49.673 0 32 0S0 14.327 0 32c0 13.753 8.677 25.48 20.855 30.004L20 64h24l-.855-1.996C55.323 57.48 64 45.754 64 32zm-33.576 7.677C29 39.065 28 37.65 28 36c0-2.21 1.79-4 4-4s4 1.79 4 4c0 1.65-1 3.065-2.424 3.677L32 36l-1.576 3.677zm3.218.154C37.272 39.075 40 35.857 40 32c0-4.418-3.582-8-8-8s-8 3.582-8 8c0 3.856 2.73 7.07 6.36 7.827L25.696 50.71C19.994 48.263 16 42.6 16 36c0-8.836 7.164-16.75 16-16.75S48 27.165 48 36c0 6.6-3.994 12.263-9.696 14.71l-4.662-10.88zm9.386 21.902l-4.62-10.78C46.31 48.282 52 40.805 52 32.002c0-11.047-8.954-20-20-20s-20 8.953-20 20c0 8.804 5.69 16.28 13.592 18.95l-4.62 10.78C10.997 57.452 4.01 47.542 4.01 36 4.01 20.542 16.54 7.26 32 7.26S59.99 20.54 59.99 36c0 11.542-6.987 21.45-16.962 25.732z"/></svg>