<svg xmlns="http://www.w3.org/2000/svg" width="64" height="64" viewBox="0 0 64 64"><path d="M24 32c0-4.418 3.582-8 8-8s8 3.582 8 8-3.582 8-8 8-8-3.582-8-8zm17.522-17.592C47.762 17.793 52 24.402 52 32s-4.237 14.207-10.478 17.592C44.276 45.21 46 38.95 46 32s-1.724-13.21-4.478-17.592zM18 32c0 6.95 1.724 13.21 4.478 17.592C16.238 46.207 12 39.598 12 32s4.238-14.207 10.478-17.592C19.724 18.79 18 25.05 18 32zM6 32c0 10.744 3.4 20.386 8.79 26.983C5.898 53.3 0 43.338 0 32S5.897 10.702 14.79 5.017C9.4 11.613 6 21.257 6 32zM49.21 5.018C58.102 10.702 64 20.662 64 32s-5.897 21.3-14.79 26.984C54.6 52.388 58 42.744 58 32S54.6 11.615 49.21 5.02z"/></svg>