<svg xmlns="http://www.w3.org/2000/svg" width="64" height="64" viewBox="0 0 64 64"><path d="M57.363 22.317c-1.388-1.893-3.323-4.106-5.45-6.232s-4.337-4.06-6.23-5.45C42.46 8.273 40.896 8 40 8H17c-2.757 0-5 2.242-5 5v46c0 2.756 2.243 5 5 5h38c2.757 0 5-2.244 5-5V28c0-.897-.273-2.46-2.637-5.684zm-8.277-3.403c1.92 1.92 3.425 3.65 4.536 5.086H44v-9.622c1.436 1.11 3.167 2.617 5.086 4.536zM56 59c0 .542-.458 1-1 1H17c-.542 0-1-.458-1-1V13c0-.542.458-1 1-1h23v14c0 1.105.895 2 2 2h14v31zM37.683 2.637C34.46.273 32.896 0 32 0H9C6.243 0 4 2.243 4 5v46c0 2.414 1.72 4.435 4 4.9V5c0-.542.458-1 1-1h30.43c-.603-.495-1.19-.954-1.747-1.363z"/></svg>