<svg xmlns="http://www.w3.org/2000/svg" width="64" height="64" viewBox="0 0 64 64"><path d="M57.363 14.317c-1.388-1.893-3.323-4.106-5.45-6.23s-4.337-4.06-6.23-5.45C42.46.273 40.896 0 40 0H9C6.243 0 4 2.243 4 5v54c0 2.757 2.243 5 5 5h46c2.757 0 5-2.243 5-5V20c0-.896-.273-2.46-2.637-5.683zm-8.277-3.403c1.92 1.92 3.425 3.65 4.536 5.086H44V6.378c1.436 1.11 3.167 2.617 5.086 4.536zM56 59c0 .542-.458 1-1 1H9c-.542 0-1-.458-1-1V5c0-.542.458-1 1-1h31v14c0 1.105.895 2 2 2h14v39zM47.268 24.453c-.463-.38-1.073-.532-1.66-.415l-20 4c-.935.187-1.608 1.008-1.608 1.96v14.806c-1.177-.51-2.542-.805-4-.805-4.418 0-8 2.685-8 6s3.582 6 8 6 8-2.687 8-6V35.64l16-3.2v8.364c-1.177-.51-2.542-.805-4-.805-4.418 0-8 2.685-8 6s3.582 6 8 6 8-2.687 8-6V26c0-.6-.27-1.168-.732-1.548z"/></svg>