<svg xmlns="http://www.w3.org/2000/svg" width="64" height="64" viewBox="0 0 64 64"><path d="M20 4H4v16h16V4zm4-4v24H0V0h24zM8 8h8v8H8zm52-4H44v16h16V4zm4-4v24H40V0h24zM48 8h8v8h-8zM20 44H4v16h16V44zm4-4v24H0V40h24zM8 48h8v8H8zM28 0h4v4h-4zm4 4h4v4h-4zm-4 4h4v4h-4zm4 4h4v4h-4zm-4 4h4v4h-4zm4 4h4v4h-4zm-4 4h4v4h-4zm0 8h4v4h-4zm4 4h4v4h-4zm-4 4h4v4h-4zm4 4h4v4h-4zm-4 4h4v4h-4zm4 4h4v4h-4zm-4 4h4v4h-4zm4 4h4v4h-4zm28-28h4v4h-4zM4 32h4v4H4zm4-4h4v4H8zm-8 0h4v4H0zm16 0h4v4h-4zm4 4h4v4h-4zm4-4h4v4h-4zm12 4h4v4h-4zm4-4h4v4h-4zm4 4h4v4h-4zm4-4h4v4h-4zm4 4h4v4h-4zm4-4h4v4h-4zm4 12h4v4h-4zm-24 0h4v4h-4zm4-4h4v4h-4zm4 4h4v4h-4zm8 0h4v4h-4zm4-4h4v4h-4zm4 12h4v4h-4zm-24 0h4v4h-4zm4-4h4v4h-4zm8 0h4v4h-4zm4 4h4v4h-4zm4-4h4v4h-4zm4 12h4v4h-4zm-20-4h4v4h-4zm4 4h4v4h-4zm4-4h4v4h-4zm4 4h4v4h-4zm-12 4h4v4h-4zm8 0h4v4h-4zm8 0h4v4h-4z"/></svg>