<svg xmlns="http://www.w3.org/2000/svg" width="64" height="64" viewBox="0 0 64 64"><path d="M36 20l8 8-16 16-8-8zm26.595-1.406L58 14l-2 2c-1.025 1.024-2.44 1.657-4 1.657-3.125 0-5.658-2.533-5.658-5.657 0-1.563.634-2.977 1.658-4l2-2-4.596-4.595c-1.873-1.873-4.938-1.873-6.81 0l-37.19 37.19c-1.874 1.873-1.874 4.938 0 6.81l4.594 4.596 1.998-1.997c1.024-1.025 2.44-1.66 4.003-1.66 3.123 0 5.656 2.533 5.656 5.657 0 1.563-.634 2.977-1.658 4l-2 2 4.596 4.595c1.873 1.873 4.938 1.873 6.81 0l37.19-37.19c1.874-1.873 1.874-4.94 0-6.81zM28 52L12 36l24-24 16 16-24 24z"/></svg>