<svg xmlns="http://www.w3.org/2000/svg" width="64" height="64" viewBox="0 0 64 64"><path d="M30 4C13.43 4 0 17.43 0 34s13.43 30 30 30 30-13.43 30-30S46.57 4 30 4zm0 54C16.745 58 6 47.255 6 34s10.745-24 24-24 24 10.745 24 24-10.745 24-24 24zM41.926 40.27c-.954-.554-2.18-.23-2.734.724C38.114 42.848 36.124 44 34 44h-8c-2.607 0-4.83-1.672-5.656-4H30c1.105 0 2-.895 2-2s-.895-2-2-2H20v-4h10c1.105 0 2-.895 2-2s-.895-2-2-2h-9.656c.826-2.328 3.05-4 5.656-4h8c2.124 0 4.114 1.152 5.192 3.006.556.955 1.78 1.28 2.734.723s1.28-1.78.723-2.736C40.856 21.914 37.542 20 34 20h-8c-4.83 0-8.87 3.44-9.8 8H14c-1.105 0-2 .895-2 2s.895 2 2 2h2v4h-2c-1.105 0-2 .895-2 2s.895 2 2 2h2.2c.93 4.56 4.97 8 9.8 8h8c3.542 0 6.857-1.914 8.65-4.994.555-.955.23-2.18-.724-2.734z"/></svg>