<svg xmlns="http://www.w3.org/2000/svg" width="64" height="64" viewBox="0 0 64 64"><path d="M30 4C13.43 4 0 17.43 0 34s13.43 30 30 30 30-13.43 30-30S46.57 4 30 4zm0 54C16.745 58 6 47.255 6 34s10.745-24 24-24 24 10.745 24 24-10.745 24-24 24zM38 44H24v-8h6c1.105 0 2-.895 2-2s-.895-2-2-2h-6v-2c0-3.308 2.692-6 6-6 2.136 0 4.128 1.15 5.2 3.002.552.956 1.776 1.283 2.732.73s1.283-1.776.73-2.733c-1.784-3.085-5.102-5-8.66-5-5.515 0-10 4.486-10 10v2h-2c-1.106 0-2 .895-2 2s.894 2 2 2h2v12h18c1.104 0 2-.895 2-2s-.896-2-2-2z"/></svg>