<svg xmlns="http://www.w3.org/2000/svg" width="64" height="64" viewBox="0 0 64 64"><path d="M30 4C13.43 4 0 17.43 0 34s13.43 30 30 30 30-13.43 30-30S46.57 4 30 4zm0 54C16.745 58 6 47.255 6 34s10.745-24 24-24 24 10.745 24 24-10.745 24-24 24zM38 36c1.105 0 2-.895 2-2s-.895-2-2-2h-4.263l5.927-8.89c.613-.92.364-2.162-.555-2.774s-2.162-.364-2.774.555L30 30.396l-6.336-9.504c-.613-.918-1.855-1.167-2.773-.554s-1.166 1.855-.554 2.773L26.263 32H22c-1.105 0-2 .895-2 2s.895 2 2 2h6v4h-6c-1.105 0-2 .895-2 2s.895 2 2 2h6v6c0 1.105.895 2 2 2s2-.895 2-2v-6h6c1.105 0 2-.895 2-2s-.895-2-2-2h-6v-4h6z"/></svg>