<svg xmlns="http://www.w3.org/2000/svg" width="64" height="64" viewBox="0 0 64 64"><path d="M32 0C14.327 0 0 14.327 0 32s14.327 32 32 32 32-14.327 32-32S49.673 0 32 0zM20 32c0-6.628 5.372-12 12-12s12 5.372 12 12-5.373 12-12 12-12-5.373-12-12zm37.874 10.717l-11.09-4.593C47.568 36.238 48 34.17 48 32s-.433-4.238-1.215-6.124l11.09-4.593C59.242 24.583 60 28.203 60 32s-.757 7.416-2.126 10.717zM42.717 6.127l-4.593 11.088C36.238 16.433 34.17 16 32 16s-4.238.433-6.124 1.215l-4.593-11.09C24.583 4.758 28.203 4 32 4s7.416.757 10.717 2.126zM6.127 21.282l11.088 4.593C16.433 27.763 16 29.83 16 32s.433 4.238 1.215 6.124l-11.09 4.593C4.758 39.417 4 35.797 4 32s.757-7.416 2.126-10.717zm15.156 36.59l4.593-11.088C27.763 47.567 29.83 48 32 48s4.238-.433 6.124-1.215l4.593 11.09C39.417 59.242 35.797 60 32 60s-7.416-.757-10.717-2.126z"/></svg>