<svg xmlns="http://www.w3.org/2000/svg" width="64" height="64" viewBox="0 0 64 64"><path d="M63.586 36c.5 3.468.826 8.212-.73 10.028C60.287 49.03 44 49.03 44 43.025c0-3.025 2.678-5.008.107-8.01C41.577 32.06 37.043 32.01 32 32.01c-5.043.002-9.578.05-12.107 3.004-2.57 3.003.107 4.986.107 8.01C20 49.03 3.714 49.03 1.143 46.03-.412 44.212-.087 39.468.413 36c.386-2.315 1.36-4.812 4.473-8 4.67-4.36 11.74-7.92 26.864-7.998V20h.5v.002c15.124.077 22.193 3.64 26.864 7.998 3.114 3.187 4.087 5.685 4.472 8z"/></svg>