<svg xmlns="http://www.w3.org/2000/svg" width="64" height="64" viewBox="0 0 64 64"><path d="M64.094 50c0-18-16-14-16-28 0-1.16-.112-2.15-.316-2.995-1.052-7.064-5.76-12.732-11.86-14.46.053-.247.082-.502.082-.763 0-2.08-1.8-3.78-4-3.78s-4 1.7-4 3.78c0 .26.03.516.082.763-6.842 1.937-11.932 8.83-12.078 17.09-.003.12-.004.24-.004.365C16 36 0 32 0 50c0 4.764 10.662 8.75 24.936 9.755C26.28 62.28 28.94 64 32 64s5.72-1.72 7.064-4.245C53.338 58.75 64 54.765 64 50l-.002-.043.096.043zM51.64 53.38c-3.39.905-7.385 1.556-11.673 1.917C39.61 51.207 36.18 48 32 48s-7.61 3.208-7.967 7.297c-4.288-.36-8.284-1.01-11.673-1.916-4.664-1.244-6.894-2.636-7.71-3.38.816-.744 3.046-2.136 7.71-3.38 5.423-1.448 12.398-2.245 19.64-2.245s14.217.797 19.64 2.244c4.664 1.244 6.894 2.636 7.71 3.38-.816.744-3.046 2.136-7.71 3.38z"/></svg>