<svg xmlns="http://www.w3.org/2000/svg" width="64" height="64" viewBox="0 0 64 64"><path d="M32 12.076V8h8V4c0-2.21-1.79-4-4-4H24c-2.21 0-4 1.79-4 4v4h8v4.076C14.575 13.096 4 24.314 4 38c0 14.36 11.64 26 26 26s26-11.64 26-26c0-13.687-10.575-24.903-24-25.924zm12.142 40.066C40.364 55.92 35.342 58 30 58s-10.365-2.08-14.142-5.858C12.08 48.365 10 43.342 10 38s2.08-10.365 5.858-14.142c3.628-3.627 8.403-5.69 13.507-5.847L28.01 37.638C27.894 39.28 28.79 40 30 40s2.106-.72 1.99-2.363L30.635 18.01c5.104.16 9.88 2.22 13.507 5.848C47.92 27.635 50 32.658 50 38s-2.08 10.365-5.858 14.142z"/></svg>