<svg xmlns="http://www.w3.org/2000/svg" width="64" height="64" viewBox="0 0 64 64"><path d="M61.324 18.007c-5.55-.798-11.46-1.376-17.63-1.7L54 6l-4-4-14.035 14.035C34.652 16.012 33.33 16 32 16L16 0l-4 4 12.137 12.137c-7.558.265-14.77.908-21.462 1.87C.955 24.738 0 32.176 0 39.998S.953 55.26 2.673 61.99C11.652 63.282 21.57 64 32 64s20.346-.717 29.323-2.008C63.043 55.26 64 47.82 64 40s-.956-15.26-2.677-21.994zm-7.33 36.655C47.26 55.522 39.82 56 32 56s-15.26-.477-21.993-1.338C8.717 50.172 8 45.214 8 40s.716-10.174 2.007-14.662C16.74 24.478 24.18 24 32 24s15.26.477 21.993 1.338C55.283 29.828 56 34.786 56 40s-.716 10.174-2.007 14.662z"/></svg>