<svg xmlns="http://www.w3.org/2000/svg" width="72" height="64" viewBox="0 0 72 64"><path d="M68 56.323c0 2.844 1.627 5.307 4 6.51v.997c-.664.09-1.342.14-2.03.14-4.252 0-8.085-1.784-10.796-4.643C57.534 59.763 55.8 60 54 60c-9.94 0-18-7.164-18-16s8.06-16 18-16 18 7.162 18 16c0 3.458-1.235 6.66-3.335 9.278-.427.926-.665 1.957-.665 3.044zM32 0c17.404 0 31.562 11.288 31.99 25.345-3.074-1.37-6.474-2.095-9.99-2.095-5.972 0-11.614 2.09-15.884 5.886C33.688 33.072 31.25 38.35 31.25 44c0 2.792.596 5.493 1.733 7.987-.327.008-.654.013-.983.013-1.697 0-3.363-.108-4.99-.315C20.138 58.56 11.934 59.79 4 59.972V58.29c4.284-2.1 8-5.92 8-10.29 0-.61-.047-1.208-.135-1.794C4.628 41.44 0 34.16 0 26 0 11.64 14.327 0 32 0z"/></svg>