<svg xmlns="http://www.w3.org/2000/svg" width="72" height="64" viewBox="0 0 72 64"><path d="M30 0c16.57 0 30 10.87 30 24.278S46.57 48.556 30 48.556c-1.59 0-3.153-.1-4.677-.294C18.88 54.68 11.437 55.832 4 56v-1.57c4.016-1.96 7.25-5.53 7.25-9.61 0-.568-.044-1.127-.127-1.674C4.338 38.696 0 31.896 0 24.278 0 10.87 13.43 0 30 0zm32.25 54.418c0 3.496 2.27 6.556 5.75 8.236V64c-6.445-.145-12.362-1.13-17.946-6.633-1.32.166-2.675.252-4.054.252-5.967 0-11.463-1.61-15.85-4.316 9.04-.032 17.578-2.928 24.05-8.167 3.264-2.64 5.838-5.74 7.652-9.21 1.923-3.678 2.898-7.598 2.898-11.65 0-.652-.028-1.3-.08-1.947C69.208 26.076 72 31.18 72 36.81c0 6.53-3.76 12.358-9.64 16.173-.07.468-.11.947-.11 1.435z"/></svg>