<svg xmlns="http://www.w3.org/2000/svg" width="64" height="64" viewBox="0 0 64 64"><path d="M32 12c-3.433 0-6.75.54-9.856 1.61-2.92 1.002-5.52 2.42-7.727 4.214C10.28 21.186 8 25.51 8 30c0 2.52.7 4.96 2.078 7.26 1.422 2.37 3.56 4.537 6.187 6.266 1.897 1.25 3.174 3.247 3.51 5.493.114.748.184 1.504.212 2.257.467-.387.922-.803 1.367-1.248 1.51-1.51 3.55-2.344 5.656-2.344.335 0 .673.02 1.01.064 1.31.167 2.65.25 3.98.25 3.433 0 6.75-.54 9.856-1.608 2.92-1.003 5.52-2.422 7.727-4.215C53.72 38.815 56 34.49 56 30s-2.28-8.812-6.417-12.175c-2.208-1.794-4.807-3.212-7.727-4.215C38.75 12.543 35.434 12 32 12zm0-8c17.673 0 32 11.64 32 26S49.673 56 32 56c-1.697 0-3.363-.108-4.99-.315C20.138 62.56 11.934 63.79 4 63.972V62.29c4.284-2.1 8-5.92 8-10.29 0-.61-.047-1.208-.135-1.794C4.628 45.44 0 38.16 0 30 0 15.64 14.327 4 32 4z"/></svg>