<svg xmlns="http://www.w3.org/2000/svg" width="72" height="64" viewBox="0 0 72 64"><path d="M68 56.323c0 2.844 1.627 5.307 4 6.51v.997c-.664.09-1.342.14-2.03.14-4.252 0-8.085-1.784-10.796-4.643C57.534 59.763 55.8 60 54 60c-9.94 0-18-7.164-18-16s8.06-16 18-16 18 7.162 18 16c0 3.458-1.235 6.66-3.335 9.278-.427.926-.665 1.957-.665 3.044zm-53.583-42.5C10.28 17.187 8 21.512 8 26c0 2.52.7 4.96 2.078 7.26 1.422 2.37 3.56 4.536 6.187 6.265 1.897 1.25 3.174 3.247 3.51 5.493.114.75.184 1.505.212 2.258.467-.387.922-.803 1.367-1.248 1.51-1.51 3.55-2.343 5.656-2.343.335 0 .673.02 1.01.064 1.31.165 2.646.25 3.975.25v8c-1.695 0-3.36-.11-4.984-.315C20.138 58.56 11.934 59.79 4 59.972V58.29c4.284-2.1 8-5.92 8-10.29 0-.61-.047-1.208-.135-1.794C4.628 41.44 0 34.16 0 26 0 11.64 14.327 0 32 0c17.404 0 31.562 11.288 31.99 25.345-2.57-1.145-5.365-1.84-8.266-2.036-.72-3.505-2.838-6.802-6.14-9.486-2.21-1.794-4.808-3.212-7.728-4.215C38.75 8.54 35.434 8 32 8s-6.75.54-9.856 1.61c-2.92 1.002-5.52 2.42-7.727 4.214z"/></svg>