<svg xmlns="http://www.w3.org/2000/svg" width="72" height="64" viewBox="0 0 72 64"><path d="M30 8c-3.167 0-6.224.497-9.087 1.477-2.683.918-5.07 2.215-7.094 3.853C10.065 16.367 8 20.255 8 24.278c0 2.25.63 4.434 1.87 6.494 1.293 2.146 3.244 4.112 5.64 5.685 1.903 1.248 3.184 3.247 3.524 5.497.056.374.102.75.136 1.127.17-.156.34-.32.507-.486 1.51-1.502 3.543-2.332 5.645-2.332.334 0 .67.02 1.006.064 1.21.153 2.445.23 3.672.23 3.167 0 6.224-.496 9.087-1.476 2.683-.918 5.07-2.215 7.094-3.853C49.935 32.19 52 28.302 52 24.28s-2.067-7.912-5.82-10.95c-2.023-1.637-4.41-2.933-7.093-3.852C36.224 8.498 33.167 8 30 8zm0-8c16.57 0 30 10.87 30 24.278S46.57 48.556 30 48.556c-1.59 0-3.153-.1-4.677-.294C18.88 54.68 11.437 55.832 4 56v-1.57c4.016-1.96 7.25-5.53 7.25-9.61 0-.568-.044-1.127-.127-1.674C4.338 38.696 0 31.896 0 24.278 0 10.87 13.43 0 30 0zm32.25 54.418c0 3.496 2.27 6.556 5.75 8.236V64c-6.445-.145-12.362-1.13-17.946-6.633-1.32.166-2.675.252-4.054.252-5.967 0-11.463-1.61-15.85-4.316 9.04-.032 17.578-2.928 24.05-8.167 3.264-2.64 5.838-5.74 7.652-9.21 1.923-3.678 2.898-7.598 2.898-11.65 0-.652-.028-1.3-.08-1.947C69.208 26.076 72 31.18 72 36.81c0 6.53-3.76 12.358-9.64 16.173-.07.468-.11.947-.11 1.435z"/></svg>