<svg xmlns="http://www.w3.org/2000/svg" width="64" height="64" viewBox="0 0 64 64"><path d="M45.562 32C54.172 26.542 60 16.05 60 4c0-1.355-.075-2.69-.217-4H4.218C4.075 1.31 4 2.645 4 4c0 12.05 5.828 22.542 14.438 28C9.828 37.458 4 47.95 4 60c0 1.355.074 2.69.217 4h55.565c.143-1.31.217-2.645.217-4 0-12.05-5.83-22.542-14.44-28zM10 60c0-11.682 5.01-21.588 14-24.857v-6.287C15.01 25.588 10 15.68 10 4h44c0 11.68-5.01 21.587-14 24.856v6.287C48.99 38.41 54 48.318 54 60H10zm28.727-18.15c-4.478-2.54-4.725-5.835-4.727-7.835V30c0-2 .238-5.306 4.734-7.853C41.14 20.75 43.222 18.625 44.8 16H19.2c1.58 2.628 3.664 4.754 6.074 6.15C29.752 24.69 30 27.987 30 29.987V34c0 2-.237 5.307-4.733 7.854-4.54 2.636-7.92 7.855-8.943 14.146h31.354c-1.023-6.294-4.408-11.516-8.95-14.15z"/></svg>