<svg xmlns="http://www.w3.org/2000/svg" width="64" height="64" viewBox="0 0 64 64"><path d="M24 8c0-4.418 3.582-8 8-8s8 3.582 8 8-3.582 8-8 8-8-3.582-8-8zm16.97 7.03c0-4.42 3.583-8 8-8s8 3.58 8 8c0 4.417-3.58 8-8 8s-8-3.583-8-8zM52 32c0-2.21 1.79-4 4-4s4 1.79 4 4-1.79 4-4 4-4-1.79-4-4zm-7.03 16.97c0-2.208 1.792-4 4-4s4 1.792 4 4c0 2.21-1.79 4-4 4s-4-1.79-4-4zM28 56c0-2.21 1.79-4 4-4s4 1.79 4 4-1.79 4-4 4-4-1.79-4-4zm-16.97-7.03c0-2.208 1.79-4 4-4s4 1.792 4 4c0 2.21-1.79 4-4 4s-4-1.79-4-4zm-2-33.94c0-3.315 2.686-6 6-6s6 2.685 6 6c0 3.313-2.686 6-6 6s-6-2.687-6-6zM3.5 32c0-2.485 2.015-4.5 4.5-4.5s4.5 2.015 4.5 4.5-2.015 4.5-4.5 4.5-4.5-2.015-4.5-4.5z"/></svg>