<svg xmlns="http://www.w3.org/2000/svg" width="64" height="64" viewBox="0 0 64 64"><path d="M64 32c-.08-4.18-.986-8.345-2.66-12.154-1.67-3.813-4.092-7.266-7.066-10.12-2.972-2.856-6.496-5.114-10.312-6.603C40.15 1.628 36.05.913 32 1c-4.05.08-8.083.96-11.77 2.585-3.692 1.62-7.035 3.967-9.797 6.848-2.764 2.88-4.947 6.294-6.387 9.987C2.6 24.11 1.913 28.077 2 32c.08 3.92.934 7.82 2.507 11.387 1.568 3.57 3.842 6.802 6.632 9.472 2.787 2.67 6.09 4.78 9.662 6.17 3.57 1.393 7.403 2.055 11.196 1.97 3.794-.082 7.56-.91 11.005-2.433 3.447-1.518 6.57-3.718 9.148-6.415 2.58-2.696 4.616-5.89 5.954-9.34.815-2.09 1.367-4.274 1.66-6.486.077.005.155.008.234.008 2.21 0 4-1.79 4-4 0-.112-.006-.223-.015-.333h.015zm-6.356 10.622c-1.467 3.325-3.593 6.337-6.2 8.824-2.603 2.488-5.687 4.45-9.014 5.737C39.103 58.475 35.537 59.086 32 59c-3.538-.08-7.037-.857-10.24-2.28-3.202-1.416-6.104-3.467-8.5-5.98-2.395-2.513-4.282-5.486-5.52-8.692C6.5 38.843 5.915 35.41 6 32c.08-3.41.832-6.775 2.202-9.855 1.366-3.08 3.344-5.873 5.765-8.176 2.42-2.305 5.283-4.118 8.367-5.304 3.084-1.19 6.383-1.75 9.664-1.665 3.28.083 6.514.808 9.473 2.128 2.96 1.316 5.642 3.22 7.853 5.55 2.212 2.328 3.95 5.08 5.087 8.042 1.14 2.962 1.674 6.13 1.59 9.28h.014c-.01.11-.015.222-.015.334 0 2.063 1.56 3.76 3.567 3.977-.39 2.177-1.033 4.302-1.924 6.313z"/></svg>