<svg xmlns="http://www.w3.org/2000/svg" width="64" height="64" viewBox="0 0 64 64"><path d="M32 18.944c-2.06 0-3.73-1.67-3.73-3.73V4.024c0-2.06 1.67-3.73 3.73-3.73s3.73 1.67 3.73 3.73v11.19c0 2.06-1.67 3.73-3.73 3.73zM32 62.31c-1.288 0-2.33-1.044-2.33-2.33V48.787c0-1.288 1.043-2.33 2.33-2.33s2.33 1.043 2.33 2.33v11.19c0 1.29-1.043 2.332-2.33 2.332zM23.61 20.96c-1.21 0-2.384-.627-3.032-1.75l-5.596-9.69c-.966-1.674-.393-3.813 1.28-4.778s3.812-.393 4.777 1.28l5.595 9.692c.966 1.673.393 3.812-1.28 4.777-.55.32-1.152.47-1.745.47zM45.99 58.328c-.724 0-1.43-.376-1.818-1.05l-5.596-9.692c-.58-1.004-.236-2.287.768-2.867s2.287-.237 2.867.767l5.597 9.692c.58 1.003.236 2.286-.768 2.866-.33.19-.692.28-1.048.28zM17.46 26.87c-.555 0-1.116-.14-1.63-.437l-9.692-5.596c-1.56-.9-2.096-2.898-1.195-4.46s2.898-2.095 4.46-1.194l9.69 5.596c1.562.9 2.097 2.897 1.196 4.458-.605 1.047-1.703 1.633-2.83 1.633zM56.228 47.855c-.316 0-.637-.08-.93-.25l-9.693-5.596c-.892-.516-1.198-1.657-.683-2.55s1.656-1.197 2.548-.682l9.692 5.596c.892.515 1.198 1.656.683 2.548-.346.598-.973.933-1.617.933zM15.213 35.03H4.023C2.347 35.03.99 33.675.99 32s1.358-3.03 3.032-3.03h11.19c1.675 0 3.032 1.356 3.032 3.03s-1.357 3.03-3.03 3.03zM59.978 33.865h-11.19c-1.03 0-1.866-.835-1.866-1.865s.835-1.865 1.865-1.865h11.19c1.03 0 1.866.835 1.866 1.865s-.835 1.865-1.865 1.865zM7.773 48.787c-.967 0-1.907-.502-2.426-1.4-.773-1.337-.314-3.048 1.024-3.82l9.693-5.597c1.338-.773 3.05-.314 3.822 1.024s.314 3.05-1.024 3.822l-9.69 5.596c-.442.254-.923.375-1.397.375zM46.54 25.472c-.646 0-1.273-.334-1.618-.933-.515-.893-.21-2.034.683-2.55l9.692-5.595c.892-.515 2.033-.21 2.548.683s.21 2.033-.683 2.548l-9.692 5.596c-.294.17-.614.25-.93.25zM18.01 58.795c-.436 0-.877-.11-1.28-.344-1.228-.707-1.648-2.276-.94-3.502l5.596-9.692c.708-1.227 2.277-1.647 3.503-.94s1.646 2.278.938 3.504l-5.596 9.692c-.475.823-1.337 1.283-2.223 1.283zM40.392 19.328c-.316 0-.637-.08-.93-.25-.893-.515-1.2-1.656-.684-2.548l5.596-9.692c.515-.892 1.656-1.198 2.548-.683s1.198 1.656.683 2.548l-5.596 9.692c-.347.598-.973.933-1.618.933z"/></svg>