<svg xmlns="http://www.w3.org/2000/svg" width="64" height="64" viewBox="0 0 64 64"><path d="M12 32c0-.76.044-1.512.127-2.25L.567 25.992C.196 27.94 0 29.947 0 32c0 9.203 3.885 17.496 10.103 23.334l7.143-9.83C13.988 41.943 12 37.205 12 32zm40 0c0 5.204-1.988 9.944-5.246 13.502l7.143 9.83C60.115 49.496 64 41.203 64 32c0-2.054-.196-4.062-.566-6.008l-11.56 3.756c.082.74.126 1.49.126 2.25zM36 12.4c5.746 1.166 10.596 4.796 13.403 9.74l11.56-3.757C56.39 8.67 47.074 1.63 36 .248V12.4zm-21.403 9.74c2.807-4.943 7.657-8.573 13.403-9.74V.25C16.926 1.63 7.61 8.67 3.036 18.383l11.56 3.756zm25.688 28.068C37.76 51.358 34.955 52 32 52s-5.76-.642-8.285-1.792l-7.143 9.832C21.147 62.563 26.406 64 32 64s10.852-1.437 15.428-3.96l-7.143-9.832z"/></svg>