<svg xmlns="http://www.w3.org/2000/svg" width="64" height="64" viewBox="0 0 64 64"><path d="M24 8c0-4.418 3.582-8 8-8s8 3.582 8 8-3.582 8-8 8-8-3.582-8-8zm25.437 24c0-3.625 2.938-6.563 6.563-6.563s6.563 2.938 6.563 6.563c0 3.625-2.938 6.563-6.563 6.563S49.437 35.625 49.437 32zm-6.41 16.97c0-3.282 2.66-5.943 5.943-5.943s5.944 2.66 5.944 5.944-2.66 5.945-5.944 5.945-5.944-2.66-5.944-5.944zM26.616 56c0-2.973 2.41-5.384 5.383-5.384s5.384 2.41 5.384 5.384c0 2.973-2.41 5.384-5.384 5.384s-5.384-2.41-5.384-5.384zm-16.464-7.03c0-2.692 2.183-4.875 4.876-4.875s4.875 2.183 4.875 4.876c0 2.694-2.183 4.877-4.876 4.877s-4.877-2.183-4.877-4.876zM3.583 32c0-2.44 1.978-4.416 4.417-4.416S12.416 29.56 12.416 32c0 2.44-1.977 4.416-4.416 4.416S3.584 34.44 3.584 32zm7.447-16.97c0-2.21 1.79-4 4-4s4 1.79 4 4-1.79 4-4 4-4-1.79-4-4zm45.187 0c0 4-3.244 7.246-7.246 7.246s-7.245-3.244-7.245-7.246c0-4.002 3.245-7.246 7.246-7.246s7.247 3.244 7.247 7.246z"/></svg>