<svg xmlns="http://www.w3.org/2000/svg" width="64" height="64" viewBox="0 0 64 64"><path d="M26 58c0-3.314 2.686-6 6-6s6 2.686 6 6-2.686 6-6 6-6-2.686-6-6zM0 32c0-3.314 2.686-6 6-6s6 2.686 6 6-2.686 6-6 6-6-2.686-6-6zm52 0c0-3.314 2.686-6 6-6s6 2.686 6 6-2.686 6-6 6-6-2.686-6-6zM7.615 13.615c0-3.314 2.686-6 6-6s6 2.686 6 6-2.686 6-6 6-6-2.686-6-6zm36.77 36.77c0-3.314 2.686-6 6-6s6 2.686 6 6-2.686 6-6 6-6-2.686-6-6zm-36.77 0c0-3.314 2.686-6 6-6s6 2.686 6 6-2.686 6-6 6-6-2.686-6-6zm36.77-36.77c0-3.314 2.686-6 6-6s6 2.686 6 6-2.686 6-6 6-6-2.686-6-6z"/></svg>