<svg xmlns="http://www.w3.org/2000/svg" width="64" height="64" viewBox="0 0 64 64"><path d="M32 64c-8.547 0-16.583-3.33-22.628-9.373S0 40.547 0 32c0-6.053 1.698-11.947 4.912-17.044C8.037 10 12.454 5.996 17.684 3.376l2.688 5.363c-4.252 2.13-7.843 5.386-10.384 9.416C7.378 22.294 6 27.08 6 32c0 14.335 11.664 26 26 26s26-11.665 26-26c0-4.92-1.38-9.706-3.988-13.844-2.54-4.03-6.132-7.287-10.384-9.417l2.688-5.365c5.23 2.62 9.647 6.625 12.772 11.58C62.302 20.054 64 25.948 64 32c0 8.546-3.328 16.582-9.372 22.627S40.548 64 32 64z"/></svg>