<svg xmlns="http://www.w3.org/2000/svg" width="64" height="64" viewBox="0 0 64 64"><path d="M.003 32.1v.015c.008.242.035.48.084.71l.042.36.044.38.074.51c.053.36.112.76.182 1.186l.273 1.305c.044.232.11.47.174.713l.198.75c.035.128.065.258.107.388s.083.26.124.394l.258.812.067.208.078.207.156.42.324.86.375.87.192.444.213.443.44.896c.155.298.326.593.49.894.084.15.17.3.253.452.086.15.182.297.273.446l.558.897c.79 1.18 1.668 2.347 2.64 3.454.98 1.1 2.044 2.14 3.167 3.1 1.136.946 2.33 1.806 3.545 2.57 1.225.752 2.478 1.395 3.71 1.947l.93.38c.155.06.305.127.46.182l.46.162c.307.105.606.217.906.312l.895.265c.147.043.29.09.438.127s.293.07.438.106l.85.206.83.16.4.075.2.037.197.028.77.107.37.05.362.037.698.06s.444.044.658.047c.014.002.028.002.043.003C27.984 62.25 29.76 64 31.944 64c.034 0 .067 0 .1-.002h.015c.24-.008.48-.035.708-.084l.36-.042.38-.045.512-.075c.36-.053.758-.112 1.185-.182l1.304-.273c.23-.044.468-.11.712-.174l.75-.198c.128-.035.258-.065.388-.107s.26-.082.394-.124l.812-.258.208-.067.207-.078c.14-.05.28-.104.42-.156l.86-.324.87-.375.445-.192.442-.213.896-.44c.3-.155.595-.326.895-.49l.452-.253.446-.273c.296-.184.595-.37.897-.56 1.18-.79 2.348-1.666 3.455-2.637 1.098-.982 2.14-2.045 3.1-3.168.946-1.136 1.806-2.33 2.57-3.545.75-1.225 1.394-2.478 1.945-3.71l.38-.93c.06-.155.126-.305.18-.46l.163-.46c.105-.306.217-.605.312-.905l.265-.894c.042-.147.09-.29.126-.438l.105-.437c.07-.288.14-.57.206-.85.055-.28.11-.558.16-.83.027-.135.052-.27.077-.402l.037-.197c.01-.066.02-.132.028-.198l.107-.77.05-.37.035-.362.06-.698s.044-.444.047-.658c0-.033.002-.065.004-.098C62.218 35.99 64 34.202 64 32c0-.035-.003-.068-.004-.102v-.014c-.008-.242-.035-.48-.084-.71l-.042-.36-.045-.38-.074-.51c-.052-.36-.11-.76-.18-1.186l-.274-1.304c-.044-.233-.11-.47-.174-.713l-.197-.75c-.035-.127-.065-.257-.107-.387s-.083-.26-.124-.394l-.258-.813-.066-.208c-.026-.07-.05-.14-.077-.208l-.156-.42-.324-.86-.375-.87-.192-.444-.213-.442-.44-.896c-.155-.3-.326-.595-.49-.895l-.253-.452c-.086-.15-.18-.297-.272-.446l-.558-.897c-.79-1.18-1.667-2.348-2.638-3.455-.982-1.098-2.045-2.14-3.168-3.1-1.136-.946-2.33-1.806-3.545-2.57-1.226-.75-2.48-1.394-3.712-1.945l-.93-.38c-.154-.06-.304-.126-.46-.18-.153-.055-.307-.11-.46-.163-.306-.105-.605-.217-.905-.312l-.895-.265c-.147-.042-.29-.09-.438-.126l-.437-.106-.85-.206-.83-.16-.4-.076-.2-.037-.197-.03c-.262-.036-.518-.07-.77-.106l-.37-.05-.362-.037c-.24-.02-.47-.042-.698-.06s-.444-.044-.658-.047l-.157-.006C35.9 1.75 34.128 0 31.944 0c-.034 0-.067.002-.1.003h-.015c-.242.008-.48.035-.71.084l-.36.042-.38.044-.51.074c-.36.053-.76.112-1.186.182l-1.304.273c-.232.044-.47.11-.713.174l-.75.198c-.128.035-.258.065-.388.107s-.26.082-.394.124l-.812.258-.207.067-.207.078-.42.156-.86.324-.87.375-.444.192-.442.213-.896.44c-.3.155-.595.326-.895.49l-.453.253-.446.273c-.295.184-.594.37-.896.56-1.18.79-2.348 1.666-3.455 2.637-1.1.982-2.14 2.045-3.1 3.168-.947 1.136-1.807 2.33-2.57 3.546-.752 1.225-1.395 2.478-1.946 3.71l-.38.93c-.06.155-.126.305-.18.46-.055.153-.11.307-.163.46-.104.306-.216.605-.31.905-.09.3-.18.6-.266.893-.042.147-.09.29-.126.438l-.106.438-.206.85-.16.83-.076.4-.037.2c-.01.065-.02.13-.028.197l-.107.77-.05.37-.036.362c-.02.24-.042.472-.06.698s-.044.444-.047.658c0 .034-.002.067-.004.1-2.147.07-3.868 1.832-3.868 3.998 0 .035.002.068.003.102zm4.592-4.056l.008-.036c.04-.203.102-.41.16-.62l.18-.654c.032-.11.058-.225.097-.338l.113-.342.234-.706.06-.18.07-.18.14-.365c.096-.244.193-.493.29-.746.112-.247.224-.5.338-.755l.172-.385.19-.383.394-.776c.14-.26.292-.514.438-.774l.223-.39.243-.386.495-.775c.702-1.02 1.477-2.025 2.333-2.977.868-.944 1.804-1.838 2.788-2.66.998-.807 2.043-1.54 3.105-2.188 1.07-.637 2.163-1.177 3.233-1.64l.808-.317c.134-.05.264-.106.398-.152.134-.045.267-.09.4-.133.266-.087.524-.18.784-.26.262-.072.52-.145.774-.216.127-.035.252-.075.378-.105s.253-.057.378-.085l.734-.168.716-.126.347-.06.17-.03.172-.022.663-.082.32-.04.312-.026.6-.044s.383-.033.567-.032l1.024-.023.802.03c.12.002.233.006.34.01.133.007.257.015.372.023.133.01.254.017.364.024.203.032.412.05.624.05.03 0 .058-.003.087-.003.007 0 .013.002.013.002 1.946-.05 3.547-1.487 3.847-3.36l.1.02c.204.04.41.103.622.16s.43.12.653.18c.11.033.225.06.338.098l.342.113.706.234.182.06.18.07.364.14.746.29.755.337.385.172.383.19.776.394c.26.138.515.29.776.437l.39.223.386.242c.256.164.514.33.775.495 1.02.702 2.025 1.477 2.977 2.333.944.867 1.838 1.803 2.66 2.787.807.998 1.54 2.043 2.188 3.105.637 1.07 1.178 2.163 1.64 3.233l.317.808c.05.134.106.264.152.398l.133.4c.087.267.18.525.26.785.072.262.145.52.216.774.035.126.075.25.105.377s.057.253.086.378l.17.734.126.715.06.347.03.17.022.172.082.663.04.32.026.312.044.6s.033.382.032.566l.023 1.024-.03.8c-.002.12-.006.234-.01.34-.007.134-.015.258-.023.373-.01.133-.017.254-.024.364-.03.203-.048.412-.048.624l.002.088v.014c.048 1.923 1.452 3.508 3.293 3.836l-.012.055c-.04.203-.102.41-.16.62l-.18.654c-.032.11-.058.225-.097.338l-.113.342-.233.706-.06.18-.07.18-.14.365c-.096.244-.193.493-.29.746l-.338.755-.172.384-.19.383-.394.776c-.138.26-.29.514-.437.775l-.224.39-.242.386-.495.775c-.703 1.018-1.478 2.024-2.334 2.976-.867.944-1.803 1.838-2.787 2.66-1 .807-2.044 1.54-3.106 2.188-1.07.637-2.163 1.177-3.233 1.64l-.807.317c-.133.052-.264.108-.398.154-.134.045-.267.09-.4.133-.266.087-.524.18-.784.26l-.774.216c-.127.034-.252.074-.378.104s-.253.057-.378.086l-.734.168-.716.127-.347.06-.17.03-.17.022-.664.08c-.11.015-.215.028-.32.04s-.21.018-.313.027l-.6.044s-.383.034-.567.033l-1.024.023-.8-.03c-.12-.002-.234-.006-.34-.01-.134-.007-.258-.015-.373-.023-.133-.01-.254-.017-.364-.024-.204-.033-.413-.05-.625-.05l-.087.002h-.014c-1.938.048-3.533 1.474-3.843 3.335-.2-.04-.402-.1-.61-.158-.213-.06-.43-.12-.654-.18-.11-.033-.225-.06-.338-.098l-.342-.113-.706-.235-.18-.06-.18-.07-.365-.14-.746-.292-.756-.337-.385-.172-.384-.19-.776-.395c-.26-.14-.514-.292-.775-.438l-.39-.223-.386-.243-.776-.495c-1.018-.702-2.025-1.477-2.977-2.333-.944-.868-1.838-1.804-2.66-2.788-.807-.998-1.54-2.043-2.188-3.105-.638-1.07-1.18-2.163-1.642-3.233-.106-.272-.21-.54-.316-.808-.05-.133-.107-.264-.153-.398s-.09-.268-.134-.4c-.087-.266-.18-.524-.26-.784l-.216-.775c-.034-.128-.074-.253-.104-.38s-.057-.252-.085-.377l-.167-.734-.127-.717-.06-.347-.03-.17-.022-.172-.082-.663-.04-.318-.026-.313-.044-.602s-.033-.382-.032-.566l-.023-1.024.03-.8c.002-.12.006-.234.01-.34.007-.134.015-.258.023-.373.01-.133.017-.254.024-.364.03-.203.048-.41.048-.624L8 31.91v-.015c-.05-1.96-1.508-3.572-3.402-3.855z"/></svg>