<svg xmlns="http://www.w3.org/2000/svg" width="64" height="64" viewBox="0 0 64 64"><path d="M4 0h24v4H4zm32 0h24v4H36zm23.5 20H56V4H40v16H24V4H8v16H4.5C2.025 20 0 22.025 0 24.5v35C0 61.975 2.025 64 4.5 64h19c2.475 0 4.5-2.025 4.5-4.5V36h8v23.5c0 2.475 2.025 4.5 4.5 4.5h19c2.475 0 4.5-2.025 4.5-4.5v-35c0-2.475-2.025-4.5-4.5-4.5zM21.75 60H6.25C5.013 60 4 59.1 4 58s1.013-2 2.25-2h15.5c1.238 0 2.25.9 2.25 2s-1.012 2-2.25 2zM34 32h-4c-1.1 0-2-.9-2-2s.9-2 2-2h4c1.1 0 2 .9 2 2s-.9 2-2 2zm23.75 28h-15.5c-1.237 0-2.25-.9-2.25-2s1.013-2 2.25-2h15.5c1.237 0 2.25.9 2.25 2s-1.013 2-2.25 2z"/></svg>