<svg xmlns="http://www.w3.org/2000/svg" width="64" height="64" viewBox="0 0 64 64"><path d="M62.633 19.64l-6.32-6.32-5.634-5.634-6.32-6.32C42.81-.183 40.05-.455 38.227.76L20.95 12.278c-1.823 1.216-2.514 3.814-1.534 5.774l4.405 8.81c.136.27.29.557.463.855L2 50 0 64h12v-4h8v-8h8v-8h8v-4.45c.4.24.783.452 1.137.63l8.81 4.405c1.96.98 4.56.29 5.775-1.534L63.24 25.775c1.216-1.823.942-4.583-.607-6.133zM9.413 53.414l-2.827-2.828L26.06 31.113l2.827 2.828L9.414 53.415zm47.9-26.93l-2.827 2.83c-.778.777-2.05.777-2.828 0L34.688 12.34c-.78-.778-.78-2.05 0-2.828l2.827-2.83c.778-.777 2.05-.777 2.828 0l16.97 16.972c.78.778.78 2.05 0 2.828z"/></svg>