<svg xmlns="http://www.w3.org/2000/svg" width="64" height="64" viewBox="0 0 64 64"><path d="M22.733 45.128l2.58-3.614-2.827-2.828-3.614 2.58c-.67-.374-1.388-.672-2.142-.886L16 36h-4l-.73 4.38c-.754.214-1.472.512-2.142.887l-3.614-2.58-2.83 2.827 2.582 3.614c-.375.67-.673 1.388-.887 2.142L0 48v4l4.38.73c.213.754.51 1.47.886 2.142l-2.58 3.614 2.827 2.828 3.614-2.58c.67.374 1.388.672 2.142.886L12 64h4l.73-4.38c.753-.214 1.47-.512 2.14-.887l3.615 2.58 2.828-2.827-2.58-3.614c.374-.67.672-1.388.886-2.142L28 52v-4l-4.38-.73c-.214-.754-.512-1.47-.887-2.142zM14 54c-2.21 0-4-1.79-4-4s1.79-4 4-4 4 1.79 4 4-1.79 4-4 4zm50-30v-4l-4.21-.766c-.08-.503-.178-1-.296-1.487l3.597-2.32-1.53-3.695-4.184.904c-.263-.432-.545-.85-.843-1.258l2.438-3.52-2.827-2.83-3.52 2.44c-.408-.3-.827-.58-1.26-.844l.905-4.184L48.572.91l-2.32 3.596c-.487-.118-.983-.218-1.486-.295L44 0h-4l-.766 4.21c-.503.08-.998.178-1.487.296L35.427.91l-3.694 1.53.904 4.184c-.432.263-.85.545-1.258.843L27.857 5.03 25.03 7.856l2.438 3.52c-.298.408-.58.827-.843 1.26l-4.184-.905-1.53 3.696 3.597 2.32c-.118.487-.218.983-.295 1.486L20 20v4l4.21.766c.08.503.178 1 .296 1.487l-3.597 2.32 1.53 3.695 4.184-.904c.264.432.546.85.843 1.258l-2.438 3.52 2.827 2.83 3.52-2.44c.408.3.827.58 1.26.844l-.905 4.184 3.695 1.53 2.32-3.596c.487.118.983.218 1.486.295L40 44h4l.765-4.21c.503-.078.998-.177 1.487-.295l2.32 3.597 3.695-1.53-.904-4.185c.432-.264.85-.545 1.258-.843l3.522 2.438 2.828-2.828-2.438-3.52c.298-.408.58-.827.843-1.26l4.184.905 1.53-3.697-3.597-2.32c.118-.487.218-.983.295-1.486l4.21-.766zm-22 6.7c-4.805 0-8.7-3.895-8.7-8.7s3.895-8.7 8.7-8.7 8.7 3.895 8.7 8.7-3.895 8.7-8.7 8.7z"/></svg>