<svg xmlns="http://www.w3.org/2000/svg" width="64" height="64" viewBox="0 0 64 64"><path d="M64 36v-4H51.92c-.367-4.543-1.988-8.69-4.48-12.016h10.12L61.94 2.47l-3.88-.97-3.622 14.484H43.52l-.17-.13c.42-1.218.65-2.525.65-3.886 0-6.61-5.373-11.97-12-11.97S20 5.36 20 11.97c0 1.36.227 2.668.647 3.887-.056.043-.113.085-.17.13H9.56L5.94 1.498l-3.882.97 4.38 17.514h10.12c-2.493 3.326-4.113 7.473-4.48 12.015H0v4h12.086c.238 2.853.97 5.55 2.102 7.983h-7.75l-4.38 17.515 3.882.97 3.62-14.485h7.023c3.67 4.877 9.213 7.984 15.417 7.984s11.748-3.107 15.416-7.984h7.022l3.62 14.485 3.882-.97-4.38-17.515H49.81c1.132-2.434 1.864-5.13 2.1-7.984h12.087z"/></svg>