<svg xmlns="http://www.w3.org/2000/svg" width="64" height="64" viewBox="0 0 64 64"><path d="M8 56h56v8H0V0h8zm10-4c-3.314 0-6-2.686-6-6s2.686-6 6-6c.177 0 .35.01.524.024l6.45-10.75C24.36 28.335 24 27.21 24 26c0-3.314 2.686-6 6-6s6 2.686 6 6c0 1.21-.36 2.333-.974 3.275l6.45 10.75c.173-.016.347-.025.524-.025.133 0 .266.006.397.014L53.044 21.38C52.386 20.42 52 19.255 52 18c0-3.315 2.686-6 6-6s6 2.685 6 6c0 3.313-2.686 6-6 6-.134 0-.266-.007-.397-.016L46.956 42.617C47.614 43.58 48 44.744 48 46c0 3.313-2.686 6-6 6s-6-2.687-6-6c0-1.21.36-2.334.974-3.276l-6.45-10.75c-.172.016-.347.025-.523.025s-.35-.01-.523-.025l-6.45 10.75c.615.94.974 2.065.974 3.274 0 3.313-2.685 6-6 6z"/></svg>