<svg xmlns="http://www.w3.org/2000/svg" width="64" height="64" viewBox="0 0 64 64"><path d="M48.22 20c1.133-.805 2.22-1.7 3.215-2.697 2.088-2.088 3.484-4.656 3.932-7.233.49-2.824-.23-5.446-1.977-7.194-1.394-1.394-3.282-2.13-5.46-2.13-3.102 0-6.37 1.49-8.966 4.085-4.155 4.156-6.577 9.89-7.88 13.984C30.12 14.7 28.196 9.15 24.458 5.41c-2.006-2.006-4.57-3.036-6.99-3.036-1.978 0-3.86.688-5.266 2.093-3.124 3.124-2.702 8.612.943 12.257 1.3 1.3 2.82 2.38 4.42 3.276H4v16h4v28h48V36h4V20H48.22zM42.145 8.014c1.733-1.733 3.895-2.767 5.784-2.767.668 0 1.606.14 2.277.812 1.627 1.626.713 5.393-1.955 8.06-2.747 2.748-6.44 4.637-9.652 5.88h-3.167c1.16-3.597 3.254-8.528 6.712-11.986zM14.62 10.056c-.043-.57-.002-1.64.763-2.406.64-.64 1.487-.775 2.084-.775 1.33 0 2.717.626 3.808 1.718 2.117 2.117 3.86 5.486 5.042 9.742l.093.343c-.113-.03-.228-.06-.343-.093-4.256-1.18-7.625-2.925-9.742-5.042-.99-.99-1.61-2.26-1.705-3.487zM28 60H12V34h16v26zm0-28H8v-8h20v8zm24 28H36V34h16v26zm4-28H36v-8h20v8z"/></svg>