<svg xmlns="http://www.w3.org/2000/svg" width="64" height="64" viewBox="0 0 64 64"><path d="M48.61 1.054C48.263.404 47.587 0 46.85 0h-29.7c-.736 0-1.413.405-1.762 1.054-2.217 4.126-3.39 8.95-3.39 13.947 0 6.59 2.024 12.803 5.698 17.497 2.84 3.628 6.405 6.034 10.303 7.01v20.494h-6c-1.106 0-2 .896-2 2s.894 2 2 2h20c1.104 0 2-.894 2-2s-.896-2-2-2h-6V39.51c3.897-.977 7.463-3.383 10.302-7.01C49.976 27.802 52 21.587 52 15c0-4.996-1.173-9.82-3.39-13.946zM18.38 4h27.24C47.18 7.306 48 11.084 48 15c0 .335-.007.668-.02 1H16.02c-.012-.332-.018-.665-.018-1 0-3.916.82-7.694 2.38-11z"/></svg>