<svg xmlns="http://www.w3.org/2000/svg" width="64" height="64" viewBox="0 0 64 64"><path d="M60 20H48v-6C48 8.477 37.255 4 24 4S0 8.477 0 14v40c0 5.523 10.745 10 24 10s24-4.477 24-10v-6h12c2.21 0 4-1.79 4-4V24c0-2.21-1.79-4-4-4zm-48.996-3.85C8.692 15.388 7.29 14.572 6.54 14c.75-.572 2.152-1.388 4.464-2.15C14.624 10.657 19.24 10 24 10s9.375.657 12.996 1.85c2.312.762 3.713 1.578 4.463 2.15-.75.572-2.152 1.388-4.464 2.15C33.376 17.343 28.76 18 24 18s-9.375-.657-12.996-1.85zM56 40h-8V28h8v12z"/></svg>