<svg xmlns="http://www.w3.org/2000/svg" width="64" height="64" viewBox="0 0 64 64"><path d="M63.208 8.406C56.286 3.16 45.634.03 34.714.03 21.206.03 10.2 4.744 4.516 12.967 1.846 16.83.37 21.403.128 26.56c-.216 4.592.555 9.67 2.293 15.134C8.35 23.92 24.91 10 44 10c0 0-17.864 4.702-29.095 19.262-.007.01-.156.193-.413.544-2.255 3.017-4.22 6.448-5.692 10.333C6.308 46.065 4 54.197 4 64h8s-1.213-7.64.9-16.424c3.492.472 6.615.707 9.427.707 7.355 0 12.586-1.59 16.462-5.008 3.472-3.06 5.386-7.174 7.413-11.53 3.095-6.65 6.603-14.187 16.79-20.008.584-.333.96-.937 1.005-1.607s-.252-1.317-.788-1.723z"/></svg>