<svg xmlns="http://www.w3.org/2000/svg" width="64" height="64" viewBox="0 0 64 64"><path d="M32 4c17.673 0 32 14.327 32 32 0 12.05-6.66 22.542-16.5 28h-31C6.66 58.542 0 48.05 0 36 0 18.327 14.327 4 32 4zm18.12 50.12c4.84-4.84 7.505-11.275 7.505-18.12H52v-4h5.315c-.438-2.812-1.337-5.51-2.66-8H48v-4h4.018c-.59-.735-1.222-1.444-1.898-2.12-2.89-2.89-6.346-5.002-10.12-6.237V16h-4v-5.315c-1.31-.204-2.648-.31-4-.31s-2.69.106-4 .31V16h-4v-4.357c-3.773 1.235-7.23 3.348-10.12 6.237-.676.676-1.308 1.384-1.898 2.12H16v4H9.345c-1.323 2.49-2.222 5.188-2.66 8H12v4H6.375c0 6.845 2.665 13.28 7.505 18.12.67.67 1.37 1.295 2.098 1.88H28l2.286-32h3.428L36 56h12.022c.727-.585 1.428-1.21 2.097-1.88z"/></svg>