<svg xmlns="http://www.w3.org/2000/svg" width="64" height="64" viewBox="0 0 64 64"><path d="M32 0C14.327 0 0 14.327 0 32s14.327 32 32 32 32-14.327 32-32S49.673 0 32 0zM18.927 52.135C19.62 50.22 20 48.155 20 46c0-7.772-4.926-14.393-11.825-16.913.638-5.308 3.016-10.22 6.855-14.058C19.563 10.495 25.59 8 32 8s12.44 2.497 16.972 7.03c3.84 3.838 6.217 8.75 6.855 14.057C48.927 31.607 44 38.227 44 46c0 2.154.38 4.22 1.074 6.134C41.217 54.65 36.714 56 32 56s-9.215-1.35-13.072-3.865zm15.558-12.073C35.352 40.28 36 41.067 36 42v4c0 1.1-.9 2-2 2h-4c-1.1 0-2-.9-2-2v-4c0-.933.648-1.72 1.515-1.938L31 12h2l1.485 28.062z"/></svg>