<svg xmlns="http://www.w3.org/2000/svg" width="64" height="64" viewBox="0 0 64 64"><path d="M63.136 57.234l-34.29-31.216 1.596-1.6c1.306-1.31 2.012-3.002 2.12-4.726.063-.028.125-.057.185-.09l6.437-4.025c.87-1.024.807-2.642-.143-3.594L27.847.757c-.95-.952-2.562-1.016-3.584-.143l-4.015 6.454c-.033.06-.062.123-.09.186-1.72.11-3.406.816-4.712 2.125l-6.09 6.105c-1.305 1.31-2.01 3.002-2.12 4.725-.062.028-.124.057-.184.09L.615 24.325c-.87 1.024-.807 2.642.142 3.593L11.95 39.143c.95.952 2.563 1.016 3.585.143l4.014-6.454c.032-.06.06-.123.09-.185 1.718-.11 3.406-.816 4.71-2.125l1.77-1.773L57.25 63.13c.902.997 2.294 1.158 3.092.358l3.147-3.156c.8-.8.638-2.196-.356-3.1z"/></svg>