<svg xmlns="http://www.w3.org/2000/svg" width="64" height="64" viewBox="0 0 64 64"><path d="M20.063 64c-4.265-8.876-1.994-13.96 1.284-18.753 3.59-5.247 4.515-10.442 4.515-10.442s2.822 3.67 1.693 9.407c4.986-5.55 5.926-14.392 5.174-17.78C44 34.31 48.814 51.363 42.323 64c34.523-19.533 8.587-48.76 4.072-52.053 1.505 3.292 1.79 8.866-1.25 11.57C40 4 27.273 0 27.273 0c1.505 10.065-5.456 21.072-12.168 29.296-.236-4.014-.486-6.783-2.597-10.624-.474 7.29-6.046 13.234-7.555 20.54C2.91 49.103 6.483 56.346 20.063 64z"/></svg>