<svg xmlns="http://www.w3.org/2000/svg" width="64" height="64" viewBox="0 0 64 64"><path d="M56 0H40l4 36c0 6.627-5.373 12-12 12s-12-5.373-12-12l4-36H8L4 36c0 15.464 12.536 28 28 28s28-12.536 28-28L56 0zm-7.383 52.617C44.177 57.055 38.277 59.5 32 59.5s-12.178-2.444-16.617-6.883C11 48.235 8.563 42.427 8.5 36.24l2.257-20.302h6.945l-2.2 19.813V36c0 4.407 1.715 8.55 4.832 11.667S27.594 52.5 32 52.5s8.552-1.716 11.668-4.833C46.785 44.55 48.5 40.407 48.5 36v-.25l-.027-.247L46.3 15.937h6.944l2.256 20.3c-.06 6.19-2.5 11.997-6.882 16.38z"/></svg>