<svg xmlns="http://www.w3.org/2000/svg" width="64" height="64" viewBox="0 0 64 64"><path d="M64 28h-6.308C55.965 16.86 47.14 8.035 36 6.308V0h-8v6.308C16.86 8.035 8.035 16.86 6.308 28H0v8h6.308C8.035 47.14 16.86 55.965 28 57.692V64h8v-6.308C47.14 55.965 55.965 47.14 57.692 36H64v-8zm-14.45 0h-6.234C42.11 24.59 39.41 21.89 36 20.684V14.45c6.72 1.53 12.02 6.83 13.55 13.55zM32 36c-2.21 0-4-1.79-4-4s1.79-4 4-4 4 1.79 4 4-1.79 4-4 4zm-4-21.55v6.234C24.59 21.89 21.89 24.59 20.684 28H14.45c1.53-6.72 6.83-12.02 13.55-13.55zM14.45 36h6.234c1.205 3.41 3.907 6.11 7.316 7.316v6.235C21.28 48.02 15.98 42.72 14.45 36zM36 49.55v-6.234c3.41-1.205 6.11-3.907 7.316-7.316h6.235C48.02 42.72 42.72 48.02 36 49.55z"/></svg>