<svg xmlns="http://www.w3.org/2000/svg" width="64" height="64" viewBox="0 0 64 64"><path d="M32 0C14.327 0 0 14.327 0 32s14.327 32 32 32 32-14.327 32-32S49.673 0 32 0zm0 60c-3.935 0-7.68-.813-11.077-2.278L35.495 41.33c.325-.367.505-.84.505-1.33v-6c0-1.105-.895-2-2-2-7.062 0-14.513-7.34-14.586-7.414C19.04 24.21 18.53 24 18 24h-8c-1.104 0-2 .895-2 2v12c0 .758.428 1.45 1.106 1.79L16 43.235V54.98C8.747 49.92 4 41.513 4 32c0-4.295.968-8.363 2.696-12H14c.53 0 1.04-.21 1.414-.586l8-8C23.79 11.04 24 10.53 24 10V5.162C26.535 4.407 29.22 4 32 4c4.4 0 8.563 1.016 12.268 2.825-.26.22-.51.448-.753.69C41.248 9.782 40 12.795 40 16s1.248 6.22 3.515 8.485c2.277 2.277 5.326 3.517 8.477 3.516.198 0 .396-.004.595-.014.863 3.238 2.422 11.666-.525 23.27-.028.11-.044.22-.053.328C46.925 56.777 39.84 60 32 60z"/></svg>