<svg xmlns="http://www.w3.org/2000/svg" width="64" height="64" viewBox="0 0 64 64"><path d="M41.614 20.44l-4.06-4.057-20.3 20.296c-3.363 3.36-3.363 8.815 0 12.177s8.816 3.362 12.18 0L53.794 24.5c5.608-5.604 5.608-14.69 0-20.295-5.603-5.606-14.693-5.606-20.298 0L7.92 29.78c-.02.018-.04.035-.056.052-7.82 7.818-7.82 20.49 0 28.307 7.816 7.815 20.492 7.815 28.312 0l.05-.056.003.002L53.686 40.63l-4.062-4.057-17.458 17.454c-.02.017-.035.036-.053.053-5.567 5.566-14.624 5.566-20.192 0-5.566-5.565-5.566-14.62 0-20.186l.056-.053-.003-.003 25.58-25.573c3.357-3.36 8.822-3.36 12.18 0 3.357 3.358 3.357 8.822 0 12.177l-24.36 24.357c-1.122 1.12-2.942 1.12-4.062 0-1.118-1.118-1.118-2.94 0-4.057l20.3-20.3z"/></svg>