<svg xmlns="http://www.w3.org/2000/svg" width="64" height="64" viewBox="0 0 64 64"><path d="M32 12C18.043 12 5.945 20.128 0 32c5.945 11.872 18.043 20 32 20s26.055-8.128 32-20c-5.945-11.872-18.043-20-32-20zm15.778 10.607c3.76 2.398 6.946 5.61 9.34 9.393-2.393 3.783-5.58 6.995-9.34 9.394C43.053 44.408 37.598 46 32 46s-11.054-1.593-15.778-4.606c-3.76-2.398-6.946-5.61-9.34-9.394 2.394-3.783 5.58-6.995 9.34-9.393.246-.156.493-.308.742-.456-.622 1.71-.963 3.552-.963 5.476 0 8.836 7.164 16 16 16s16-7.164 16-16c0-1.923-.34-3.767-.962-5.475.25.15.496.3.74.457zM32 26c0 3.314-2.686 6-6 6s-6-2.686-6-6 2.686-6 6-6 6 2.686 6 6z"/></svg>