<svg xmlns="http://www.w3.org/2000/svg" width="64" height="64" viewBox="0 0 64 64"><path d="M64 8h-8V0h-8v8h-8v8h8v8h8v-8h8zM53.99 27.877c1.153 1.28 2.2 2.658 3.127 4.123-2.393 3.783-5.58 6.995-9.34 9.394C43.052 44.408 37.597 46 32 46s-11.055-1.593-15.78-4.606c-3.76-2.398-6.945-5.61-9.338-9.394 2.393-3.783 5.58-6.995 9.34-9.393.245-.156.492-.308.74-.456-.622 1.71-.962 3.552-.962 5.476 0 8.836 7.164 16 16 16s16-7.164 16-16c0-.043 0-.086-.002-.13-6.83-1.76-11.894-7.914-11.996-15.27-1.314-.148-2.65-.225-4.003-.225C18.04 12 5.943 20.13 0 32 5.943 43.874 18.04 52 32 52s26.054-8.127 32-20c-1.103-2.2-2.418-4.274-3.917-6.19-1.83 1.074-3.892 1.794-6.093 2.068zM26 20c3.314 0 6 2.686 6 6s-2.686 6-6 6-6-2.686-6-6 2.686-6 6-6z"/></svg>