<svg xmlns="http://www.w3.org/2000/svg" width="64" height="64" viewBox="0 0 64 64"><path d="M40 8h24v8H40V8zM54.395 20H36v-7.774c-1.313-.15-2.648-.226-4-.226-13.957 0-26.055 8.128-32 20 5.945 11.872 18.043 20 32 20s26.055-8.128 32-20c-2.337-4.668-5.626-8.756-9.605-12zM26 20c3.314 0 6 2.686 6 6s-2.686 6-6 6-6-2.686-6-6 2.686-6 6-6zm21.778 21.394C43.053 44.408 37.598 46 32 46s-11.054-1.593-15.778-4.606c-3.76-2.398-6.946-5.61-9.34-9.394 2.394-3.783 5.58-6.995 9.34-9.393.246-.156.493-.308.742-.456-.623 1.71-.963 3.552-.963 5.476 0 8.836 7.165 16 16 16s16-7.164 16-16c0-1.923-.34-3.767-.962-5.475.248.15.496.3.74.457 3.76 2.398 6.947 5.61 9.34 9.393-2.392 3.783-5.58 6.995-9.34 9.394z"/></svg>