<svg xmlns="http://www.w3.org/2000/svg" width="64" height="64" viewBox="0 0 64 64"><path d="M59.12.88c-1.17-1.172-3.07-1.172-4.242 0L42.243 13.513C38.997 12.53 35.56 12 32 12 18.043 12 5.945 20.128 0 32c2.57 5.133 6.29 9.565 10.814 12.944L.88 54.88c-1.173 1.17-1.173 3.07 0 4.242.585.586 1.352.88 2.12.88s1.535-.294 2.12-.88l54-54c1.173-1.172 1.173-3.07 0-4.243zM26 20c2.64 0 4.88 1.706 5.683 4.075l-7.608 7.608C21.705 30.88 20 28.64 20 26c0-3.314 2.686-6 6-6zM6.882 32c2.393-3.783 5.58-6.995 9.34-9.393.245-.156.492-.308.74-.456-.622 1.71-.962 3.552-.962 5.476 0 3.43 1.08 6.61 2.92 9.214l-3.81 3.808c-3.277-2.303-6.074-5.243-8.228-8.646zM48 27.625c0-1.698-.266-3.333-.756-4.87L27.13 42.87c1.536.49 3.172.755 4.87.755 8.836 0 16-7.164 16-16zM51.877 18.123l-4.335 4.335.237.148c3.76 2.398 6.945 5.61 9.34 9.393-2.394 3.782-5.58 6.994-9.34 9.393C43.053 44.407 37.597 46 32 46c-2.415 0-4.805-.298-7.122-.878l-4.806 4.806C23.804 51.268 27.82 52 32 52c13.957 0 26.055-8.128 32-20-2.814-5.62-7.007-10.4-12.123-13.877z"/></svg>