<svg xmlns="http://www.w3.org/2000/svg" width="64" height="64" viewBox="0 0 64 64"><path d="M32 52c2.21 0 4 1.79 4 4v4c0 2.21-1.79 4-4 4s-4-1.79-4-4v-4c0-2.21 1.79-4 4-4zm0-40c-2.21 0-4-1.79-4-4V4c0-2.21 1.79-4 4-4s4 1.79 4 4v4c0 2.21-1.79 4-4 4zm28 16c2.21 0 4 1.79 4 4s-1.79 4-4 4h-4c-2.21 0-4-1.79-4-4s1.79-4 4-4h4zm-48 4c0 2.21-1.79 4-4 4H4c-2.21 0-4-1.79-4-4s1.79-4 4-4h4c2.21 0 4 1.79 4 4zm39.8 14.142l2.827 2.83c1.562 1.56 1.562 4.094 0 5.656s-4.095 1.562-5.657 0L46.142 51.8c-1.562-1.562-1.562-4.095 0-5.657s4.095-1.562 5.657 0zM12.2 17.858l-2.828-2.83c-1.562-1.56-1.562-4.094 0-5.656s4.095-1.562 5.657 0l2.827 2.83c1.562 1.56 1.562 4.094 0 5.656s-4.095 1.562-5.657 0zm39.6 0c-1.563 1.562-4.096 1.562-5.658 0s-1.562-4.095 0-5.657l2.828-2.827c1.562-1.562 4.095-1.562 5.657 0s1.562 4.095 0 5.657L51.8 17.858zM12.2 46.142c1.563-1.562 4.096-1.562 5.658 0s1.562 4.095 0 5.657l-2.828 2.827c-1.562 1.562-4.095 1.562-5.657 0s-1.562-4.095 0-5.657l2.83-2.83zM32 16c-8.837 0-16 7.163-16 16s7.163 16 16 16c8.836 0 16-7.164 16-16s-7.163-16-16-16zm0 26c-5.523 0-10-4.477-10-10s4.477-10 10-10 10 4.477 10 10-4.477 10-10 10z"/></svg>