<svg xmlns="http://www.w3.org/2000/svg" width="64" height="64" viewBox="0 0 64 64"><path d="M16 6c0 3.314-2.686 6-6 6S4 9.314 4 6s2.686-6 6-6 6 2.686 6 6zM52 6c0 3.314-2.686 6-6 6s-6-2.686-6-6 2.686-6 6-6 6 2.686 6 6zM16 16H4c-2.21 0-4 1.79-4 4v20h4v24h5V40h2v24h5V40h4V20c0-2.21-1.79-4-4-4zM60.938 32L64 29.78 55.67 16.9c-.37-.562-.996-.9-1.67-.9H38c-.67 0-1.3.338-1.67.9L28 29.78 31.065 32l6.915-8.975 2.403 5.61L32.003 44h7.666L41 64h4V44h2v20h4l1.333-20h7.667L51.62 28.634l2.404-5.61L60.94 32z"/></svg>