<svg xmlns="http://www.w3.org/2000/svg" width="64" height="64" viewBox="0 0 64 64"><path d="M32 64c17.673 0 32-14.327 32-32S49.673 0 32 0 0 14.327 0 32s14.327 32 32 32zm0-58c14.36 0 26 11.64 26 26S46.36 58 32 58 6 46.36 6 32 17.64 6 32 6zM16 20c0-2.21 1.79-4 4-4s4 1.79 4 4-1.79 4-4 4-4-1.79-4-4zm24 0c0-2.21 1.79-4 4-4s4 1.79 4 4-1.79 4-4 4-4-1.79-4-4zM19.994 48.796l-5.146-3.087C18.346 39.89 24.718 36 32 36s13.654 3.892 17.152 9.71l-5.145 3.086C41.56 44.724 37.097 42 32 42s-9.557 2.724-12.005 6.796z"/></svg>