<svg xmlns="http://www.w3.org/2000/svg" width="64" height="64" viewBox="0 0 64 64"><path d="M32 64c17.673 0 32-14.327 32-32S49.673 0 32 0 0 14.327 0 32s14.327 32 32 32zm0-58c14.36 0 26 11.64 26 26S46.36 58 32 58 6 46.36 6 32 17.64 6 32 6zm1.92 38.44c8.767-1.733 15.57-5.722 18.03-11.038C50.595 43.9 41.853 52 31.27 52c-7.452 0-13.99-4.018-17.68-10.06 4.4 3.442 12.158 4.114 20.33 2.5zM40 22c0-3.314 1.79-6 4-6s4 2.686 4 6-1.79 6-4 6-4-2.686-4-6zm-18 1.22c-2.612 0-4.833.978-5.657 2.343-.22-.367-.343-2.01-.343-2.422 0-1.94 2.686-3.515 6-3.515s6 1.574 6 3.516c0 .412-.122 2.056-.343 2.423-.824-1.365-3.045-2.344-5.657-2.344z"/></svg>