<svg xmlns="http://www.w3.org/2000/svg" width="64" height="64" viewBox="0 0 64 64"><path d="M32 0C14.327 0 0 14.327 0 32s14.327 32 32 32c17.673 0 32-14.327 32-32S49.673 0 32 0zm12 16c2.21 0 4 2.686 4 6s-1.79 6-4 6-4-2.686-4-6 1.79-6 4-6zm-22 3.504c3.728 0 6.375 1.396 6.375 3.58 0 .462.238 2.687-.01 3.1-.928-1.536-3.427-2.637-6.365-2.637s-5.438 1.1-6.364 2.637c-.25-.413-.01-2.637-.01-3.1 0-2.184 2.646-3.58 6.374-3.58zM31.27 52c-7.452 0-13.99-4.017-17.68-10.06 4.4 3.442 12.158 4.114 20.33 2.5 8.767-1.732 15.57-5.72 18.03-11.037C50.595 43.9 41.853 52 31.27 52z"/></svg>