<svg xmlns="http://www.w3.org/2000/svg" width="64" height="64" viewBox="0 0 64 64"><path d="M32 64c17.673 0 32-14.327 32-32S49.673 0 32 0 0 14.327 0 32s14.327 32 32 32zm0-58c14.36 0 26 11.64 26 26S46.36 58 32 58 6 46.36 6 32 17.64 6 32 6zM12 32v4c0 8.8 7.2 16 16 16h8c8.8 0 16-7.2 16-16v-4H12zm12 15.312c-1.66-.59-3.183-1.55-4.47-2.84-2.276-2.275-3.53-5.284-3.53-8.47h8v11.31zM36 48h-8V36h8v12zm8.47-3.53c-1.288 1.29-2.812 2.25-4.47 2.84V36h8c0 3.187-1.253 6.195-3.53 8.47zM14.086 24c.61 0 1.132-.44 1.233-1.043C15.703 20.664 17.672 19 20 19s4.3 1.664 4.684 3.957c.1.602.622 1.043 1.233 1.043s1.132-.44 1.233-1.043c.068-.402.102-.808.102-1.207 0-3.998-3.252-7.25-7.25-7.25s-7.25 3.252-7.25 7.25c0 .4.034.805.102 1.207.1.602.623 1.043 1.233 1.043zm24 0c.61 0 1.13-.44 1.232-1.043C39.702 20.664 41.67 19 44 19s4.298 1.664 4.683 3.957c.1.602.622 1.043 1.233 1.043s1.132-.44 1.233-1.043c.067-.402.1-.808.1-1.207 0-3.998-3.25-7.25-7.25-7.25s-7.25 3.252-7.25 7.25c0 .4.035.805.103 1.207.102.602.623 1.043 1.233 1.043z"/></svg>