<svg xmlns="http://www.w3.org/2000/svg" width="64" height="64" viewBox="0 0 64 64"><path d="M32 64c17.673 0 32-14.327 32-32S49.673 0 32 0 0 14.327 0 32s14.327 32 32 32zm0-58c14.36 0 26 11.64 26 26S46.36 58 32 58 6 46.36 6 32 17.64 6 32 6zm18 10c1.1 0 2 .9 2 2v6c0 2.2-1.8 4-4 4h-8c-2.2 0-4-1.8-4-4h-8c0 2.2-1.8 4-4 4h-8c-2.2 0-4-1.8-4-4v-6c0-1.1.9-2 2-2h12c1.1 0 2 .9 2 2v2h8v-2c0-1.1.9-2 2-2h12zM32 48c5.825 0 10.923-3.114 13.722-7.767l3.43 2.058C45.654 48.11 39.282 52 32 52c-3.03 0-5.9-.675-8.47-1.88l2.072-3.455c1.96.857 4.123 1.335 6.4 1.335z"/></svg>