<svg xmlns="http://www.w3.org/2000/svg" width="64" height="64" viewBox="0 0 64 64"><path d="M32 64c17.673 0 32-14.327 32-32S49.673 0 32 0 0 14.327 0 32s14.327 32 32 32zm0-58c14.36 0 26 11.64 26 26S46.36 58 32 58 6 46.36 6 32 17.64 6 32 6zm12.006 42.796C41.558 44.724 37.096 42 32 42s-9.558 2.724-12.006 6.796l-5.146-3.087C18.346 39.89 24.718 36 32 36s13.654 3.892 17.152 9.71l-5.145 3.086zm3.934-31.28c.268 1.07-.384 2.156-1.455 2.424-1.102.278-2.408.758-3.56 1.334C43.593 21.988 44 22.946 44 24c0 2.208-1.792 4-4 4s-4-1.792-4-4c0-.074 0-.147.005-.22.127-2.965 2.826-4.933 5.1-6.07 2.17-1.086 4.318-1.63 4.408-1.65 1.072-.27 2.157.383 2.425 1.454zm-31.88 0c.268-1.073 1.354-1.724 2.425-1.456.09.023 2.238.566 4.41 1.65 2.273 1.138 4.972 3.106 5.098 6.072.004.072.006.145.006.218 0 2.21-1.792 4-4 4s-4-1.79-4-4c0-1.053.407-2.01 1.072-2.725-1.15-.577-2.457-1.056-3.558-1.334-1.07-.267-1.723-1.353-1.455-2.424z"/></svg>