<svg xmlns="http://www.w3.org/2000/svg" width="64" height="64" viewBox="0 0 64 64"><path d="M32 0C14.327 0 0 14.327 0 32s14.327 32 32 32 32-14.327 32-32S49.673 0 32 0zm4.006 23.782c.127-2.966 2.826-4.934 5.1-6.07 2.17-1.087 4.318-1.63 4.408-1.652 1.072-.268 2.157.384 2.425 1.455s-.385 2.157-1.456 2.425c-1.102.278-2.408.758-3.56 1.334C43.592 21.988 44 22.946 44 24c0 2.208-1.79 4-4 4s-4-1.792-4-4c0-.074.002-.147.006-.22zM16.06 17.515c.268-1.072 1.354-1.723 2.425-1.455.09.023 2.238.566 4.41 1.65 2.273 1.138 4.972 3.106 5.098 6.072.004.072.006.145.006.218 0 2.21-1.792 4-4 4s-4-1.79-4-4c0-1.053.407-2.01 1.072-2.725-1.15-.577-2.457-1.056-3.558-1.334-1.07-.267-1.723-1.353-1.455-2.424zm27.946 31.28C41.558 44.726 37.096 42 32 42s-9.558 2.724-12.006 6.796l-5.146-3.087C18.346 39.89 24.718 36 32 36s13.654 3.892 17.152 9.71l-5.145 3.086z"/></svg>