<svg xmlns="http://www.w3.org/2000/svg" width="64" height="64" viewBox="0 0 64 64"><path d="M40 28c-2.21 0-4-1.79-4-4 0-.073.002-.146.006-.218.127-2.966 2.826-4.934 5.1-6.07 2.17-1.087 4.318-1.63 4.408-1.652 1.072-.268 2.157.384 2.425 1.455s-.385 2.157-1.456 2.425c-1.102.278-2.408.758-3.56 1.334C43.592 21.988 44 22.946 44 24c0 2.208-1.79 4-4 4zm-22.485-8.06c-1.072-.268-1.723-1.354-1.455-2.425s1.354-1.723 2.425-1.455c.09.023 2.238.566 4.41 1.65 2.273 1.138 4.972 3.106 5.098 6.072.004.072.006.145.006.218 0 2.21-1.792 4-4 4s-4-1.79-4-4c0-1.053.407-2.01 1.072-2.725-1.15-.577-2.457-1.056-3.558-1.334zM32 46c5.097 0 9.558-2.724 12.006-6.796l5.145 3.087C45.654 48.11 39.28 52 32 52s-13.655-3.892-17.153-9.71l5.145-3.086C22.44 43.276 26.902 46 31.998 46zM64 4c0-2.845-.595-5.55-1.666-8-2.1 4.802-6.028 8.62-10.906 10.574C46.04 2.452 39.308 0 32 0S17.96 2.45 12.572 6.574C7.694 4.62 3.765.804 1.666-4 .596-1.55 0 1.155 0 4c0 4.598 1.553 8.833 4.162 12.21C1.514 20.87 0 26.26 0 32c0 17.673 14.327 32 32 32s32-14.327 32-32c0-5.742-1.514-11.13-4.162-15.79C62.448 12.834 64 8.6 64 4zM32 58C17.64 58 6 46.36 6 32S17.64 6 32 6s26 11.64 26 26-11.64 26-26 26z"/></svg>