<svg xmlns="http://www.w3.org/2000/svg" width="64" height="64" viewBox="0 0 64 64"><path d="M32 64c17.673 0 32-14.327 32-32S49.673 0 32 0 0 14.327 0 32s14.327 32 32 32zm0-58c14.36 0 26 11.64 26 26S46.36 58 32 58 6 46.36 6 32 17.64 6 32 6zM16 20c0-2.21 1.79-4 4-4s4 1.79 4 4-1.79 4-4 4-4-1.79-4-4zm24 0c0-2.21 1.79-4 4-4s4 1.79 4 4-1.79 4-4 4-4-1.79-4-4zm5.382 20h4.054c.578 4.532-2.028 9.033-6.497 10.66-5.182 1.886-10.932-.795-12.82-5.976-1.13-3.11-4.58-4.718-7.69-3.586-2.848 1.037-4.435 4.02-3.812 6.9h-4.054c-.578-4.53 2.028-9.032 6.497-10.66 5.182-1.885 10.932.796 12.82 5.977 1.13 3.11 4.58 4.718 7.69 3.586 2.847-1.035 4.434-4.018 3.81-6.9z"/></svg>