<svg xmlns="http://www.w3.org/2000/svg" width="64" height="64" viewBox="0 0 64 64"><path d="M32 0C14.327 0 0 14.327 0 32s14.327 32 32 32c17.673 0 32-14.327 32-32S49.673 0 32 0zm12 16c2.21 0 4 1.79 4 4s-1.79 4-4 4-4-1.79-4-4 1.79-4 4-4zm-24 0c2.21 0 4 1.79 4 4s-1.79 4-4 4-4-1.79-4-4 1.79-4 4-4zm22.938 34.66c-5.18 1.886-10.93-.794-12.818-5.976-1.132-3.11-4.582-4.717-7.69-3.586-2.85 1.037-4.436 4.02-3.813 6.9h-4.054c-.578-4.53 2.028-9.032 6.497-10.66 5.18-1.885 10.93.795 12.818 5.977 1.132 3.11 4.582 4.717 7.69 3.586 2.848-1.035 4.435-4.017 3.812-6.9h4.054c.578 4.532-2.028 9.033-6.498 10.66z"/></svg>