<svg xmlns="http://www.w3.org/2000/svg" width="64" height="64" viewBox="0 0 64 64"><path d="M32 64c17.673 0 32-14.327 32-32S49.673 0 32 0 0 14.327 0 32s14.327 32 32 32zm0-58c14.36 0 26 11.64 26 26S46.36 58 32 58 6 46.36 6 32 17.64 6 32 6zM16 20c0-2.21 1.79-4 4-4s4 1.79 4 4-1.79 4-4 4-4-1.79-4-4zm24 0c0-2.21 1.79-4 4-4s4 1.79 4 4-1.79 4-4 4-4-1.79-4-4zM42.243 33.757c-2.343-2.343-6.142-2.343-8.485 0s-2.343 6.142 0 8.485c.075.075.152.148.23.218C39.396 47.367 52 42.345 52 36c-3.874 2.5-6.902.61-9.756-2.244zM21.757 33.757c2.343-2.343 6.142-2.343 8.485 0s2.343 6.142 0 8.485c-.075.075-.152.148-.23.218C24.604 47.367 12 42.345 12 36c3.875 2.5 6.903.61 9.757-2.244z"/></svg>