<svg xmlns="http://www.w3.org/2000/svg" width="64" height="64" viewBox="0 0 64 64"><path d="M32 0C14.327 0 0 14.327 0 32s14.327 32 32 32 32-14.327 32-32S49.673 0 32 0zm12 16c2.21 0 4 1.79 4 4s-1.79 4-4 4-4-1.79-4-4 1.79-4 4-4zm-24 0c2.21 0 4 1.79 4 4s-1.79 4-4 4-4-1.79-4-4 1.79-4 4-4zm13.987 26.46c-.078-.07-.155-.142-.23-.217C32.587 41.073 32 39.537 32 38c0 1.536-.586 3.07-1.757 4.243-.075.075-.152.148-.23.218C24.605 47.37 12 42.347 12 36c3.876 2.5 6.904.612 9.758-2.243 2.343-2.343 6.142-2.343 8.485 0C31.413 34.927 32 36.463 32 38c0-1.536.586-3.07 1.757-4.243 2.343-2.343 6.142-2.343 8.485 0C45.096 36.61 48.124 38.5 52 36c0 6.346-12.606 11.368-18.014 6.46z"/></svg>