<svg xmlns="http://www.w3.org/2000/svg" width="64" height="64" viewBox="0 0 64 64"><path d="M32 64c17.673 0 32-14.327 32-32S49.673 0 32 0 0 14.327 0 32s14.327 32 32 32zm0-58c14.36 0 26 11.64 26 26S46.36 58 32 58 6 46.36 6 32 17.64 6 32 6zM40 42c0 5.523-3.582 10-8 10s-8-4.477-8-10 3.582-10 8-10 8 4.477 8 10zM26 21.25c-.512 0-1.024-.195-1.414-.586-1.208-1.208-3.963-1.208-5.172 0-.78.78-2.047.78-2.828 0s-.78-2.047 0-2.828c2.783-2.783 8.045-2.783 10.828 0 .78.78.78 2.047 0 2.828-.39.39-.902.586-1.414.586zM46 21.25c-.512 0-1.024-.195-1.414-.586-1.208-1.208-3.963-1.208-5.172 0-.78.78-2.047.78-2.828 0s-.78-2.047 0-2.828c2.783-2.783 8.045-2.783 10.828 0 .78.78.78 2.047 0 2.828-.39.39-.902.586-1.414.586z"/></svg>