<svg xmlns="http://www.w3.org/2000/svg" width="64" height="64" viewBox="0 0 64 64"><path d="M32 0C14.327 0 0 14.327 0 32s14.327 32 32 32 32-14.327 32-32S49.673 0 32 0zM19.414 20.664c-.78.78-2.047.78-2.828 0s-.78-2.047 0-2.828c2.783-2.783 8.045-2.783 10.828 0 .78.78.78 2.047 0 2.828-.39.39-.902.586-1.414.586s-1.024-.195-1.414-.586c-1.208-1.208-3.963-1.208-5.172 0zM32 52c-4.418 0-8-4.477-8-10s3.582-10 8-10 8 4.477 8 10-3.582 10-8 10zm15.414-31.336c-.39.39-.902.586-1.414.586s-1.024-.195-1.414-.586c-1.208-1.208-3.963-1.208-5.172 0-.78.78-2.047.78-2.828 0s-.78-2.047 0-2.828c2.783-2.783 8.045-2.783 10.828 0 .78.78.78 2.047 0 2.828z"/></svg>