<svg xmlns="http://www.w3.org/2000/svg" width="64" height="64" viewBox="0 0 64 64"><path d="M22.895 17.71c-2.17-1.085-4.32-1.628-4.41-1.65-1.07-.268-2.156.384-2.424 1.455s.385 2.157 1.456 2.425c1.102.278 2.408.758 3.558 1.334C20.408 21.988 20 22.946 20 24c0 2.208 1.792 4 4 4s4-1.792 4-4c0-.074 0-.147-.005-.22-.127-2.965-2.826-4.933-5.1-6.07zM32 0C14.327 0 0 14.327 0 32s14.327 32 32 32 32-14.327 32-32S49.673 0 32 0zM14.78 51.48c.67.332 1.423.52 2.22.52h30c.797 0 1.55-.188 2.22-.52C44.632 55.535 38.604 58 32 58s-12.633-2.464-17.22-6.52zM16 47v-6c0-.542.458-1 1-1h7v8h-7c-.542 0-1-.458-1-1zm12 1v-8h8v8h-8zm12 0v-8h7c.542 0 1 .458 1 1v6c0 .542-.458 1-1 1h-7zm11.48 1.22c.332-.67.52-1.423.52-2.22v-6c0-2.757-2.243-5-5-5H17c-2.757 0-5 2.243-5 5v6c0 .797.188 1.55.52 2.22C8.465 44.632 6 38.604 6 32 6 17.64 17.64 6 32 6s26 11.64 26 26c0 6.605-2.464 12.633-6.52 17.22zM45.515 16.06c-.09.023-2.238.566-4.41 1.65-2.273 1.138-4.97 3.106-5.098 6.072-.004.072-.006.145-.006.218 0 2.21 1.792 4 4 4s4-1.79 4-4c0-1.053-.407-2.01-1.072-2.725 1.15-.577 2.457-1.056 3.56-1.334 1.07-.267 1.722-1.353 1.454-2.424s-1.354-1.723-2.425-1.455z"/></svg>