<svg xmlns="http://www.w3.org/2000/svg" width="64" height="64" viewBox="0 0 64 64"><path d="M32 64c17.673 0 32-14.327 32-32S49.673 0 32 0 0 14.327 0 32s14.327 32 32 32zm0-58c14.36 0 26 11.64 26 26S46.36 58 32 58 6 46.36 6 32 17.64 6 32 6zM50 24h-8c-1.105 0-2-.895-2-2s.895-2 2-2h8c1.105 0 2 .895 2 2s-.895 2-2 2zM22 24h-8c-1.104 0-2-.895-2-2s.896-2 2-2h8c1.105 0 2 .895 2 2s-.895 2-2 2zM38 53.5c-.512 0-1.024-.195-1.414-.586C36.3 52.628 34.746 52 32 52s-4.3.628-4.586.914c-.78.78-2.047.78-2.828 0s-.78-2.047 0-2.828C26.47 48.203 30.398 48 32 48s5.532.203 7.414 2.086c.78.78.78 2.047 0 2.828-.39.39-.902.586-1.414.586zM46 36c-1.105 0-2-.895-2-2v-4c0-1.105.895-2 2-2s2 .895 2 2v4c0 1.105-.895 2-2 2zM46 48c-1.105 0-2-.895-2-2v-4c0-1.105.895-2 2-2s2 .895 2 2v4c0 1.105-.895 2-2 2zM18 36c-1.105 0-2-.895-2-2v-4c0-1.105.895-2 2-2s2 .895 2 2v4c0 1.105-.895 2-2 2zM18 48c-1.105 0-2-.895-2-2v-4c0-1.105.895-2 2-2s2 .895 2 2v4c0 1.105-.895 2-2 2z"/></svg>