<svg xmlns="http://www.w3.org/2000/svg" width="64" height="64" viewBox="0 0 64 64"><path d="M60 38V28c0-3.308-2.692-6-6-6-1.07 0-2.074.28-2.944.773C49.99 21.107 48.12 20 46 20c-1.535 0-2.938.58-4 1.532C40.938 20.58 39.535 20 38 20c-.7 0-1.374.12-2 .343V6c0-3.308-2.692-6-6-6s-6 2.692-6 6v24.667l-11-5.865c-.91-.525-1.946-.802-3-.802-3.308 0-6 2.692-6 6 0 1.648.654 3.185 1.843 4.327.016.015.03.03.047.044L20.838 48H18c-1.105 0-2 .896-2 2v12c0 1.106.895 2 2 2h40c1.105 0 2-.894 2-2V50c0-1.104-.895-2-2-2h-2.764l4.553-9.105c.138-.278.21-.584.21-.894zm-4 16c0 1.105-.895 2-2 2s-2-.895-2-2 .895-2 2-2 2 .895 2 2zm0-16.472L50.764 48h-23.99L8.6 31.427c-.387-.38-.6-.885-.6-1.427 0-1.103.897-2 2-2 .34 0 .663.082.958.243l.1.058 14 7.464c.62.33 1.37.312 1.97-.05S28 34.702 28 34V6c0-1.104.897-2 2-2s2 .896 2 2v20c0 1.104.895 2 2 2s2-.896 2-2 .897-2 2-2 2 .896 2 2 .895 2 2 2 2-.896 2-2 .897-2 2-2 2 .896 2 2v2c0 1.104.895 2 2 2s2-.896 2-2 .897-2 2-2 2 .896 2 2v9.527z"/></svg>