<svg xmlns="http://www.w3.org/2000/svg" width="64" height="64" viewBox="0 0 64 64"><path d="M26 60h10c3.308 0 6-2.692 6-6 0-1.07-.28-2.074-.773-2.944C42.893 49.99 44 48.12 44 46c0-1.535-.58-2.938-1.532-4C43.42 40.938 44 39.535 44 38c0-.7-.12-1.374-.343-2H58c3.308 0 6-2.692 6-6s-2.692-6-6-6H33.333l5.865-11c.525-.91.803-1.946.803-3 0-3.308-2.69-6-6-6-1.647 0-3.184.654-4.326 1.843-.015.016-.03.03-.044.047L16 20.838V18c0-1.105-.895-2-2-2H2c-1.105 0-2 .895-2 2v40c0 1.105.895 2 2 2h12c1.105 0 2-.895 2-2v-2.764l9.106 4.553c.278.138.584.21.894.21zm-16-4c-1.105 0-2-.895-2-2s.895-2 2-2 2 .895 2 2-.895 2-2 2zm16.472 0L16 50.764v-23.99L32.573 8.6c.38-.387.885-.6 1.427-.6 1.103 0 2 .897 2 2 0 .34-.082.663-.243.958l-.058.1-7.465 14c-.33.62-.312 1.37.05 1.97S29.297 28 30 28h28c1.103 0 2 .897 2 2s-.897 2-2 2H38c-1.105 0-2 .895-2 2s.895 2 2 2c1.103 0 2 .897 2 2s-.897 2-2 2c-1.105 0-2 .895-2 2s.895 2 2 2c1.103 0 2 .897 2 2s-.897 2-2 2h-2c-1.105 0-2 .895-2 2s.895 2 2 2c1.103 0 2 .897 2 2s-.897 2-2 2h-9.528z"/></svg>