<svg xmlns="http://www.w3.org/2000/svg" width="64" height="64" viewBox="0 0 64 64"><path d="M60 26v10c0 3.308-2.692 6-6 6-1.07 0-2.074-.28-2.944-.773C49.99 42.893 48.12 44 46 44c-1.535 0-2.938-.58-4-1.532C40.938 43.42 39.535 44 38 44c-.7 0-1.374-.12-2-.343V58c0 3.308-2.692 6-6 6s-6-2.692-6-6V33.333l-11 5.865c-.91.525-1.946.803-3 .803-3.31 0-6-2.69-6-6 0-1.647.654-3.183 1.843-4.326.016-.015.03-.03.047-.044L20.838 16H18c-1.105 0-2-.895-2-2V2c0-1.105.895-2 2-2h40c1.105 0 2 .895 2 2v12c0 1.105-.895 2-2 2h-2.764l4.553 9.106c.138.278.21.584.21.894zm-4-16c0-1.105-.895-2-2-2s-2 .895-2 2 .895 2 2 2 2-.895 2-2zm0 16.472L50.764 16h-23.99L8.6 32.573c-.387.38-.6.885-.6 1.427 0 1.103.897 2 2 2 .34 0 .663-.082.958-.243l.1-.058 14-7.464c.62-.33 1.37-.312 1.97.05S28 29.298 28 30v28c0 1.104.897 2 2 2s2-.896 2-2V38c0-1.104.895-2 2-2s2 .896 2 2 .897 2 2 2 2-.896 2-2 .895-2 2-2 2 .896 2 2 .897 2 2 2 2-.896 2-2v-2c0-1.104.895-2 2-2s2 .896 2 2 .897 2 2 2 2-.896 2-2v-9.527z"/></svg>