<svg xmlns="http://www.w3.org/2000/svg" width="64" height="64" viewBox="0 0 64 64"><path d="M38 60H28c-3.308 0-6-2.692-6-6 0-1.07.28-2.074.773-2.944C21.107 49.99 20 48.12 20 46c0-1.535.58-2.938 1.532-4C20.58 40.938 20 39.535 20 38c0-.7.12-1.374.343-2H6c-3.308 0-6-2.692-6-6s2.692-6 6-6h24.667l-5.865-11c-.525-.91-.802-1.946-.802-3 0-3.31 2.692-6 6-6 1.648 0 3.185.654 4.326 1.843.015.016.03.03.044.047L48 20.838V18c0-1.105.895-2 2-2h12c1.105 0 2 .895 2 2v40c0 1.105-.895 2-2 2H50c-1.105 0-2-.895-2-2v-2.764l-9.106 4.553c-.278.138-.584.21-.894.21zm16-4c1.105 0 2-.895 2-2s-.895-2-2-2-2 .895-2 2 .895 2 2 2zm-16.472 0L48 50.764v-23.99L31.427 8.6c-.38-.387-.885-.6-1.427-.6-1.103 0-2 .897-2 2 0 .34.082.663.243.958l.058.1 7.464 14c.33.62.312 1.37-.05 1.97S34.702 28 34 28H6c-1.104 0-2 .897-2 2s.896 2 2 2h20c1.104 0 2 .895 2 2s-.896 2-2 2-2 .897-2 2 .896 2 2 2 2 .895 2 2-.896 2-2 2-2 .897-2 2 .896 2 2 2h2c1.104 0 2 .895 2 2s-.896 2-2 2-2 .897-2 2 .896 2 2 2h9.527z"/></svg>