<svg xmlns="http://www.w3.org/2000/svg" width="64" height="64" viewBox="0 0 64 64"><path d="M54.627 9.373C48.583 3.33 40.547 0 32 0S15.415 3.33 9.37 9.373C3.328 15.417 0 23.453 0 32s3.33 16.583 9.373 22.627C15.416 60.67 23.45 64 32 64s16.582-3.33 22.627-9.373C60.67 48.583 64 40.547 64 32s-3.33-16.584-9.373-22.63zM56 32c0 5.176-1.647 9.974-4.444 13.9L18.102 12.444C22.027 9.648 26.825 8 32.002 8c13.233 0 24 10.767 24 24zM8 32c0-5.176 1.647-9.974 4.444-13.9l33.454 33.455C41.973 54.352 37.175 56 31.998 56 18.766 56 8 45.232 8 32z"/></svg>