<svg xmlns="http://www.w3.org/2000/svg" width="64" height="64" viewBox="0 0 64 64"><path d="M34.314 46.314c-.768 0-1.535-.293-2.12-.88-1.173-1.17-1.173-3.07 0-4.24 5.068-5.07 5.068-13.317 0-18.386-1.173-1.172-1.173-3.07 0-4.243s3.07-1.172 4.242 0c7.408 7.408 7.408 19.462 0 26.87-.586.586-1.353.878-2.12.878zM26 60c-.52 0-1.032-.203-1.415-.586L9.17 44H2c-1.106 0-2-.895-2-2V22c0-1.105.894-2 2-2h7.17L24.586 4.586c.572-.572 1.432-.743 2.18-.434S28 5.192 28 6v52c0 .81-.487 1.538-1.235 1.848-.247.102-.507.152-.765.152z"/></svg>