<svg xmlns="http://www.w3.org/2000/svg" width="64" height="64" viewBox="0 0 64 64"><path d="M49 47c-4.008 0-7.774-1.56-10.607-4.392L32 36.215l-6.392 6.392C22.775 45.44 19.008 47 15 47s-7.773-1.56-10.607-4.393C1.56 39.774 0 36.007 0 32s1.56-7.774 4.393-10.607C7.226 18.56 10.993 17 15 17s7.774 1.56 10.607 4.393L32 27.785l6.39-6.392C41.225 18.56 44.99 17 49 17s7.774 1.56 10.607 4.393C62.44 24.226 64 27.993 64 32s-1.56 7.774-4.395 10.607C56.772 45.44 53.005 47 48.998 47zm-6.392-8.607C44.316 40.1 46.585 41.04 49 41.04s4.685-.94 6.392-2.648C57.1 36.684 58.04 34.414 58.04 32s-.94-4.685-2.648-6.392C53.684 23.9 51.415 22.96 49 22.96s-4.685.94-6.392 2.648L36.216 32l6.392 6.393zM15 22.96c-2.414 0-4.684.94-6.39 2.648S5.96 29.585 5.96 32c0 2.414.94 4.685 2.65 6.392S12.586 41.04 15 41.04c2.416 0 4.686-.94 6.393-2.648L27.785 32l-6.392-6.392C19.686 23.9 17.416 22.96 15 22.96z"/></svg>