<svg xmlns="http://www.w3.org/2000/svg" width="64" height="64" viewBox="0 0 64 64"><path d="M20 48V0h-8v48H2l14 14 14-14H20zM58 64H42c-.737 0-1.415-.406-1.763-1.056s-.31-1.44.1-2.053L54.262 40H42c-1.105 0-2-.895-2-2s.895-2 2-2h16c.737 0 1.415.406 1.763 1.056s.31 1.44-.1 2.053L45.738 60H58c1.105 0 2 .895 2 2s-.895 2-2 2zM63.79 25.105l-12-24C51.45.427 50.757 0 50 0s-1.45.427-1.79 1.105l-12 24c-.493.988-.092 2.19.895 2.683.287.143.592.212.893.212.733 0 1.44-.405 1.79-1.106L43.235 20h13.528l3.447 6.894c.494.988 1.695 1.388 2.683.894s1.39-1.695.895-2.683zM45.235 16L50 6.472 54.764 16h-9.528z"/></svg>