<svg xmlns="http://www.w3.org/2000/svg" width="64" height="64" viewBox="0 0 64 64"><path d="M20 48V0h-8v48H2l14 14 14-14H20zM58 28H42c-.737 0-1.415-.406-1.763-1.056s-.31-1.44.1-2.053L54.262 4H42c-1.105 0-2-.896-2-2s.895-2 2-2h16c.737 0 1.415.406 1.763 1.056s.31 1.44-.1 2.053L45.738 24H58c1.105 0 2 .895 2 2s-.895 2-2 2zM63.79 61.106l-12-24C51.45 36.428 50.757 36 50 36s-1.45.428-1.79 1.106l-12 24c-.493.988-.092 2.19.895 2.683.287.143.592.21.893.21.733 0 1.44-.404 1.79-1.105L43.235 56h13.528l3.447 6.895c.494.988 1.695 1.388 2.683.894s1.388-1.696.894-2.684zM45.235 52L50 42.472 54.764 52h-9.528z"/></svg>