<svg xmlns="http://www.w3.org/2000/svg" width="64" height="64" viewBox="0 0 64 64"><path d="M46 56c-5.514 0-10-4.486-10-10v-6h-8v6c0 5.514-4.486 10-10 10S8 51.514 8 46s4.486-10 10-10h6v-8h-6c-5.514 0-10-4.486-10-10S12.486 8 18 8s10 4.486 10 10v6h8v-6c0-5.514 4.486-10 10-10s10 4.486 10 10-4.486 10-10 10h-6v8h6c5.514 0 10 4.486 10 10s-4.486 10-10 10zm-6-16v6c0 3.308 2.692 6 6 6s6-2.692 6-6-2.692-6-6-6h-6zm-22 0c-3.308 0-6 2.692-6 6s2.692 6 6 6 6-2.692 6-6v-6h-6zm10-4h8v-8h-8v8zm12-12h6c3.308 0 6-2.692 6-6s-2.692-6-6-6-6 2.692-6 6v6zM18 12c-3.308 0-6 2.692-6 6s2.692 6 6 6h6v-6c0-3.308-2.692-6-6-6z"/></svg>