<svg xmlns="http://www.w3.org/2000/svg" width="64" height="64" viewBox="0 0 64 64"><path d="M24 29c0 1.65-1.35 3-3 3h-6c-1.65 0-3-1.35-3-3v-6c0-1.65 1.35-3 3-3h6c1.65 0 3 1.35 3 3v6zM44 29c0 1.65-1.35 3-3 3h-6c-1.65 0-3-1.35-3-3v-6c0-1.65 1.35-3 3-3h6c1.65 0 3 1.35 3 3v6zM24 49c0 1.65-1.35 3-3 3h-6c-1.65 0-3-1.35-3-3v-6c0-1.65 1.35-3 3-3h6c1.65 0 3 1.35 3 3v6zM44 49c0 1.65-1.35 3-3 3h-6c-1.65 0-3-1.35-3-3v-6c0-1.65 1.35-3 3-3h6c1.65 0 3 1.35 3 3v6zM57.005 10L64 3.005V0h-3.005L54 6.995 47.005 0H44v3.005L50.995 10 44 16.995V20h3.005L54 13.005 60.995 20H64v-3.005zM0 48h4v8H0v-8zM0 36h4v8H0v-8zM52 28h4v8h-4v-8zM52 52h4v8h-4v-8zM52 40h4v8h-4v-8zM0 24h4v8H0v-8zM0 12h4v8H0v-8zM32 8h8v4h-8V8zM20 8h8v4h-8V8zM8 8h8v4H8V8zM28 60h8v4h-8v-4zM40 60h8v4h-8v-4zM16 60h8v4h-8v-4zM4 60h8v4H4v-4z"/></svg>