<svg xmlns="http://www.w3.org/2000/svg" width="64" height="64" viewBox="0 0 64 64"><path d="M57.114 42.48c-4.168-6.512-11.317-9.378-15.97-6.4-.4.256-.77.55-1.108.873l-4.966-7.766L46.536 11.19c.938-1.734 1.285-3.798.83-5.874-.437-1.984-1.533-3.652-3.007-4.827L43.59 0 30 21.26 16.408 0l-.767.49c-1.473 1.173-2.57 2.84-3.005 4.826-.456 2.076-.11 4.14.83 5.873L24.93 29.186l-4.966 7.766c-.338-.324-.707-.617-1.11-.874-4.65-2.978-11.8-.112-15.968 6.4s-3.775 14.206.877 17.183c4.652 2.977 11.802.11 15.97-6.402L30 37.145 40.268 53.26c4.168 6.514 11.317 9.38 15.97 6.403s5.043-10.67.876-17.182zm-42.436 7.547c-1.876 2.93-4.283 4.358-5.91 4.715-.532.117-1.27.188-1.77-.133-.557-.357-.926-1.298-.988-2.518-.1-1.978.603-4.302 1.93-6.377 1.877-2.932 4.284-4.358 5.91-4.715.532-.117 1.27-.188 1.772.133.556.356.925 1.297.987 2.517.1 1.978-.603 4.303-1.93 6.377zM30 32c-1.105 0-2-.895-2-2s.895-2 2-2 2 .895 2 2-.895 2-2 2zm23.99 20.092c-.06 1.22-.43 2.16-.986 2.517-.502.32-1.24.25-1.77.132-1.627-.357-4.035-1.784-5.91-4.715-1.33-2.075-2.032-4.4-1.93-6.377.06-1.22.43-2.16.986-2.517.502-.32 1.24-.25 1.77-.133 1.628.357 4.035 1.784 5.91 4.715 1.33 2.075 2.032 4.4 1.932 6.377z"/></svg>