<svg xmlns="http://www.w3.org/2000/svg" width="64" height="64" viewBox="0 0 64 64"><path d="M32 0C14.327 0 0 4.477 0 10v6l24 24v20c0 2.21 3.582 4 8 4s8-1.79 8-4V40l24-24v-6C64 4.477 49.673 0 32 0zM5.9 8.677c1.496-.854 3.598-1.664 6.08-2.343C17.474 4.83 24.585 4 32 4s14.525.83 20.02 2.334c2.482.68 4.584 1.49 6.08 2.343.988.563 1.52 1.04 1.77 1.323-.248.284-.782.76-1.77 1.323-1.496.854-3.598 1.664-6.08 2.343C46.526 15.17 39.415 16 32 16s-14.525-.83-20.02-2.334c-2.482-.68-4.584-1.49-6.08-2.343-.988-.563-1.52-1.04-1.77-1.323.248-.284.782-.76 1.77-1.323z"/></svg>