<svg xmlns="http://www.w3.org/2000/svg" width="64" height="64" viewBox="0 0 64 64"><path d="M48 54.49v-.008l-.022-27.285-7.968.387H24.264V26.24c0-5.095.363-10.185 1.078-12.17.494-1.37 1.412-2.608 2.73-3.676 1.29-1.044 2.575-1.573 3.82-1.573 1.048 0 1.92.18 2.588.536.94.535 1.857 1.435 2.73 2.676 2.308 3.28 3.248 4.153 3.755 4.523.863.63 1.907.95 3.104.95 1.166 0 2.184-.435 3.026-1.294.836-.85 1.26-1.917 1.26-3.166 0-1.34-.558-2.763-1.657-4.226-1.075-1.43-2.733-2.61-4.928-3.502C39.627 4.443 37.212 4 34.598 4c-3.795 0-7.25.913-10.272 2.713-3.026 1.802-5.347 4.31-6.898 7.452-1.437 2.913-1.333 8.42-1.42 13.42h-7.86v4.462H16V52.34c0 4.478-1.368 5.687-1.888 6.332-.715.888-2.034 1.82-3.778 1.82H7.916V64H32V60.49h-.42c-5.697 0-7.314-.614-7.314-7.553v-.003l-.002-20.888h8.763c4.65 0 5.718.215 5.962.308.293.112.674.302.817.572.054.105.325 1.563.325 5.186V53.78c0 3.652-.445 4.867-.716 5.274-.578.887-1.276 1.38-3.416 1.43v3.517h18.35v-3.49c-5.725 0-6.35-.613-6.35-6.02z"/></svg>