<svg xmlns="http://www.w3.org/2000/svg" width="64" height="64" viewBox="0 0 64 64"><path d="M53.458 57.34c-.733 0-5.226-.824-5.5-1.833-.643-2.476-.735-5.135-.735-8.16v-33.81c0-5.044 1.01-7.978 1.01-7.978-.093-.46-.55-1.468-1.1-1.468h-.276c-.275 0-3.484 2.017-6.418 2.017-2.385 0-3.87-2.11-6.62-2.11-11.57 0-16.996 9.394-16.996 22.69v.69c0 .276-.183.55-.46.55h-3.758c-.46 0-1.375 2.568-1.375 3.76 0 .367.093.55.276.55h4.86c.275 0 .46.367.46.642 0 8.16-.093 16.206-.093 16.206 0 1.284-.092 4.126-.642 6.418-.274 1.01-4.492 1.834-5.592 1.834-.458 0-.458 2.2 0 2.66 3.76-.184 6.235-.46 9.994-.46 3.484 0 6.143.276 9.81.46.184-.55.184-2.66-.274-2.66-.733 0-5.226-.825-5.5-1.834-.643-2.476-.643-5.135-.735-8.16V32.79c0-.275.275-.55.55-.55h9.444c.642-1.284 1.1-2.842 1.1-3.668 0-.55 0-.642-.46-.642H24.25c-.183 0-.46-.275-.46-.458v-3.3c0-8.162 3.344-15.347 8.937-15.347 3.96 0 7.417 2.566 7.417 12.37.013.253.02.457.02.592v27.3c0 1.285-.092 4.127-.642 6.42-.275 1.008-4.493 1.833-5.593 1.833-.46 0-.46 2.2 0 2.66 3.758-.184 6.234-.46 9.994-.46 3.484 0 6.143.276 9.81.46.184-.55.184-2.66-.274-2.66z"/></svg>