<svg xmlns="http://www.w3.org/2000/svg" width="64" height="64" viewBox="0 0 64 64"><path d="M64 32v4H49.343C51.063 38.407 52 41.168 52 44c0 4.43-2.29 8.69-6.286 11.685C42.004 58.467 37.134 60 32 60s-10.004-1.532-13.714-4.315C14.29 52.69 12 48.43 12 44h8c0 4.336 5.495 8 12 8s12-3.664 12-8-5.495-8-12-8H0v-4h18.72c-.146-.103-.29-.208-.434-.315C14.29 28.69 12 24.43 12 20s2.29-8.69 6.286-11.685C21.996 5.533 26.866 4 32 4s10.004 1.532 13.714 4.315C49.71 11.31 52 15.57 52 20h-8c0-4.336-5.495-8-12-8s-12 3.664-12 8 5.495 8 12 8c4.936 0 9.628 1.417 13.28 4H64z"/></svg>