<svg xmlns="http://www.w3.org/2000/svg" width="64" height="64" viewBox="0 0 64 64"><path d="M12.126 52l3.6-12h16.548l3.6 12h7.102l-12-40H17.024l-12 40h7.102zm9.6-32h4.548l3.6 12H18.126l3.6-12zM64 12L54 28 44 12h20zM54 52h-4c-1.103 0-2-.897-2-2s.897-2 2-2h8c1.105 0 2-.895 2-2s-.895-2-2-2h-8c-3.31 0-6 2.692-6 6 0 1.535.58 2.938 1.533 4 1.1 1.227 2.694 2 4.467 2h4c1.103 0 2 .897 2 2s-.897 2-2 2h-8c-1.105 0-2 .895-2 2s.895 2 2 2h8c3.31 0 6-2.692 6-6 0-1.535-.58-2.938-1.533-4-1.1-1.227-2.694-2-4.467-2z"/></svg>