<svg xmlns="http://www.w3.org/2000/svg" width="64" height="64" viewBox="0 0 64 64"><path d="M30.998 64c-3.085 0-5.695-.9-7.756-2.676-2.076-1.788-3.13-3.877-3.13-6.21 0-1.132.414-2.11 1.227-2.903.826-.806 1.86-1.233 2.99-1.233 1.125 0 2.137.4 2.927 1.16.78.747 1.175 1.738 1.175 2.943 0 .707-.116 1.49-.343 2.322-.227.824-.274 1.246-.274 1.456 0 .23.058.505.486.797.797.55 1.754.818 2.93.818 1.41 0 2.67-.49 3.848-1.5 1.16-.997 1.726-2.02 1.726-3.13 0-1.233-.33-2.302-1.008-3.265-1.146-1.61-3.305-3.497-6.413-5.604-4.99-3.34-8.317-6.235-10.16-8.845-1.432-2.044-2.156-4.244-2.156-6.545 0-2.316.758-4.622 2.255-6.852 1.282-1.91 3.175-3.633 5.64-5.134-1.32-1.42-2.307-2.755-2.944-3.98-.804-1.548-1.21-3.15-1.21-4.76 0-2.987 1.18-5.57 3.512-7.68C26.654 1.07 29.562 0 32.967 0c3.13 0 5.763.88 7.824 2.616 2.084 1.755 3.14 3.806 3.14 6.096 0 1.166-.437 2.21-1.298 3.104l-.017.018c-.498.495-1.414 1.086-2.94 1.086-1.197 0-2.246-.392-3.034-1.133-.784-.737-1.182-1.62-1.182-2.623 0-.433.106-1.088.334-2.06.11-.46.167-.885.167-1.267 0-.646-.234-1.142-.734-1.56-.518-.433-1.257-.644-2.26-.644-1.553 0-2.83.473-3.9 1.445-1.074.975-1.596 2.13-1.596 3.532 0 1.26.285 2.298.85 3.085 1.07 1.496 2.924 3.112 5.513 4.802 5.26 3.412 8.93 6.542 10.907 9.302 1.46 2.07 2.197 4.27 2.197 6.55 0 2.286-.743 4.592-2.207 6.854-1.263 1.95-3.17 3.705-5.68 5.232 1.386 1.467 2.363 2.753 2.972 3.91.755 1.435 1.138 3.002 1.138 4.658 0 3.104-1.183 5.74-3.515 7.84-2.334 2.096-5.242 3.16-8.643 3.16zM27.9 22.272c-3.013 1.81-4.48 3.887-4.48 6.332 0 1.422.405 2.696 1.24 3.892 1.246 1.745 3.704 3.878 7.3 6.33 1.522 1.038 2.898 2.045 4.1 3.005 3.065-1.843 4.56-3.897 4.56-6.26 0-1.287-.51-2.673-1.514-4.12-1.05-1.512-3.303-3.487-6.696-5.87-1.77-1.223-3.285-2.333-4.51-3.308z"/></svg>