<svg xmlns="http://www.w3.org/2000/svg" width="64" height="64" viewBox="0 0 64 64"><path d="M54 44c-2.822 0-5.37 1.17-7.188 3.052l-26.938-13.47C19.956 33.068 20 32.54 20 32s-.044-1.067-.126-1.583l26.938-13.47C48.63 18.83 51.178 20 54 20c5.523 0 10-4.477 10-10S59.523 0 54 0 44 4.477 44 10c0 .54.044 1.067.126 1.583l-26.938 13.47C15.37 23.17 12.822 22 10 22 4.477 22 0 26.477 0 32s4.477 10 10 10c2.822 0 5.37-1.17 7.188-3.052l26.938 13.47C44.044 52.932 44 53.46 44 54c0 5.523 4.477 10 10 10s10-4.477 10-10-4.477-10-10-10z"/></svg>