<svg xmlns="http://www.w3.org/2000/svg" width="64" height="64" viewBox="0 0 64 64"><path d="M53.332 0H10.668C4.8 0 0 4.8 0 10.666v42.666C0 59.2 4.8 64 10.668 64h42.664C59.202 64 64 59.2 64 53.332V10.666C64 4.8 59.203 0 53.332 0zM16 16h32c.57 0 1.125.123 1.634.354L32 36.927 14.366 16.354C14.876 16.124 15.43 16 16 16zm-4 28V20c0-.084.004-.167.01-.25l11.728 13.684-11.6 11.6C12.048 44.7 12 44.354 12 44zm36 4H16c-.353 0-.7-.048-1.034-.138L26.348 36.48l5.65 6.593 5.652-6.593 11.382 11.382c-.334.09-.68.138-1.034.138zm4-4c0 .353-.048.7-.138 1.034l-11.6-11.6 11.73-13.684c.004.083.008.166.008.25v24z"/></svg>