<svg xmlns="http://www.w3.org/2000/svg" width="64" height="64" viewBox="0 0 64 64"><path d="M32 0C14.327 0 0 14.327 0 32s14.327 32 32 32 32-14.327 32-32S49.673 0 32 0zM16 16h32c.57 0 1.125.123 1.634.354L32 36.927 14.366 16.354C14.876 16.124 15.43 16 16 16zm-4 28V20c0-.084.004-.167.01-.25l11.728 13.684-11.6 11.6C12.048 44.7 12 44.354 12 44zm36 4H16c-.353 0-.7-.048-1.034-.138L26.348 36.48l5.65 6.594 5.652-6.593 11.382 11.384c-.334.09-.68.138-1.034.138zm4-4c0 .353-.048.7-.138 1.034l-11.6-11.6 11.73-13.684c.004.083.008.166.008.25v24z"/></svg>