<svg xmlns="http://www.w3.org/2000/svg" width="64" height="64" viewBox="0 0 64 64"><path d="M49.346 4H32.6c-7.508 0-14.573 5.688-14.573 12.276 0 6.733 5.118 12.167 12.755 12.167.53 0 1.047-.01 1.553-.047-.495.95-.85 2.018-.85 3.128 0 1.87 1.007 3.388 2.28 4.627-.963 0-1.89.03-2.904.03-9.298 0-16.455 5.92-16.455 12.063 0 6.05 7.846 9.832 17.146 9.832 10.603 0 16.458-6.015 16.458-12.064 0-4.85-1.43-7.754-5.855-10.882-1.514-1.07-4.408-3.677-4.408-5.21 0-1.794.512-2.678 3.214-4.79 2.77-2.163 4.73-5.205 4.73-8.744 0-4.213-1.877-8.32-5.4-9.673h5.31l3.75-2.708zm-5.85 40.966c.134.56.206 1.138.206 1.727 0 4.888-3.15 8.707-12.186 8.707-6.428 0-11.07-4.07-11.07-8.956 0-4.79 5.758-8.778 12.185-8.708 1.5.016 2.9.257 4.168.668 3.49 2.427 5.992 3.797 6.698 6.563zm-10.29-18.23c-4.316-.13-8.416-4.827-9.16-10.49-.746-5.668 2.147-10.004 6.46-9.875 4.314.13 8.416 4.677 9.16 10.342.745 5.666-2.148 10.154-6.46 10.024z"/></svg>