<svg xmlns="http://www.w3.org/2000/svg" width="64" height="64" viewBox="0 0 64 64"><path d="M.05 54.354c-.015-.158-.028-.317-.036-.477.008.16.02.32.036.477zm14.694-19.032c5.75.17 9.608-5.794 8.616-13.325-.993-7.53-6.462-13.573-12.213-13.745-5.752-.17-9.61 5.593-8.616 13.125.994 7.53 6.46 13.773 12.213 13.945zM64 16v-5.332C64 4.8 59.2 0 53.334 0H10.668C4.9 0 .168 4.64.008 10.37c3.648-3.212 8.708-5.895 13.93-5.895h22.328L31.27 8.7h-7.08c4.696 1.8 7.197 7.26 7.197 12.86 0 4.702-2.613 8.746-6.305 11.622-3.603 2.806-4.286 3.982-4.286 6.367 0 2.035 3.86 5.5 5.877 6.923 5.9 4.16 7.807 8.02 7.807 14.466 0 1.026-.128 2.05-.38 3.06h19.235C59.202 64 64 59.2 64 53.33V20H52v12h-4V20H36v-4h12V4h4v12h12zM11.618 47.87c1.35 0 2.59-.036 3.87-.036-1.696-1.646-3.038-3.663-3.038-6.15 0-1.474.473-2.895 1.133-4.156-.674.048-1.362.062-2.07.062C6.866 37.59 2.92 36.085 0 33.6V50.41c3.34-1.586 7.306-2.54 11.617-2.54zM.214 55.455c-.07-.34-.123-.688-.16-1.04.037.352.09.7.16 1.04zm28.252 4.1c-.94-3.676-4.278-5.5-8.93-8.724-1.692-.546-3.556-.867-5.556-.888-5.6-.06-10.82 2.184-13.764 5.523C1.21 60.322 5.53 64 10.668 64H28.57c.114-.696.17-1.414.17-2.152 0-.783-.096-1.55-.273-2.295z"/></svg>