<svg xmlns="http://www.w3.org/2000/svg" width="64" height="64" viewBox="0 0 64 64"><path d="M27.313 51.135c0 4.692-2.9 8.4-11.11 8.698-4.81-2.737-8.843-6.684-11.682-11.43 1.482-3.655 6.107-6.44 11.396-6.38 1.5.015 2.9.256 4.172.668 3.494 2.43 6.313 3.948 7.02 6.716.132.56.205 1.138.205 1.728zM32 0C22.754 0 14.425 3.923 8.583 10.194c2.308-1.278 5.034-2.04 7.93-2.04h16.028l-3.58 3.76h-4.207c2.968 1.7 4.547 5.202 4.547 9.062 0 3.543-1.963 6.4-4.736 8.566-2.705 2.113-3.218 2.998-3.218 4.796 0 1.534 3.233 3.82 4.72 4.934 5.175 3.882 6.223 6.324 6.223 11.18 0 4.92-4.31 9.818-11.618 11.483C24.194 63.27 28.012 64 32 64c17.673 0 32-14.326 32-32S49.673 0 32 0zm16 24v8h-4v-8h-8v-4h8v-8h4v8h8v4h-8zm-25.14-2.783c.745 5.674-1.74 9.324-6.058 9.196-4.32-.13-8.425-4.093-9.17-9.765-.746-5.674 2.15-10.016 6.47-9.887 4.318.13 8.014 4.785 8.76 10.458zM13.805 40.13c-4.668 0-8.633 1.61-11.428 3.99C.847 40.383 0 36.29 0 32c0-3.548.578-6.96 1.644-10.15.46 6.215 4.835 11.012 12.06 11.012.533 0 1.05-.028 1.556-.064-.497.952-.85 2.012-.85 3.124 0 1.873 1.03 2.942 2.303 4.18-.963 0-1.892.027-2.907.027z"/></svg>