<svg xmlns="http://www.w3.org/2000/svg" width="64" height="64" viewBox="0 0 64 64"><path d="M53.375 0h-42.75C4.78 0 0 4.78 0 10.625v42.75C0 59.22 4.78 64 10.625 64h42.75C59.22 64 64 59.22 64 53.375v-42.75C64 4.78 59.22 0 53.375 0zM20.488 28h23.025c.437 1.254.675 2.6.675 4 0 6.72-5.467 12.188-12.188 12.188S19.812 38.72 19.812 32c0-1.4.238-2.746.675-4zM56 28.003V52c0 2.2-1.8 4-4 4H12c-2.2 0-4-1.8-4-4V28h6.257c-.29 1.288-.444 2.626-.444 4 0 10.03 8.16 18.188 18.188 18.188S50.19 42.028 50.19 32c0-1.374-.155-2.712-.445-4l6.257.003zM56 14c0 1.1-.9 2-2 2h-4c-1.1 0-2-.9-2-2v-4c0-1.1.9-2 2-2h4c1.1 0 2 .9 2 2v4z"/></svg>