<svg xmlns="http://www.w3.org/2000/svg" width="64" height="64" viewBox="0 0 64 64"><path d="M53.334 0H10.668C4.8 0 0 4.8 0 10.668v42.664C0 59.202 4.8 64 10.668 64h42.666C59.2 64 64 59.203 64 53.332V10.668C64 4.8 59.2 0 53.334 0zm-5.43 23.843c.017.352.025.706.025 1.062 0 10.844-8.255 23.35-23.35 23.35-4.634 0-8.948-1.36-12.58-3.688.642.076 1.295.115 1.958.115 3.845 0 7.383-1.312 10.192-3.513-3.59-.067-6.622-2.44-7.666-5.7.5.096 1.015.148 1.544.148.748 0 1.474-.1 2.162-.288-3.754-.754-6.583-4.07-6.583-8.047v-.103c1.107.615 2.373.984 3.718 1.026-2.202-1.472-3.65-3.983-3.65-6.83 0-1.505.404-2.915 1.11-4.127 4.048 4.964 10.094 8.23 16.915 8.573-.14-.6-.212-1.227-.212-1.87 0-4.532 3.675-8.206 8.206-8.206 2.36 0 4.493.997 5.99 2.59 1.87-.367 3.626-1.05 5.21-1.99-.612 1.916-1.913 3.525-3.607 4.54 1.66-.198 3.242-.64 4.713-1.292-1.1 1.645-2.49 3.09-4.095 4.248z"/></svg>