<svg xmlns="http://www.w3.org/2000/svg" width="64" height="64" viewBox="0 0 64 64"><path d="M53.334 0H10.668C4.8 0 0 4.8 0 10.668v42.664C0 59.202 4.8 64 10.668 64h42.666C59.2 64 64 59.203 64 53.332V10.668C64 4.8 59.2 0 53.334 0zm-35.9 51.953c-2.998 0-5.434-2.418-5.434-5.414 0-2.98 2.436-5.427 5.434-5.427 3.01 0 5.44 2.446 5.44 5.426 0 2.995-2.43 5.413-5.44 5.413zM31.092 52c0-5.113-1.988-9.926-5.59-13.528-3.608-3.61-8.4-5.602-13.495-5.602v-7.824c14.853 0 26.945 12.09 26.945 26.953h-7.86zm13.885 0c0-18.19-14.79-32.996-32.96-32.996v-7.828c22.5 0 40.808 18.32 40.808 40.825h-7.848z"/></svg>