<svg xmlns="http://www.w3.org/2000/svg" width="64" height="64" viewBox="0 0 64 64"><path d="M18.324 0L14 8.577 9.676 0H4.16l7.794 13.582.045-.027V24h4V13.555l.044.027L23.838 0zM30 8c1.084 0 2 .916 2 2v8c0 1.084-.916 2-2 2s-2-.916-2-2v-8c0-1.084.916-2 2-2zm0-4c-3.3 0-6 2.7-6 6v8c0 3.3 2.7 6 6 6s6-2.7 6-6v-8c0-3.3-2.7-6-6-6zM48 4v15.748c-1.745 1.456-4 2.333-4-2.852V4h-4v13.708h.006c.062 3.307.76 9.26 7.994 4.42V24h4V4h-4zM54 44c-1.103 0-2 .897-2 2v2h4v-2c0-1.103-.897-2-2-2zM36 46v10.5c1.354 1.354 4 1.5 4-.5v-9.375S38 44 36 46zM63.673 36.346c-.175-2.304-1.003-4.184-2.486-5.64s-3.38-2.25-5.692-2.38C51.135 28.11 41.155 28 32.388 28s-19.456.11-23.817.326c-2.31.13-4.208.924-5.69 2.38S.566 34.042.392 36.346C.13 41.04 0 42.743 0 45.09s.13 5.868.393 10.563c.174 2.304 1.003 4.184 2.486 5.64s3.38 2.25 5.69 2.38c4.362.217 15.052.326 23.818.326s18.746-.11 23.107-.327c2.312-.13 4.21-.924 5.692-2.38s2.312-3.336 2.486-5.64C63.89 51.74 64 48.22 64 45.09s-.11-4.832-.327-8.744zM12 60H8V40H4v-4h12v4h-4v20zm16 0h-4v-1.873c-7.604 4.268-7.932.137-7.994-3.17H16V44h4v11.02c0 2.418 2.255 2.184 4 .728V44h4v16zm16-4.057c0 4.18-4.282 5.4-8 2.15V60h-4V36h4v6.5c4-4 8-2.5 8 1.5v11.943zM60 48v2h-8v4c0 1.103.897 2 2 2s2-.897 2-2v-2h4v2c0 3.308-2.692 6-6 6s-6-2.692-6-6v-8c0-3.308 2.692-6 6-6s6 2.692 6 6v2z"/></svg>