<svg xmlns="http://www.w3.org/2000/svg" width="161" height="64" viewBox="0 0 161 64"><path d="M21.5 10.587c.014-.054.022-.092.025-.113l.065-.472-2.96-.017c-2.673-.015-3.49 0-3.564.068-.035.032-.958 3.54-2.603 9.892-.785 3.03-1.445 5.45-1.468 5.378s-.962-3.53-2.087-7.686c-1.125-4.155-2.07-7.578-2.097-7.606-.038-.038-3.623-.055-6.525-.03-.42.004-.655-.82 3.75 13.196.61 1.94 1.524 4.687 2.03 6.105.583 1.635 1 2.896 1.283 3.95.502 2.003.52 3.26.41 4.726-.127 1.694-.145 13.652-.02 13.852.094.153 5.7.224 6.23.08.086-.024.143-.107.18-.56.132-.388.143-1.935.143-8.358v-8.205l.36-1.132c.235-.74.825-2.687 1.312-4.326s1.076-3.6 1.31-4.36c2.114-6.896 4.133-13.678 4.186-14.064l.043-.316zM52.883 20.54v.428h-.068l-.037 11.813-.036 11.453-.917.933c-1.026 1.045-1.85 1.444-2.593 1.257-.81-.203-.79.112-.858-13.423l-.062-12.46h-5.895v.43h-.068v13.517c0 14.484 0 14.475.733 15.93.585 1.158 1.438 1.722 2.9 1.917 1.923.256 4-.616 5.922-2.488l.836-.814v1.403c0 1.212.036 1.413.255 1.474.36.1 4.823.106 5.306.007l.4-.082v-.414l.07-.013V20.463l-5.888.08zM37.93 26.646c-.557-2.396-1.604-4.007-3.326-5.12-2.705-1.75-5.795-1.936-8.662-.52-2.09 1.033-3.434 2.746-4.13 5.256-.082.3-.143.55-.19.926-.176.887-.197 2.21-.242 8.372-.07 9.495.038 10.625 1.228 12.782 1.166 2.115 3.588 3.666 6.223 3.986.795.096 2.403-.054 3.328-.31 2.102-.583 4.117-2.244 5.007-4.13.385-.815.617-1.38.757-2.416.26-1.414.28-3.698.28-9.523 0-7.43-.025-8.242-.272-9.304zM31.21 46c-.495.377-1.36.54-2.062.39-.54-.114-1.27-.963-1.496-1.737-.28-.965-.3-14.374-.06-17.004.4-1.317 1.512-2.004 2.727-1.677.946.255 1.43.848 1.708 2.09.205.923.23 2.072.186 8.83-.03 4.48-.045 6.67-.19 7.847-.15.742-.396.94-.814 1.26zM143.774 33.384h2.848l-.045-2.58c-.044-2.367-.08-2.637-.395-3.28-.5-1.012-1.235-1.462-2.403-1.462-1.404 0-2.293.678-2.713 2.07-.18.594-.366 4.67-.232 5.02.075.197.483.232 2.94.232zM124.737 27.515c-.38-.765-1.087-1.142-1.908-1.113-.64.023-1.35.292-2.032.813l-.51.386V46.14l.51.386c1.152.878 2.417 1.064 3.29.48.344-.23.57-.548.744-1.053.228-.657.248-1.5.218-9.297-.03-8.128-.05-8.606-.313-9.14zM160.055 19.165c-.567-6.803-1.02-9.01-2.422-11.847-1.858-3.756-4.543-5.737-8.367-6.172-2.957-.336-14.082-.81-24.378-1.04-17.824-.395-47.13.367-50.87 1.324-1.73.442-3.028 1.194-4.377 2.538-2.364 2.354-3.773 5.73-4.34 10.4-1.293 10.663-1.32 23.545-.074 34.595.536 4.753 1.64 7.84 3.713 10.385 1.292 1.588 3.52 2.937 5.515 3.34 1.4.283 8.4.675 18.6 1.042 1.52.055 5.542.15 8.94.21 7.08.125 20.1.05 27.544-.158 5.007-.14 14.137-.51 15.843-.643.48-.038 1.592-.11 2.47-.16 2.956-.166 4.836-.784 6.6-2.17 2.286-1.796 4.055-5.113 4.802-9.003.707-3.68 1.18-10.236 1.276-17.678.08-6.22-.026-9.574-.475-14.964zM89.08 16.7l-3.31.04-.146 35.322-2.87.036c-2.22.03-2.895-.003-2.95-.145-.037-.102-.084-8.064-.104-17.697l-.036-17.515-6.468-.08v-5.52l19.114.077.082 5.442-3.31.04zm20.308 20.245v15.19h-5.233v-1.6c0-1.202-.046-1.598-.186-1.598-.104 0-.578.397-1.055.88-1.035 1.052-2.26 1.9-3.307 2.29-2.166.81-4.224.337-5.1-1.172-.803-1.382-.82-1.69-.82-16.02v-13.16h5.23l.04 12.392c.04 12.176.045 12.4.336 12.896.386.658.975.834 1.912.577.55-.15.927-.42 1.82-1.308l1.127-1.122V21.756h5.233v15.19zm20.41 13.018c-.462 1.026-1.49 2.032-2.33 2.28-2.2.65-3.962.12-5.997-1.794-.63-.595-1.218-1.078-1.307-1.078-.107 0-.163.466-.163 1.38v1.382h-5.233v-40.99H120v6.686c0 3.678.05 6.686.11 6.686s.61-.488 1.226-1.08c1.414-1.366 2.597-1.963 4.097-2.077 2.676-.204 4.27 1.174 5 4.32.23.98.25 2.1.25 11.19 0 11.075 0 11.12-.885 13.092zm22.14-6.077c-.048 1.14-.186 2.446-.31 2.907-.728 2.698-2.665 4.608-5.464 5.392-3.77 1.055-7.92-.674-9.575-3.988-.93-1.86-.964-2.232-.964-11.324 0-7.414.026-8.323.263-9.335.67-2.862 2.336-4.714 5.155-5.742.817-.298 1.67-.45 2.52-.468 3.043-.062 6.062 1.574 7.328 4.238.854 1.797.96 2.566 1.045 7.63l.077 4.543-11.156.076-.042 3.053c-.058 4.305.232 5.63 1.395 6.413.978.66 2.48.61 3.298-.11.767-.672.984-1.395 1.06-3.506l.067-1.853h5.387l-.086 2.07z"/></svg>