<svg xmlns="http://www.w3.org/2000/svg" width="64" height="64" viewBox="0 0 64 64"><path d="M32 0C14.327 0 0 14.327 0 32s14.327 32 32 32 32-14.327 32-32S49.673 0 32 0zm18.804 27.383c-2.122 11.956-13.982 22.08-17.55 24.394-3.567 2.313-6.82-.926-8-3.375-1.352-2.794-5.402-17.934-6.46-19.19-1.06-1.25-4.243 1.256-4.243 1.256l-1.542-2.023s6.46-7.715 11.377-8.68c5.213-1.023 5.205 8.004 6.46 13.015 1.21 4.848 2.026 7.622 3.085 7.622 1.06 0 3.086-2.704 5.303-6.848 2.22-4.148-.096-7.813-4.436-5.206 1.737-10.416 18.13-12.92 16.007-.966z"/></svg>