<svg xmlns="http://www.w3.org/2000/svg" width="64" height="64" viewBox="0 0 64 64"><path d="M53.336 0H10.668C4.8 0 0 4.8 0 10.668v42.664C0 59.202 4.8 64 10.668 64h42.667C59.202 64 64 59.203 64 53.33V10.668C64 4.8 59.203 0 53.336 0zM32 4c4.295 0 8.363.968 12 2.696V24.64L24.403 5.045C26.82 4.364 29.367 4 32 4zM4 32c0-10.993 6.336-20.505 15.555-25.087L26.642 14 4.332 36.31C4.113 34.907 4 33.467 4 32zm12 22.98c-4.668-3.257-8.298-7.898-10.292-13.33L16 31.36v23.62zM32 60c-4.295 0-8.363-.968-12-2.696V48h34.98C49.92 55.253 41.514 60 32 60zm25.304-16H48V9.02C55.253 14.08 60 22.486 60 32c0 4.295-.968 8.363-2.696 12z"/></svg>