<svg xmlns="http://www.w3.org/2000/svg" width="64" height="64" viewBox="0 0 64 64"><path d="M32 64C14.355 64 0 49.645 0 32S14.355 0 32 0s32 14.355 32 32-14.355 32-32 32zm26.987-27.62c-.935-.295-8.46-2.54-17.026-1.17 3.576 9.825 5.03 17.826 5.31 19.49 6.133-4.147 10.498-10.715 11.717-18.32zm-16.31 20.822c-.407-2.398-1.994-10.756-5.83-20.727l-.18.06C21.248 41.91 15.714 52.6 15.222 53.606c4.634 3.614 10.46 5.77 16.777 5.77 3.786 0 7.395-.774 10.677-2.172zm-30.983-6.885c.62-1.06 8.12-13.48 22.217-18.037.357-.115.716-.223 1.078-.325-.686-1.553-1.434-3.107-2.216-4.64-13.65 4.086-26.895 3.915-28.09 3.89-.01.28-.015.557-.015.836 0 7.02 2.66 13.43 7.027 18.277zm-6.45-23.873c1.223.016 12.485.065 25.27-3.33-4.53-8.05-9.413-14.82-10.134-15.807-7.647 3.607-13.363 10.656-15.135 19.138zM25.595 5.47c.757 1.01 5.72 7.77 10.2 16 9.72-3.643 13.834-9.173 14.325-9.873C45.29 7.315 38.944 4.71 32 4.71c-2.206 0-4.35.263-6.405.76zm27.564 9.287c-.576.78-5.157 6.65-15.263 10.777.636 1.302 1.246 2.626 1.813 3.96.2.472.397.942.59 1.41 9.094-1.144 18.13.69 19.032.88-.06-6.45-2.366-12.376-6.172-17.027z"/></svg>