<svg xmlns="http://www.w3.org/2000/svg" width="64" height="64" viewBox="0 0 64 64"><path d="M47.854 14.147c-.43.613-4.03 5.452-12.535 8.64-3.92-7.2-8.264-13.117-8.925-14.002 1.8-.434 3.675-.665 5.605-.665 6.077 0 11.63 2.28 15.854 6.027zM33.672 32.245C21.338 36.232 14.774 47.1 14.232 48.028c-3.82-4.24-6.148-9.85-6.148-15.99 0-.246.005-.49.012-.732 1.046.02 12.636.17 24.58-3.404.684 1.34 1.34 2.7 1.94 4.06-.317.088-.632.183-.944.283zM32 0C14.327 0 0 14.327 0 32s14.327 32 32 32 32-14.327 32-32S49.673 0 32 0zm0 60C16.56 60 4 47.44 4 32S16.56 4 32 4s28 12.56 28 28-12.56 28-28 28zm6.745-30.194c-.497-1.166-1.03-2.325-1.587-3.464 8.843-3.61 12.85-8.748 13.355-9.43 3.33 4.07 5.348 9.253 5.4 14.898-.788-.167-8.695-1.77-16.653-.77-.168-.41-.34-.82-.515-1.234zM30.7 24.224c-11.188 2.97-21.042 2.928-22.11 2.914 1.55-7.42 6.55-13.59 13.242-16.745.63.865 4.904 6.787 8.867 13.832zm5.383 11.745c.053-.02.105-.036.158-.054 3.36 8.725 4.747 16.038 5.103 18.137-2.872 1.223-6.03 1.9-9.342 1.9-5.528 0-10.624-1.885-14.68-5.048.43-.88 5.274-10.235 18.763-14.935zm4.634-1.16c7.495-1.2 14.08.764 14.898 1.023-1.066 6.655-4.886 12.402-10.25 16.03-.246-1.456-1.52-8.457-4.647-17.053z"/></svg>