<svg xmlns="http://www.w3.org/2000/svg" width="64" height="64" viewBox="0 0 64 64"><path d="M35.116 25.438c-2.44-.143-5.255.003-8.516.56l7.52 13.554L64 31.348c-.322-.766-.793-1.514-1.416-2.237-3.092-3.58-9.796-6.772-17.1-8.213v-.002c-7.165-1.68-14.925-1.61-22.872-.41-.287.044-.572.09-.855.138l-2.642-4.893c-2.57.343-4.988.878-7.225 1.592l2.516 5.262c-4.11 1.592-7.483 3.86-9.916 6.59C.477 33.74-1.11 39.48.818 45.07c.388 1.13.912 2.198 1.558 3.2l29.88-8.205L23.957 24.7c.285-.056.575-.11.87-.165 13.418-2.394 20.756 1.304 24.776 5.24L39.382 32.25l-4.266-6.815zM10.92 39.148c-.922-4.208-.188-8.907 5.65-12.036l4.57 9.56-10.22 2.477z"/></svg>