<svg xmlns="http://www.w3.org/2000/svg" width="64" height="64" viewBox="0 0 64 64"><path d="M53.25 0h-42.5C4.838 0 0 4.838 0 10.75v42.5C0 59.163 4.838 64 10.75 64h42.5C59.163 64 64 59.163 64 53.25v-42.5C64 4.838 59.163 0 53.25 0zM60 48H36V33.25s4.396.063 6.75 2.5V40h9.65c-.738-2.368-2.316-4.694-4.57-6.666-3.874-3.39-10.2-5.084-15.83-5.084V48H4v-6c0-2.712.916-5.41 2.648-7.797 1.537-2.12 3.68-3.99 6.366-5.557 3.152-1.84 6.91-3.17 10.986-3.924V16h8v8c9.188 0 13.85 1.65 18.986 4.645 2.687 1.568 4.83 3.437 6.366 5.557C59.084 36.592 60 39.287 60 42v6zm-47.526-8c.74-2.368 2.317-4.694 4.57-6.666C19.017 31.61 21.397 30.26 24 29.35V40H12.474z"/></svg>