<svg xmlns="http://www.w3.org/2000/svg" width="64" height="64" viewBox="0 0 64 64"><path d="M44 18c0-3.314 2.686-6 6-6s6 2.686 6 6-2.686 6-6 6-6-2.686-6-6zm15.9-9.9c-5.467-5.466-14.332-5.466-19.8 0-2.223 2.225-3.542 5.01-3.957 7.9L23.35 35.39c-1.72.087-3.424.525-4.998 1.312l-9.868-7.714c-2.284-1.786-5.584-1.38-7.37.903s-1.38 5.585.903 7.37l9.746 7.62c-1.06 4.173.042 8.783 3.308 12.05 4.933 4.93 12.928 4.93 17.86 0 3.028-3.03 4.196-7.215 3.504-11.136L52 31.857c2.89-.415 5.676-1.734 7.9-3.958 5.467-5.468 5.467-14.333 0-19.8zM24 56.42c-4.65 0-8.42-3.77-8.42-8.42 0-.044.004-.088.004-.133l4.182 3.27c.96.75 2.1 1.113 3.23 1.113 1.56 0 3.105-.693 4.14-2.017 1.786-2.284 1.38-5.584-.903-7.37l-3.97-3.102c.56-.116 1.14-.18 1.736-.18 4.648 0 8.418 3.77 8.418 8.42s-3.77 8.42-8.42 8.42zM50 28c-5.523 0-10-4.477-10-10S44.477 8 50 8s10 4.477 10 10-4.477 10-10 10z"/></svg>