<svg xmlns="http://www.w3.org/2000/svg" width="64" height="64" viewBox="0 0 64 64"><path d="M18.995 52.25c1.697 0 3.362-.82 4.373-2.337 1.608-2.413.956-5.672-1.456-7.28l-4.13-2.754c.707-.194 1.45-.298 2.217-.298 4.648 0 8.418 3.77 8.418 8.42s-3.77 8.418-8.42 8.418c-4.524 0-8.214-3.57-8.408-8.048l4.497 2.998c.895.597 1.907.882 2.907.882zM53.335 0C59.2 0 64 4.8 64 10.668v42.664C64 59.202 59.2 64 53.334 64H10.668C4.8 64 0 59.203 0 53.332v-12.69L7.583 45.7c-.728 3.947.434 8.176 3.487 11.23 4.93 4.93 12.927 4.93 17.858 0 3.03-3.03 4.197-7.214 3.505-11.135L48 31.858c2.89-.415 5.675-1.734 7.9-3.958 5.466-5.467 5.466-14.332 0-19.8s-14.333-5.466-19.8 0c-2.224 2.225-3.543 5.01-3.958 7.9L19.35 35.39c-1.992.1-3.962.672-5.734 1.71L0 28.024V10.667C0 4.8 4.8 0 10.666 0h42.666zM56 18c0-5.523-4.477-10-10-10s-10 4.477-10 10 4.477 10 10 10 10-4.477 10-10zm-16 0c0-3.314 2.686-6 6-6s6 2.686 6 6-2.686 6-6 6-6-2.686-6-6z"/></svg>