<svg xmlns="http://www.w3.org/2000/svg" width="64" height="64" viewBox="0 0 64 64"><path d="M21.93 51.774c-3.768-.94-5.867-3.936-5.874-8.38-.002-1.42.1-2.1.455-3.014.87-2.24 3.172-3.93 6.2-4.55 1.506-.31 1.97-.643 1.97-1.412 0-.24.18-.96.4-1.597.995-2.893 2.838-5.306 4.808-6.293 2.062-1.033 3.103-1.266 5.597-1.253 3.542.02 5.31.787 7.78 3.383l1.36 1.428 1.218-.42c5.894-2.04 11.77 1.43 12.243 7.234l.13 1.586 1.16.416c3.316 1.188 4.873 3.68 4.59 7.347-.184 2.396-1.305 4.31-3.08 5.26l-.835.447-18.55.036c-14.256.028-18.788-.023-19.57-.22zm-15.48-2.65c-2.26-.57-4.656-2.68-5.78-5.093C.035 42.663 0 42.46 0 40.04c0-2.305.054-2.675.562-3.82 1.07-2.41 3.118-4.153 5.69-4.837.542-.145 1.052-.375 1.132-.512s.17-.884.2-1.66c.178-4.826 3.173-9.077 7.356-10.442 2.26-.738 5.223-.806 7.68.233.78.33.693.4 2.34-1.883.976-1.35 2.82-2.78 4.432-3.636 1.74-.923 3.55-1.348 5.713-1.342 6.048.016 11.26 4.014 13.188 10.115.616 1.95.585 2.495-.14 2.51-.318.008-1.226.193-2.02.41l-1.44.398-1.317-1.39c-3.71-3.92-9.765-4.768-14.912-2.087-2.056 1.07-3.71 2.61-4.957 4.613-.89 1.43-2.024 4.094-2.024 4.756 0 .47-.36.704-1.896 1.236-4.756 1.648-7.532 5.455-7.53 10.326 0 1.773.433 3.942 1.033 5.185.226.467.352.913.28.99-.184.193-6.1.128-6.918-.078z"/></svg>