<svg xmlns="http://www.w3.org/2000/svg" width="64" height="64" viewBox="0 0 64 64"><path d="M32 .79c-17.67 0-32 14.326-32 32 0 14.138 9.17 26.133 21.884 30.365 1.6.296 2.187-.694 2.187-1.54 0-.762-.03-3.283-.043-5.957-8.903 1.936-10.78-3.776-10.78-3.776-1.456-3.7-3.554-4.682-3.554-4.682-2.903-1.986.22-1.945.22-1.945 3.212.226 4.904 3.298 4.904 3.298 2.855 4.892 7.486 3.477 9.313 2.66.287-2.068 1.116-3.48 2.032-4.28-7.108-.808-14.58-3.552-14.58-15.814 0-3.495 1.25-6.35 3.297-8.59-.333-.806-1.43-4.06.308-8.47 0 0 2.688-.86 8.802 3.282 2.552-.71 5.29-1.065 8.01-1.077 2.72.012 5.46.368 8.016 1.077 6.108-4.14 8.79-3.28 8.79-3.28 1.743 4.407.648 7.662.316 8.468 2.05 2.24 3.293 5.096 3.293 8.59 0 12.29-7.486 14.996-14.612 15.788 1.148.993 2.17 2.94 2.17 5.926 0 4.282-.037 7.728-.037 8.782 0 .852.576 1.85 2.198 1.535C54.842 58.916 64 46.925 64 32.79c0-17.674-14.328-32-32-32z"/></svg>