<svg xmlns="http://www.w3.org/2000/svg" width="64" height="64" viewBox="0 0 64 64"><path d="M0 34.776c0 2.9.27 5.524.814 7.87s1.294 4.387 2.253 6.12 2.18 3.254 3.662 4.568c1.48 1.315 3.087 2.39 4.818 3.224s3.71 1.512 5.93 2.034c2.222.522 4.49.887 6.807 1.096s4.86.313 7.636.313c2.797 0 5.353-.103 7.668-.312s4.59-.574 6.822-1.096 4.22-1.2 5.962-2.034c1.742-.835 3.36-1.91 4.85-3.224s2.724-2.838 3.694-4.57 1.726-3.77 2.27-6.117c.54-2.347.813-4.97.813-7.87 0-5.175-1.733-9.65-5.196-13.427.188-.5.36-1.07.516-1.706s.303-1.544.438-2.723c.136-1.178.084-2.54-.157-4.083s-.682-3.12-1.33-4.726l-.468-.093c-.334-.063-.882-.047-1.643.047s-1.65.282-2.66.563c-1.013.282-2.317.824-3.913 1.627s-3.28 1.81-5.054 3.02c-3.046-.835-7.23-1.252-12.55-1.252-5.3 0-9.472.417-12.518 1.252-1.773-1.21-3.47-2.217-5.086-3.02s-2.906-1.346-3.866-1.627c-.96-.282-1.857-.464-2.69-.548S6.46 7.97 6.243 8s-.392.07-.517.11c-.647 1.608-1.09 3.183-1.33 4.727s-.292 2.905-.157 4.084.282 2.087.438 2.724c.157.636.33 1.205.516 1.706C1.73 25.126 0 29.602 0 34.776zm7.855 7.855c0-3.003 1.367-5.757 4.1-8.26.814-.752 1.763-1.32 2.848-1.707s2.31-.605 3.677-.657c1.367-.052 2.676-.042 3.928.03s2.796.173 4.632.298c1.836.125 3.422.188 4.757.188s2.92-.063 4.757-.188c1.836-.125 3.38-.224 4.632-.297s2.56-.084 3.928-.03c1.367.05 2.592.27 3.677.656s2.035.954 2.85 1.706c2.732 2.46 4.1 5.215 4.1 8.26 0 1.795-.225 3.386-.674 4.774s-1.022 2.55-1.72 3.49-1.67 1.736-2.91 2.393c-1.242.657-2.452 1.163-3.63 1.518s-2.693.63-4.54.83c-1.846.197-3.494.317-4.944.36s-3.29.062-5.524.062-4.074-.02-5.524-.063c-1.45-.042-3.098-.162-4.945-.36s-3.36-.475-4.54-.83c-1.178-.354-2.388-.86-3.63-1.517s-2.21-1.455-2.91-2.394c-.698-.94-1.272-2.102-1.72-3.49s-.673-2.977-.673-4.772zM40 42c0-3.314 1.79-6 4-6s4 2.686 4 6-1.79 6-4 6-4-2.686-4-6zm-24 0c0-3.314 1.79-6 4-6s4 2.686 4 6-1.79 6-4 6-4-2.686-4-6z"/></svg>