<svg xmlns="http://www.w3.org/2000/svg" width="64" height="64" viewBox="0 0 64 64"><path d="M32 51.993c-1.197 0-2.394-.62-3.634-1.86-.488-.487-.488-1.28 0-1.767s1.28-.488 1.768 0c.763.763 1.373 1.134 1.866 1.134s1.103-.37 1.866-1.134c.488-.488 1.28-.488 1.768 0s.488 1.28 0 1.768c-1.24 1.24-2.437 1.86-3.634 1.86zM0 32.843c0 3.118.267 5.945.8 8.48s1.283 4.734 2.25 6.596c.967 1.86 2.19 3.493 3.667 4.895s3.083 2.557 4.817 3.466c1.733.91 3.717 1.645 5.95 2.205s4.505.953 6.817 1.178 4.857.337 7.634.337c2.778 0 5.328-.112 7.65-.336s4.6-.617 6.833-1.178c2.233-.56 4.222-1.296 5.967-2.204s3.36-2.064 4.85-3.466c1.49-1.402 2.717-3.034 3.683-4.896s1.722-4.06 2.267-6.596c.544-2.535.817-5.362.817-8.48 0-5.586-1.732-10.398-5.2-14.436.2-.538.373-1.155.518-1.85s.283-1.678.416-2.945c.134-1.268.084-2.732-.15-4.39s-.672-3.355-1.317-5.082l-.5-.1c-.333-.067-.878-.045-1.633.067s-1.64.314-2.65.606-2.317.87-3.917 1.733-3.29 1.957-5.067 3.28c-3.022-.92-7.19-1.88-12.5-1.88s-9.49.96-12.533 1.88c-1.778-1.323-3.472-2.41-5.083-3.263s-2.9-1.436-3.867-1.75c-.967-.314-1.86-.516-2.683-.606s-1.35-.118-1.583-.084c-.232.034-.404.073-.516.118C5.09 5.87 4.644 7.563 4.4 9.224s-.3 3.118-.166 4.375c.133 1.256.278 2.244.433 2.96S5 17.895 5.2 18.41C1.733 22.426 0 27.238 0 32.846zm8.534 7.12c0-3.626 1.333-6.915 4-9.866.8-.9 1.728-1.582 2.783-2.044s2.256-.725 3.6-.788 2.628-.05 3.85.038 2.733.206 4.533.356 3.355.224 4.667.224c1.31 0 2.867-.075 4.666-.225s3.31-.27 4.534-.357c1.222-.087 2.506-.1 3.85-.038s2.55.325 3.617.788c1.067.462 2 1.144 2.8 2.044 2.666 2.95 4 6.24 4 9.866 0 2.126-.222 4.02-.667 5.683s-1.006 3.057-1.683 4.183c-.678 1.125-1.628 2.075-2.85 2.85s-2.406 1.376-3.55 1.8c-1.145.426-2.622.758-4.433.995s-3.432.38-4.866.43c-1.433.05-3.24.076-5.416.076s-3.978-.024-5.4-.074c-1.422-.05-3.04-.194-4.85-.43s-3.29-.57-4.433-.995c-1.144-.424-2.328-1.024-3.55-1.8s-2.172-1.726-2.85-2.85c-.678-1.126-1.24-2.52-1.683-4.184s-.667-3.558-.667-5.683zM16 38c0-3.314 1.79-6 4-6s4 2.686 4 6-1.79 6-4 6-4-2.686-4-6zm24 0c0-3.314 1.79-6 4-6s4 2.686 4 6-1.79 6-4 6-4-2.686-4-6z"/></svg>