<svg xmlns="http://www.w3.org/2000/svg" width="64" height="64" viewBox="0 0 64 64"><path d="M32 0C14.327 0 0 14.327 0 32s14.327 32 32 32 32-14.327 32-32S49.673 0 32 0zm19.004 51.004c-2.47 2.47-5.344 4.408-8.544 5.762-.813.344-1.638.645-2.475.906v-4.796c0-2.52-.865-4.375-2.594-5.563 1.084-.104 2.08-.25 2.985-.438s1.865-.458 2.875-.813 1.917-.776 2.72-1.266 1.572-1.125 2.312-1.906 1.36-1.667 1.86-2.656.895-2.177 1.187-3.563.437-2.91.437-4.577c0-3.23-1.052-5.98-3.156-8.25.96-2.5.855-5.22-.312-8.156l-.78-.094c-.543-.063-1.517.167-2.923.688s-2.984 1.376-4.734 2.564c-2.478-.688-5.05-1.03-7.718-1.03-2.688 0-5.25.343-7.688 1.03-1.104-.75-2.15-1.37-3.14-1.86s-1.782-.822-2.376-1-1.146-.286-1.656-.327-.838-.052-.984-.03-.25.04-.313.062c-1.167 2.957-1.27 5.676-.313 8.155-2.104 2.27-3.156 5.02-3.156 8.25 0 1.667.146 3.193.438 4.578s.688 2.573 1.188 3.563 1.12 1.875 1.86 2.656 1.51 1.417 2.312 1.906 1.708.91 2.72 1.266 1.968.625 2.874.813 1.9.333 2.984.438c-1.708 1.167-2.563 3.02-2.563 5.563v4.89c-.945-.282-1.875-.614-2.79-1-3.2-1.353-6.073-3.292-8.543-5.762S8.59 45.66 7.235 42.462c-1.4-3.31-2.11-6.83-2.11-10.46s.71-7.148 2.11-10.458c1.353-3.2 3.292-6.074 5.762-8.544s5.344-4.408 8.544-5.762c3.31-1.4 6.83-2.11 10.46-2.11s7.15.71 10.46 2.11c3.2 1.353 6.073 3.292 8.543 5.762s4.408 5.345 5.762 8.544c1.4 3.31 2.11 6.83 2.11 10.46s-.71 7.148-2.11 10.458c-1.353 3.2-3.292 6.074-5.762 8.544z"/></svg>