<svg xmlns="http://www.w3.org/2000/svg" width="64" height="64" viewBox="0 0 64 64"><path d="M14.705 15.545c-3.175 0-5.905 1.05-8.193 3.15-2.38 2.242-3.57 5.042-3.57 8.403 0 2.24.647 4.34 1.955 6.302 1.167 1.82 2.386 2.988 3.986 3.502v.14c-1.6.653-2.31 2.287-2.31 4.9 0 2.01.71 3.502 2.31 4.483v.14c-4.416 1.447-6.437 4.13-6.437 8.052 0 3.408 1.484 5.906 4.38 7.492C9.11 63.37 12.048 64 15.595 64c8.637 0 12.964-3.618 12.964-10.854 0-4.528-3.333-7.305-10.008-8.332-1.54-.233-2.705-.794-3.5-1.68-.606-.608-.908-1.215-.908-1.82 0-1.728.935-2.732 2.8-3.012 2.848-.42 5.172-1.74 6.97-3.956s2.695-4.82 2.695-7.807c0-.935-.283-1.938-.656-3.012 1.214-.28 2.066-.537 2.706-.77v-7.213c-2.816 1.12-5.437 1.68-7.678 1.68-1.96-1.12-3.99-1.68-6.276-1.68zm.77 34.94c3.92 0 5.882 1.19 5.882 3.572 0 2.52-1.797 3.78-5.392 3.78-4.108 0-6.162-1.213-6.162-3.64 0-2.474 1.89-3.71 5.672-3.71zM14.985 32c-2.94 0-4.412-1.61-4.412-4.832 0-3.454 1.47-5.182 4.412-5.182 1.4 0 2.497.537 3.29 1.61.655.98.982 2.148.982 3.5 0 3.268-1.424 4.903-4.27 4.903zm21.29-32c-1.354 0-2.51.513-3.467 1.54s-1.436 2.264-1.436 3.71c0 1.402.48 2.615 1.436 3.642s2.112 1.54 3.466 1.54c1.307 0 2.44-.513 3.396-1.54s1.435-2.24 1.435-3.64c0-1.448-.478-2.685-1.435-3.712S37.58 0 36.274 0zm3.92 16h-7.912c.093.896-.04 2.253-.04 4.446v21.777c0 2.24.133 4.048.04 4.752h7.913c-.094-1.023-.337-2.792-.337-5.172V20.306c0-2.054.242-3.41.336-4.306zm17.45 24.263c-2.053 0-3.067-1.564-3.067-4.692V22.657h3.117c.56 0 1.065-.03 1.695.015s.885.017 1.205.017V16H54.58v-2.976c0-1.12.175-2.144.315-2.784h-8.122c.14.64.127 1.617.127 2.924V16h-3.52v6.686c.96-.14 1.818-.21 2.425-.21l1.095.07V35.22c0 3.92.497 6.792 1.477 8.612 1.308 2.428 3.6 3.64 7.008 3.64 2.428 0 4.57-.466 6.17-1.4V39.07c-1.28.794-2.46 1.19-3.908 1.19z"/></svg>