<svg xmlns="http://www.w3.org/2000/svg" width="64" height="64" viewBox="0 0 64 64"><path d="M8 32c0 9.252 5.52 17.248 13.527 21.036l-11.45-30.55C8.748 25.395 8 28.612 8 32zm40.202-1.18c0-2.89-1.066-4.89-1.978-6.446-1.216-1.926-2.358-3.556-2.358-5.482 0-2.148 1.673-4.15 4.03-4.15.106 0 .208.014.31.02-4.27-3.81-9.958-6.137-16.206-6.137-8.385 0-15.762 4.19-20.053 10.536.563.02 1.094.03 1.544.03 2.51 0 6.397-.298 6.397-.298 1.293-.074 1.446 1.777.154 1.926 0 0-1.3.148-2.746.222l8.74 25.32 5.253-15.342-3.74-9.978c-1.292-.074-2.516-.222-2.516-.222-1.293-.075-1.14-2 .153-1.926 0 0 3.962.297 6.32.297 2.51 0 6.398-.298 6.398-.298 1.295-.074 1.447 1.777.154 1.926 0 0-1.302.148-2.747.222l8.674 25.126 2.396-7.79c1.036-3.234 1.826-5.556 1.826-7.556zm-15.78 3.224l-7.203 20.38c2.15.615 4.424.95 6.78.95 2.794 0 5.474-.47 7.97-1.324-.065-.1-.124-.206-.173-.322L32.42 34.044zM53.06 20.786c.103.744.162 1.543.162 2.404 0 2.37-.456 5.037-1.825 8.372l-7.33 20.642C51.202 48.152 56 40.624 56 32c0-4.064-1.065-7.885-2.94-11.214zM32 0C14.327 0 0 14.327 0 32s14.327 32 32 32 32-14.327 32-32S49.673 0 32 0zm0 60C16.536 60 4 47.464 4 32S16.536 4 32 4s28 12.536 28 28-12.536 28-28 28z"/></svg>