<svg xmlns="http://www.w3.org/2000/svg" width="64" height="64" viewBox="0 0 64 64"><path d="M32.42 34.044L39.8 53.728c.05.116.108.222.172.322-2.495.855-5.175 1.325-7.97 1.325-2.356 0-4.63-.336-6.78-.952l7.202-20.38zM56 32c0 8.623-4.798 16.152-11.934 20.204l7.33-20.642c1.37-3.335 1.825-6 1.825-8.372 0-.86-.058-1.66-.16-2.404C54.932 24.116 56 27.936 56 32zM8 32c0-3.39.746-6.606 2.078-9.513l11.45 30.55C13.52 49.246 8 41.25 8 32zm3.948-12.84C16.238 12.815 23.616 8.624 32 8.624c6.25 0 11.938 2.327 16.208 6.137-.103-.005-.204-.018-.31-.018-2.36 0-4.03 2-4.03 4.15 0 1.925 1.14 3.555 2.357 5.48.913 1.558 1.978 3.558 1.978 6.447 0 2-.79 4.32-1.826 7.555l-2.395 7.79-8.674-25.126c1.445-.075 2.747-.223 2.747-.223 1.293-.15 1.14-2-.153-1.926 0 0-3.888.298-6.397.298-2.358 0-6.32-.297-6.32-.297-1.295-.073-1.447 1.853-.153 1.927 0 0 1.224.148 2.517.222l3.738 9.977-5.253 15.34-8.74-25.318c1.446-.075 2.747-.223 2.747-.223 1.292-.15 1.14-2-.154-1.926 0 0-3.887.298-6.396.298-.45 0-.98-.01-1.544-.028zM53.25 0h-42.5C4.838 0 0 4.838 0 10.75v42.5C0 59.163 4.838 64 10.75 64h42.5C59.163 64 64 59.163 64 53.25v-42.5C64 4.838 59.163 0 53.25 0zM60 32c0 15.464-12.536 28-28 28S4 47.464 4 32 16.536 4 32 4s28 12.536 28 28z"/></svg>