<svg xmlns="http://www.w3.org/2000/svg" width="64" height="64" viewBox="0 0 64 64"><path d="M16.625 17.292C18.677 15.24 22 15.24 24.05 17.29l.49.492 6.318-6.322-.492-.492C26.764 7.362 21.71 6.1 17.09 7.185 16.428 3.11 12.897.002 8.642 0 3.914 0 .082 3.84.082 8.572c0 4.084 2.848 7.5 6.665 8.364C5.3 21.776 6.482 27.238 10.3 31.06l14.24 14.244 6.31-6.326-14.237-14.243c-2.043-2.045-2.046-5.383.012-7.443zm47.294-8.72C63.92 3.837 60.086 0 55.356 0c-4.327 0-7.905 3.215-8.48 7.39-4.817-1.417-10.236-.218-14.04 3.588l-14.24 14.244 6.32 6.323 14.234-14.24c2.06-2.06 5.375-2.058 7.42-.013 2.05 2.052 2.05 5.382-.003 7.435l-.487.49 6.313 6.328.49-.495c3.78-3.785 4.98-9.172 3.602-13.977 4.197-.552 7.434-4.148 7.434-8.5zm-7.278 38.37c1.13-4.655-.123-9.77-3.757-13.407l-14.218-14.25-6.32 6.32 14.22 14.252c2.06 2.062 2.055 5.38.012 7.428-2.05 2.05-5.376 2.05-7.428-.002l-.485-.487-6.312 6.328.483.483c3.845 3.85 9.35 5.027 14.21 3.53.79 3.918 4.246 6.863 8.39 6.863 4.726 0 8.56-3.834 8.56-8.57 0-4.325-3.198-7.904-7.357-8.488zm-18.37-13.9l-14.22 14.25c-2.045 2.048-5.378 2.052-7.435-.008-2.05-2.056-2.052-5.38-.003-7.436l.488-.486-6.318-6.32-.483.482C6.63 37.2 5.39 42.39 6.586 47.084 2.81 47.977 0 51.375 0 55.43c0 4.734 3.833 8.57 8.56 8.57 4.07-.002 7.475-2.84 8.347-6.65 4.67 1.16 9.812-.08 13.46-3.734l14.217-14.248-6.313-6.326z"/></svg>