<svg xmlns="http://www.w3.org/2000/svg" width="64" height="64" viewBox="0 0 64 64"><path d="M53.334 0h-42.67C4.775 0 0 4.776 0 10.668v42.665C0 59.225 4.773 64 10.664 64h42.67C59.224 64 64 59.226 64 53.334V10.668C64 4.778 59.225 0 53.334 0zM56 40.506C56 49.068 49.032 56 40.41 56h-16.8C14.992 56 8 49.068 8 40.506V23.5C8.006 14.937 14.992 8 23.61 8h7.866C40.098 8 47 14.438 47 23c.114 1.606 1.56 3 3.207 3h2.69c1.724 0 3.104 1.808 3.104 3.52v10.987zM44 40c0 2.2-1.8 4-4 4H24c-2.2 0-4-1.8-4-4s1.8-4 4-4h16c2.2 0 4 1.8 4 4zm-8-16c0 2.2-1.8 4-4 4h-8c-2.2 0-4-1.8-4-4s1.8-4 4-4h8c2.2 0 4 1.8 4 4z"/></svg>