<svg xmlns="http://www.w3.org/2000/svg" width="64" height="64" viewBox="0 0 64 64"><path d="M36.002 28v14.636c0 3.714-.048 5.853.346 6.906.39 1.047 1.37 2.134 2.437 2.763 1.418.85 3.034 1.273 4.857 1.273 3.24 0 5.155-.428 8.36-2.534v9.62c-2.732 1.286-5.118 2.038-7.334 2.56-2.22.514-4.616.774-7.19.774-2.928 0-4.655-.368-6.902-1.103-2.247-.742-4.166-1.8-5.75-3.16-1.592-1.37-2.69-2.824-3.304-4.363s-.92-3.776-.92-6.703V26.224h-8.59v-9.063c2.514-.815 5.324-1.987 7.112-3.51 1.797-1.527 3.235-3.356 4.32-5.496C24.53 6.022 25.276 3.3 25.683 0h10.32v16H52v12H36.004z"/></svg>