<svg xmlns="http://www.w3.org/2000/svg" width="64" height="64" viewBox="0 0 64 64"><path d="M53.336 0H10.668C4.8 0 0 4.8 0 10.668v42.664C0 59.202 4.8 64 10.668 64h42.668C59.203 64 64 59.203 64 53.332V10.668C64 4.8 59.203 0 53.336 0zm-7.604 51.543c-1.885.887-3.596 1.512-5.125 1.87-1.53.357-3.185.536-4.963.536-2.02 0-3.21-.255-4.762-.763-1.55-.512-2.875-1.242-3.97-2.18-1.096-.945-1.854-1.95-2.278-3.01S24 45.39 24 43.37V27.884h-6V21.63c1.733-.564 3.745-1.372 4.98-2.423 1.24-1.055 2.23-2.316 2.98-3.793.75-1.473 1.265-3.352 1.546-5.63h6.28V20H44v7.883h-10.21v11.324c0 2.563-.034 4.04.238 4.766.27.722.945 1.472 1.68 1.906.98.585 2.095.878 3.353.878 2.236 0 4.46-.727 6.67-2.18v6.965z"/></svg>