<svg xmlns="http://www.w3.org/2000/svg" width="64" height="64" viewBox="0 0 64 64"><path d="M35.478 46.057c-5.122 2.382-9.885 2.357-13.084 2.126-3.816-.276-6.885-1.32-8.234-2.233-.83-.563-1.96-.345-2.524.486s-.345 1.962.486 2.524c2.17 1.468 6.004 2.56 10.01 2.85.68.048 1.425.08 2.228.08 3.486 0 7.914-.333 12.65-2.537.91-.424 1.306-1.505.883-2.415s-1.505-1.304-2.415-.882zm20.206-2.693C55.858 27.57 57.482-2.274 27.248.138-2.602 2.54 5.313 34.073 4.868 44.635 4.474 50.222 2.618 57.05-.002 64h8.07c.83-2.945 1.44-5.858 1.702-8.634.486.34 1.007.667 1.562.98.904.533 1.68 1.24 2.502 1.99 1.92 1.752 4.1 3.737 8.357 3.985.287.017.574.026.856.026 4.306 0 7.25-1.885 9.617-3.4 1.134-.725 2.114-1.35 3.035-1.652 2.62-.82 4.908-2.144 6.62-3.828.266-.263.514-.534.747-.81.953 3.493 2.257 7.423 3.706 11.345H64c-4.137-6.388-8.403-12.647-8.317-20.635zM7.757 34.772v-.003c-.297-5.155 2.17-9.49 5.508-9.685s6.285 3.827 6.582 8.98v.004c.016.277.023.552.023.824-1.058.266-2.012.652-2.867 1.102l-.01-.114v-.002c-.285-2.926-1.847-5.135-3.49-4.935s-2.742 2.734-2.457 5.66v.002c.124 1.276.492 2.415 1.003 3.278-.128.1-.487.363-.9.666l-1.146.84c-1.243-1.63-2.094-3.974-2.246-6.618zm33.822 12.74c-.12 2.723-3.683 5.286-6.975 6.314l-.02.006c-1.368.444-2.588 1.225-3.88 2.052-2.17 1.39-4.415 2.825-7.658 2.825-.213 0-.43-.008-.645-.02-2.97-.174-4.36-1.44-6.117-3.042-.928-.845-1.887-1.72-3.123-2.445l-.027-.015c-2.67-1.507-4.326-3.38-4.432-5.012-.053-.81.31-1.514 1.074-2.087 1.665-1.25 2.78-2.065 3.518-2.605.82-.6 1.067-.78 1.25-.954.13-.123.273-.26.425-.41 1.528-1.485 4.085-3.972 8.01-3.972 2.4 0 5.055.925 7.885 2.744 1.333.867 2.493 1.268 3.96 1.775 1.01.35 2.155.744 3.688 1.4l.025.01c1.43.588 3.118 1.66 3.04 3.433zm-.79-6.4c-.275-.137-.56-.27-.86-.392-1.38-.59-2.488-.992-3.407-1.312.507-.993.822-2.233.852-3.578v-.002c.07-3.273-1.58-5.93-3.687-5.936s-3.872 2.645-3.942 5.918v.002c-.002.107-.003.214 0 .32-1.3-.598-2.575-1.032-3.824-1.298-.006-.123-.013-.246-.015-.37v-.003c-.12-5.962 3.538-10.898 8.172-11.024s8.488 4.606 8.61 10.57v.002c.055 2.697-.666 5.18-1.898 7.105z"/></svg>