<svg xmlns="http://www.w3.org/2000/svg" width="64" height="64" viewBox="0 0 64 64"><path d="M49.47 34.006c-.082-8.105 6.61-11.992 6.908-12.185-3.76-5.5-9.616-6.254-11.703-6.34-4.984-.506-9.725 2.933-12.254 2.933-2.522 0-6.425-2.86-10.558-2.784-5.432.08-10.44 3.158-13.238 8.023C2.98 33.447 7.18 47.956 12.68 55.898c2.688 3.888 5.893 8.255 10.102 8.1 4.053-.163 5.585-2.623 10.485-2.623s6.277 2.622 10.566 2.542c4.36-.08 7.124-3.962 9.793-7.862 3.087-4.51 4.358-8.877 4.433-9.102-.098-.044-8.505-3.265-8.59-12.946zM41.41 10.22C43.644 7.51 45.15 3.75 44.74 0c-3.217.13-7.117 2.143-9.426 4.847-2.07 2.398-3.884 6.227-3.398 9.902 3.592.28 7.258-1.826 9.494-4.53z"/></svg>