<svg xmlns="http://www.w3.org/2000/svg" width="64" height="64" viewBox="0 0 64 64"><path d="M35.577 48.64v-.007.008zM35.662 50.91c0-.016 0-.03-.002-.045 0 .015 0 .03.002.044zM35.613 49.77v-.033.033zM60 0H4C1.8 0 0 1.8 0 4v56c0 2.2 1.8 4 4 4h56c2.2 0 4-1.8 4-4V4c0-2.2-1.8-4-4-4zM12 14c0-1.104.896-2 2-2s2 .896 2 2v4c0 1.105-.896 2-2 2s-2-.895-2-2v-4zm48 46H36.56c-.42-2.63-.683-5.342-.838-7.975v.022c-1.23.134-2.473.204-3.722.204-8.353 0-16.4-3.04-22.655-8.562-.932-.822-1.02-2.244-.198-3.176s2.244-1.02 3.176-.198C17.757 45.11 24.745 47.75 32 47.75c1.193 0 2.378-.072 3.55-.213-.136-7.387.43-13.245.44-13.338.056-.563-.128-1.123-.507-1.542S34.565 32 34 32h-5.948c.087-2.163.318-5.863.935-10.012 1.18-7.922 3.25-14.11 6.01-17.988H60v56zM50 20c-1.105 0-2-.895-2-2v-4c0-1.104.895-2 2-2s2 .896 2 2v4c0 1.105-.895 2-2 2zM33.78 52.202c-.227.012-.455.02-.684.028.23-.007.457-.017.685-.028zM32 52.25c.293 0 .586-.005.878-.012-.292.008-.585.012-.878.012zM33.692 47.7l.147-.008-.148.008zM32.818 47.737l.2-.007-.2.007zM54.853 40.51c-.822-.93-2.244-1.02-3.176-.197-4.54 4.007-10.166 6.508-16.126 7.223.028 1.455.082 2.968.173 4.51 6.997-.763 13.612-3.663 18.932-8.36.932-.82 1.02-2.243.198-3.175zM35.72 52.047c-.29.03-.577.06-.866.083.29-.024.578-.05.865-.083zM34.718 52.14c-.244.02-.49.036-.734.05.245-.014.49-.03.734-.05z"/></svg>