<svg xmlns="http://www.w3.org/2000/svg" width="64" height="64" viewBox="0 0 64 64"><path d="M56 24c-2.2 0-4 1.8-4 4v16c0 2.2 1.8 4 4 4s4-1.8 4-4V28c0-2.2-1.8-4-4-4zM8 24c-2.2 0-4 1.8-4 4v16c0 2.2 1.8 4 4 4s4-1.8 4-4V28c0-2.2-1.8-4-4-4zm6 22c0 3.314 2.686 6 6 6v8c0 2.2 1.8 4 4 4s4-1.8 4-4v-8h8v8c0 2.2 1.8 4 4 4s4-1.8 4-4v-8c3.314 0 6-2.686 6-6V24H14v22zM49.89 20c-.608-5.493-3.69-10.237-8.102-13.103l2.002-4.003c.494-.988.093-2.19-.894-2.683s-2.19-.092-2.683.895l-2.01 4.018-.52-.207C35.896 4.322 33.986 4 32.002 4s-3.896.322-5.682.916l-.52.207-2.01-4.018C23.296.117 22.095-.283 21.107.21s-1.388 1.696-.895 2.684l2 4.003C17.8 9.763 14.72 14.507 14.113 20v2h35.89v-2h-.112zM26 16c-1.105 0-2-.896-2-2 0-1.103.893-1.997 1.996-2H26.005c1.102.003 1.995.897 1.995 2 0 1.104-.895 2-2 2zm12 0c-1.105 0-2-.896-2-2 0-1.103.893-1.997 1.995-2H38.004c1.102.002 1.996.897 1.996 2 0 1.104-.895 2-2 2z"/></svg>