<svg xmlns="http://www.w3.org/2000/svg" width="64" height="64" viewBox="0 0 64 64"><path d="M25.764 31.995c-2.982-1.532-5.88-2.31-8.617-2.31-.372 0-.747.01-1.122.044-3.492.288-6.683 1.21-8.734 1.926-.543.2-1.1.41-1.676.644L0 51.762c3.856-1.427 7.268-2.12 10.392-2.12 5.053 0 8.72 1.887 11.75 3.83 1.435-4.87 4.878-16.63 5.905-20.145-.747-.455-1.505-.91-2.282-1.332zm7.258 4.947L27.37 56.576c1.676.96 7.318 4.003 11.637 4.003 3.487 0 7.39-.895 11.927-2.738L56.33 38.97c-3.663 1.182-7.18 1.78-10.465 1.78-5.997 0-10.195-1.943-12.843-3.808zM18.302 23.05c4.82.05 8.383 1.887 11.337 3.78l5.796-19.834c-1.222-.7-4.425-2.443-6.74-3.038-1.525-.355-3.127-.538-4.826-.538-3.237.06-6.774.872-10.806 2.488L7.537 25.32c4.05-1.527 7.54-2.27 10.755-2.27h.01zM64 12.382c-3.676 1.427-7.263 2.154-10.69 2.154-5.73 0-9.955-1.988-12.692-3.898L34.87 30.53c3.86 2.48 8.02 3.74 12.384 3.74 3.56 0 7.246-.854 10.966-2.542l-.01-.14.232-.054 5.56-19.15z"/></svg>