<svg xmlns="http://www.w3.org/2000/svg" width="64" height="64" viewBox="0 0 64 64"><path d="M53.336 0H10.668C4.8 0 0 4.8 0 10.668V40l1-4h2l1 4-1 4H1l-1-4v13.33C0 59.203 4.8 64 10.668 64h42.668C59.203 64 64 59.2 64 53.33V40.07c0 4.38-3.693 7.93-8.25 7.93-.146 0-22.846-.01-22.867-.012-.493-.048-.883-.452-.883-.937V21.88c0-.463.164-.702.786-.933 1.602-.596 3.408-.948 5.27-.948 7.607 0 13.843 5.605 14.5 12.753.982-.396 2.06-.616 3.19-.616 4.558 0 8.254 3.55 8.254 7.93v-29.4C64 4.8 59.203 0 53.336 0zM11 48H9l-1-8 1-8h2l1 8-1 8zm8 0h-2l-1-10.172L17 28h2l1 10-1 10zm8 0h-2l-1-14.014L25 20h2l1 13.986L27 48z"/></svg>