<svg xmlns="http://www.w3.org/2000/svg" width="64" height="64" viewBox="0 0 64 64"><path d="M60.957 36.12c.176-1.3.277-2.62.277-3.966 0-16.144-13.16-29.234-29.388-29.234-1.613 0-3.194.132-4.733.385C24.353 1.507 21.07.46 17.537.46 7.847.46 0 8.31 0 17.996c0 3.525 1.038 6.8 2.825 9.55-.24 1.5-.364 3.04-.364 4.606 0 16.147 13.153 29.235 29.387 29.235 1.832 0 3.616-.178 5.35-.492 2.694 1.67 5.867 2.644 9.268 2.644C56.153 63.54 64 55.687 64 46c0-3.66-1.12-7.065-3.042-9.88zM34.593 53.7c-9.338.486-13.708-1.58-17.71-5.336-4.472-4.196-2.676-8.982.967-9.225 3.64-.244 5.826 4.126 7.77 5.34 1.94 1.212 9.323 3.97 13.223-.488 4.247-4.854-2.824-7.365-8.007-8.125-7.4-1.096-16.744-5.1-16.017-12.988.726-7.885 6.697-11.928 12.98-12.498 8.01-.727 13.224 1.213 17.348 4.732 4.77 4.066 2.188 8.612-.85 8.978-3.026.364-6.425-6.688-13.1-6.794-6.877-.108-11.526 7.158-3.035 9.223 8.496 2.064 17.594 2.912 20.87 10.678 3.28 7.767-5.094 16.016-14.44 16.502z"/></svg>