<svg xmlns="http://www.w3.org/2000/svg" width="64" height="64" viewBox="0 0 64 64"><path d="M16 40c0-2.21 1.79-4 4-4s4 1.79 4 4-1.79 4-4 4-4-1.79-4-4zm24 0c0-2.21 1.79-4 4-4s4 1.79 4 4-1.79 4-4 4-4-1.79-4-4zm.194 8.55c1.03-.813 2.523-.636 3.335.395s.634 2.524-.397 3.335C40.265 54.54 35.893 56 32 56s-8.266-1.46-11.135-3.72c-1.03-.812-1.207-2.305-.396-3.336s2.304-1.207 3.334-.396c1.65 1.3 4.92 2.7 8.194 2.7s6.543-1.4 8.194-2.7zM64 32c0-4.418-3.582-8-8-8-3.007 0-5.624 1.66-6.99 4.114-4.113-2.25-9.123-3.703-14.58-4.038l4.773-10.72 9.137 2.637C49.162 18.327 51.385 20 54 20c3.314 0 6-2.686 6-6s-2.686-6-6-6c-2.285 0-4.27 1.278-5.285 3.157l-10.182-2.94c-1.14-.328-2.346.234-2.828 1.317L29.22 24.098c-5.322.375-10.205 1.814-14.228 4.015C13.625 25.66 11.007 24 8 24c-4.42 0-8 3.582-8 8 0 3.27 1.962 6.078 4.772 7.32C4.268 40.82 4 42.387 4 44c0 11.046 12.535 20 28 20s28-8.954 28-20c0-1.612-.27-3.18-.774-4.68C62.036 38.08 64 35.27 64 32zM54 11.75c1.243 0 2.25 1.007 2.25 2.25s-1.007 2.25-2.25 2.25-2.25-1.007-2.25-2.25 1.007-2.25 2.25-2.25zM4 32c0-2.206 1.794-4 4-4 1.594 0 2.973.938 3.615 2.29-2.09 1.585-3.823 3.414-5.104 5.42C5.04 35.12 4 33.68 4 32zm28 27.25C19.16 59.25 8.75 52.422 8.75 44S19.16 28.75 32 28.75 55.25 35.578 55.25 44 44.84 59.25 32 59.25zm25.49-23.538c-1.282-2.007-3.015-3.836-5.105-5.42C53.027 28.937 54.405 28 56 28c2.206 0 4 1.793 4 4 0 1.678-1.04 3.12-2.51 3.71z"/></svg>