<svg xmlns="http://www.w3.org/2000/svg" width="64" height="64" viewBox="0 0 64 64"><path d="M51.224 50.852c-6.667-.026-10.22-3.286-12.687-9.03l-.706-1.57-6.085-13.874c-2.018-4.912-7.026-8.23-12.677-8.23-7.646 0-13.85 6.203-13.85 13.855s6.204 13.854 13.85 13.854c5.334 0 9.97-3.016 12.286-7.438l2.46 5.676c-3.493 4.26-8.804 6.974-14.746 6.974C8.536 51.07 0 42.54 0 32.002 0 21.47 8.536 12.93 19.068 12.93c7.948 0 14.365 4.244 17.625 11.765.247.584 3.447 8.068 6.24 14.437 1.728 3.943 3.203 6.557 7.984 6.72 4.698.16 7.922-2.7 7.922-6.314 0-3.53-2.46-4.38-6.61-5.76-7.46-2.458-11.313-4.927-11.313-10.844 0-5.77 3.927-9.62 10.307-9.62 4.156 0 7.157 1.85 9.235 5.537l-4.08 2.084c-1.536-2.15-3.23-3-5.385-3-2.995 0-5.133 2.084-5.133 4.854 0 3.933 3.518 4.526 8.438 6.14C60.922 31.086 64 33.55 64 39.7c0 6.46-5.542 11.162-12.776 11.15z"/></svg>