<svg xmlns="http://www.w3.org/2000/svg" width="64" height="64" viewBox="0 0 64 64"><path d="M53.25 0h-42.5C4.838 0 0 4.838 0 10.75v42.5C0 59.163 4.838 64 10.75 64h42.5C59.163 64 64 59.163 64 53.25v-42.5C64 4.838 59.163 0 53.25 0zm-6.593 47.556c-11.097 0-14.946-5.004-16.998-11.225l-2.054-6.414c-1.54-4.683-3.336-8.34-8.98-8.34-3.914 0-7.89 2.823-7.89 10.713 0 6.157 3.143 10.006 7.57 10.006 5.003 0 8.34-3.72 8.34-3.72l2.052 5.58s-3.465 3.4-10.712 3.4c-8.98 0-13.984-5.26-13.984-15.01 0-10.135 5.004-16.1 14.433-16.1 8.532 0 12.83 3.078 15.523 11.417l2.117 6.414c1.54 4.683 4.233 8.083 10.712 8.083 4.362 0 6.67-.962 6.67-3.336 0-1.86-1.09-3.208-4.36-3.977l-4.362-1.026c-5.323-1.282-7.44-4.04-7.44-8.402 0-6.992 5.645-9.173 11.418-9.173 6.543 0 10.52 2.373 11.033 8.146l-6.415.77c-.256-2.757-1.924-3.912-5.002-3.912-2.823 0-4.554 1.283-4.554 3.464 0 1.924.834 3.08 3.656 3.72l4.105.9c5.517 1.282 8.468 3.977 8.468 9.172 0 6.415-5.39 8.852-13.343 8.852z"/></svg>