<svg xmlns="http://www.w3.org/2000/svg" width="64" height="64" viewBox="0 0 64 64"><path d="M53.25 0h-42.5C4.838 0 0 4.838 0 10.75v42.5C0 59.163 4.838 64 10.75 64h42.5C59.163 64 64 59.163 64 53.25v-42.5C64 4.838 59.163 0 53.25 0zM32 20c-2.206 0-4 1.794-4 4v16c0 6.617-5.383 12-12 12S4 46.617 4 40v-8h8v8c0 2.206 1.794 4 4 4s4-1.794 4-4V24c0-6.617 5.383-12 12-12s12 5.383 12 11.125V27l-5.125 1.5L36 27v-3.875C36 21.795 34.206 20 32 20zm28 20c0 6.617-5.383 12-12 12s-12-5.383-12-12.875v-7.75l2.875 1.5 5.125-1.5v7.75C44 42.205 45.794 44 48 44s4-1.794 4-4v-8h8v8z"/></svg>