<svg xmlns="http://www.w3.org/2000/svg" width="64" height="64" viewBox="0 0 64 64"><path d="M32 0C14.327 0 0 14.327 0 32s14.327 32 32 32 32-14.327 32-32S49.673 0 32 0zm0 16c-2.206 0-4 1.794-4 4v16c0 6.617-5.383 12-12 12S4 42.617 4 36v-8h8v8c0 2.206 1.794 4 4 4s4-1.794 4-4V20c0-6.617 5.383-12 12-12s12 5.383 12 11.125V23l-5.125 1.5L36 23v-3.875C36 17.795 34.206 16 32 16zm16 32c-6.617 0-12-5.383-12-12.875v-7.75l2.875 1.5 5.125-1.5v7.75C44 38.205 45.794 40 48 40s4-1.794 4-4v-8h8v8c0 6.617-5.383 12-12 12z"/></svg>