<svg xmlns="http://www.w3.org/2000/svg" width="64" height="64" viewBox="0 0 64 64"><path d="M32 0C14.327 0 0 14.327 0 32c0 13.557 8.434 25.135 20.338 29.798-.28-2.532-.532-6.415.11-9.18.582-2.497 3.754-15.906 3.754-15.906s-.957-1.916-.957-4.75c0-4.45 2.58-7.77 5.79-7.77 2.73 0 4.05 2.05 4.05 4.507 0 2.744-1.75 6.85-2.65 10.653-.755 3.186 1.596 5.784 4.737 5.784 5.688 0 10.06-5.998 10.06-14.654 0-7.662-5.505-13.02-13.367-13.02-9.105 0-14.45 6.83-14.45 13.888 0 2.75 1.06 5.7 2.382 7.304.26.317.3.595.222.917-.244 1.012-.784 3.186-.89 3.63-.14.587-.464.71-1.07.43-3.997-1.862-6.495-7.705-6.495-12.398 0-10.094 7.334-19.365 21.143-19.365 11.1 0 19.727 7.91 19.727 18.482 0 11.028-6.953 19.903-16.605 19.903-3.243 0-6.29-1.685-7.334-3.675 0 0-1.605 6.11-1.993 7.607-.723 2.78-2.673 6.264-3.978 8.39C25.52 63.5 28.7 64 32 64c17.673 0 32-14.326 32-32S49.673 0 32 0z"/></svg>