<svg xmlns="http://www.w3.org/2000/svg" width="64" height="64" viewBox="0 0 64 64"><path d="M53.334 0h-42.67C4.775 0 0 4.776 0 10.668v42.664C0 59.224 4.775 64 10.665 64h42.67C59.224 64 64 59.224 64 53.332V10.668C64 4.776 59.225 0 53.334 0zM35.83 50.252c-3.242 0-6.29-1.685-7.333-3.675 0 0-1.605 6.11-1.994 7.607-.723 2.78-2.673 6.264-3.977 8.39l-2.187-.776c-.28-2.532-.533-6.415.11-9.18.58-2.497 3.753-15.906 3.753-15.906s-.957-1.916-.957-4.75c0-4.45 2.58-7.77 5.79-7.77 2.73 0 4.05 2.05 4.05 4.507 0 2.744-1.75 6.85-2.65 10.653-.755 3.186 1.596 5.784 4.737 5.784 5.688 0 10.06-5.998 10.06-14.654 0-7.662-5.505-13.02-13.367-13.02-9.105 0-14.45 6.83-14.45 13.888 0 2.75 1.06 5.7 2.382 7.304.26.317.3.595.222.917-.243 1.012-.783 3.186-.89 3.63-.14.587-.463.71-1.07.43-3.996-1.862-6.494-7.705-6.494-12.398 0-10.094 7.334-19.365 21.143-19.365 11.1 0 19.726 7.91 19.726 18.482 0 11.027-6.953 19.903-16.605 19.903z"/></svg>