<svg xmlns="http://www.w3.org/2000/svg" width="64" height="64" viewBox="0 0 64 64"><path d="M53.334 0H10.668C4.8 0 0 4.8 0 10.668v42.664C0 59.202 4.8 64 10.668 64h42.666C59.2 64 64 59.203 64 53.332V10.668C64 4.8 59.2 0 53.334 0zM19.486 41.674h-6.954c-.42 0-.732-.188-.91-.474-.182-.297-.192-.683 0-1.067l7.39-13.04c.008-.013.008-.023 0-.04l-4.702-8.14c-.194-.386-.223-.77-.04-1.066.177-.288.53-.435.948-.435h6.954c1.067 0 1.59.687 1.936 1.304l4.78 8.337-7.506 13.276c-.355.64-.857 1.342-1.897 1.342zM52.37 9.41L36.973 36.632c-.01.014-.01.032 0 .046l9.804 17.91c.194.387.2.78.014 1.076-.176.286-.503.444-.922.444h-6.946c-1.065 0-1.598-.708-1.943-1.325 0 0-9.857-18.08-9.882-18.128l15.475-27.44c.373-.67.823-1.325 1.862-1.325h7.025c.42 0 .748.158.925.444.183.297.178.69-.014 1.073z"/></svg>