<svg xmlns="http://www.w3.org/2000/svg" width="64" height="64" viewBox="0 0 64 64"><path d="M32 0C14.327 0 0 14.327 0 32s14.327 32 32 32 32-14.327 32-32S49.673 0 32 0zM21.593 40.025H15.81c-.348 0-.61-.156-.756-.393-.152-.247-.16-.567 0-.885L21.2 27.93c.005-.012.005-.02 0-.033l-3.91-6.752c-.163-.32-.186-.638-.034-.885.147-.24.44-.36.79-.36h5.782c.887 0 1.322.57 1.61 1.08 0 0 3.954 6.88 3.977 6.917L23.17 38.91c-.295.533-.71 1.115-1.576 1.115zM48.94 13.26L36.137 35.842c-.008.012-.008.027 0 .038l8.154 14.86c.162.32.166.645.012.892-.147.237-.42.368-.768.368h-5.777c-.886 0-1.33-.587-1.615-1.1l-8.218-15.037L40.794 13.1c.31-.557.685-1.1 1.548-1.1h5.843c.35 0 .622.13.77.368.152.247.147.572-.013.89z"/></svg>