<svg xmlns="http://www.w3.org/2000/svg" width="64" height="64" viewBox="0 0 64 64"><path d="M22.973 0C7.763 0 0 8.76 0 25.116V59.43l14.9-14.913v-17.43c0-6.777 1.795-11.09 7.82-12.057 2.103-.412 6.483-.267 9.268-.267v10.35c0 .094.013.263.037.35.117.418.496.725.945.726.254 0 .492-.132.737-.374L59.527.006 22.972 0zM49.1 19.484v17.43c0 6.777-1.795 11.09-7.82 12.057-2.104.412-6.484.268-9.27.268v-10.35c0-.094-.012-.263-.036-.35-.116-.418-.495-.725-.945-.726-.255 0-.493.132-.738.373l-25.82 25.81L41.027 64C56.237 64 64 55.237 64 38.882V4.57L49.1 19.482z"/></svg>