<svg xmlns="http://www.w3.org/2000/svg" width="64" height="64" viewBox="0 0 64 64"><path d="M55.04 8.173c1.606.786 3.006 1.905 4.03 3.28 2.16 2.894 2.766 6.836 1.803 11.717-.972 4.94-3.15 9.108-6.323 12.128-.58.606-1.2 1.172-1.863 1.693C49.29 39.667 45 41.08 40.28 41.08H25.276L21.24 60h-8.276l.63-2.894h2.883l4.035-18.92H32.28c11.265 0 20.683-6.942 23.203-18.746C58.34 6.075 48.758 0 40.52 0H12.44L0 57.106h9.5L8 64h16.478l4.035-18.92H40.28c11.266 0 20.684-6.942 23.204-18.746 2.107-9.855-2.55-15.746-8.445-18.16zM40.016 19.44c-.858 3.69-4.027 6.753-7.54 7.585l1.92-8.5h5.812c-.045.3-.108.605-.192.915zm-13.62-7.81h8.07c2.298 0 4.158 1.125 5.118 2.894H31.2L28.322 27.25h-5.457l3.53-15.62z"/></svg>