<svg xmlns="http://www.w3.org/2000/svg" width="64" height="64" viewBox="0 0 64 64"><path d="M40.52 4c1.772 0 3.558.363 5.168 1.05 1.693.72 3.083 1.744 4.132 3.04 2.1 2.597 2.69 6.134 1.753 10.515-1.02 4.774-3.4 8.748-6.885 11.492-3.397 2.675-7.687 4.09-12.407 4.09H17.278l-4.035 18.92H4.965L15.663 4H40.52zM17.863 31.25h12.74c2.965 0 5.968-1.135 8.457-3.197 2.425-2.01 4.14-4.72 4.836-7.637.87-3.283.29-6.572-1.595-9.035-1.823-2.383-4.678-3.75-7.833-3.75H23.2l-5.34 23.62zM40.522 0H12.44L0 57.106h9.502L8 64h16.48l4.034-18.92H40.28c11.267 0 20.685-6.942 23.205-18.746 2.107-9.855-2.55-15.746-8.445-18.16 1.606.786 3.006 1.905 4.03 3.28 2.16 2.894 2.766 6.836 1.803 11.717-.972 4.94-3.15 9.11-6.323 12.13-.58.605-1.2 1.17-1.863 1.692-3.397 2.675-7.687 4.09-12.407 4.09H25.276L21.24 60h-8.276l.63-2.895h2.883l4.035-18.92H32.28c11.265 0 20.683-6.942 23.203-18.746C58.34 6.077 48.758 0 40.52 0zM22.865 27.25l3.53-15.62h8.07c4.038 0 6.726 3.47 5.55 7.81-1.008 4.34-5.212 7.81-9.415 7.81h-7.734z"/></svg>