<svg xmlns="http://www.w3.org/2000/svg" width="64" height="64" viewBox="0 0 64 64"><path d="M38.055 40.842c-1.08 1.09-.167 3.07-.167 3.07l8.13 13.577s1.336 1.79 2.493 1.79c1.163 0 2.31-.955 2.31-.955l6.43-9.188s.647-1.16.66-2.175c.024-1.444-2.152-1.84-2.152-1.84L40.54 40.235s-1.49-.395-2.484.607zM37.283 34c.78 1.32 2.927.935 2.927.935l15.184-4.438s2.07-.842 2.364-1.964c.29-1.122-.34-2.476-.34-2.476L50.16 17.51s-.628-1.08-1.933-1.19c-1.438-.12-2.324 1.62-2.324 1.62l-8.58 13.5s-.757 1.346-.04 2.56zm-7.173-5.265c1.788-.44 2.072-3.038 2.072-3.038l-.12-21.617s-.27-2.667-1.47-3.39C28.715-.45 28.158.147 27.62.227L15.012 4.91s-1.235.41-1.878 1.44c-.918 1.46.933 3.595.933 3.595l13.103 17.86s1.293 1.337 2.94.93zm-3.113 8.75c.045-1.668-2.002-2.67-2.002-2.67l-13.55-6.845s-2.008-.828-2.983-.25c-.747.44-1.41 1.24-1.473 1.945l-.884 10.863s-.132 1.882.356 2.74c.69 1.214 2.964.368 2.964.368l15.82-3.496c.613-.413 1.69-.45 1.75-2.655zm3.933 5.86c-1.358-.696-2.983.748-2.983.748l-10.592 11.66s-1.322 1.783-.986 2.878c.316 1.027.84 1.537 1.58 1.896l10.638 3.358s1.29.268 2.266-.015c1.386-.403 1.13-2.573 1.13-2.573l.24-15.788s-.053-1.522-1.296-2.165z"/></svg>