<svg xmlns="http://www.w3.org/2000/svg" width="64" height="64" viewBox="0 0 64 64"><path d="M52.626 36.843c-.853-.84-2.745-1.285-5.623-1.323-1.95-.022-4.294.15-6.76.495-1.106-.637-2.244-1.33-3.138-2.166-2.404-2.246-4.41-5.362-5.66-8.788.08-.32.15-.6.214-.888 0 0 1.353-7.69.995-10.292-.05-.357-.08-.46-.175-.737l-.118-.302c-.368-.85-1.09-1.75-2.223-1.7l-.683-.02c-1.263 0-2.29.645-2.562 1.61-.82 3.027.026 7.556 1.56 13.42l-.392.956c-1.1 2.68-2.477 5.378-3.692 7.76l-.157.31c-1.28 2.5-2.44 4.626-3.49 6.425l-1.087.574c-.08.04-1.94 1.025-2.377 1.29-3.705 2.21-6.16 4.72-6.566 6.713-.13.636-.033 1.45.626 1.826l1.05.528c.456.228.936.344 1.428.344 2.638 0 5.7-3.286 9.92-10.648 4.87-1.586 10.415-2.904 15.275-3.63 3.704 2.085 8.26 3.533 11.134 3.533.51 0 .95-.05 1.308-.143.55-.146 1.016-.46 1.3-.887.558-.84.67-1.996.52-3.18-.045-.35-.326-.786-.63-1.083zM13.228 50.878c.48-1.315 2.385-3.915 5.2-6.222.177-.144.613-.552 1.012-.93-2.944 4.694-4.915 6.566-6.213 7.153zM29.902 12.48c.848 0 1.33 2.137 1.37 4.14s-.43 3.41-1.01 4.452c-.48-1.54-.714-3.97-.714-5.556 0 0-.035-3.035.354-3.035zm-4.974 27.363c.59-1.057 1.205-2.172 1.833-3.355 1.532-2.895 2.498-5.16 3.218-7.022 1.432 2.605 3.215 4.82 5.312 6.594.262.22.54.444.83.666-4.263.843-7.948 1.87-11.192 3.116zm26.878-.24c-.26.162-1.003.256-1.482.256-1.544 0-3.455-.707-6.133-1.855 1.03-.076 1.974-.115 2.82-.115 1.55 0 2.008-.007 3.522.38s1.534 1.17 1.274 1.333zM57.363 14.317c-1.388-1.893-3.323-4.106-5.45-6.23s-4.337-4.06-6.23-5.45C42.46.273 40.896 0 40 0H9C6.243 0 4 2.243 4 5v54c0 2.757 2.243 5 5 5h46c2.757 0 5-2.243 5-5V20c0-.896-.273-2.46-2.637-5.683zm-8.277-3.403c1.92 1.92 3.425 3.65 4.536 5.086H44V6.378c1.436 1.11 3.167 2.617 5.086 4.536zM56 59c0 .542-.458 1-1 1H9c-.542 0-1-.458-1-1V5c0-.542.458-1 1-1h31v14c0 1.105.895 2 2 2h14v39z"/></svg>