<svg xmlns="http://www.w3.org/2000/svg" width="64" height="64" viewBox="0 0 64 64"><path d="M43.14 29.48c-3.793-1.79-8.624-2.15-12.178.378 4.32-.413 9.06.302 12.194 3.57 3-3.442 7.757-4.088 12.06-3.733-3.593-2.384-8.326-2.064-12.077-.215zm-1.537 8.38c-4.273-.1-8.402 1.447-11.944 3.756-6.7-2.85-15.172-2.32-20.876 2.436 1.646-.058 3.25-.465 4.878-.675 5.95-.593 12.287.884 16.782 4.99 1.86-2.722 4.478-4.89 7.478-6.246 3.942-1.906 8.385-2.104 12.676-2.156-2.605-1.79-5.913-2.122-8.996-2.105zM57.363 14.317c-1.388-1.893-3.323-4.106-5.45-6.23s-4.337-4.06-6.23-5.45C42.46.273 40.896 0 40 0H9C6.243 0 4 2.243 4 5v54c0 2.757 2.243 5 5 5h46c2.757 0 5-2.243 5-5V20c0-.896-.273-2.46-2.637-5.683zm-8.277-3.403c1.92 1.92 3.425 3.65 4.536 5.086H44V6.378c1.436 1.11 3.167 2.617 5.086 4.536zM56 59c0 .542-.458 1-1 1H9c-.542 0-1-.458-1-1V5c0-.542.458-1 1-1h31v14c0 1.105.895 2 2 2h14v39z"/></svg>