<svg xmlns="http://www.w3.org/2000/svg" width="64" height="64" viewBox="0 0 64 64"><path d="M62.793 29.15L34.85 1.208c-1.61-1.61-4.22-1.61-5.83 0L22.527 7.7l4.886 4.886C28.196 12.21 29.073 12 30 12c3.314 0 6 2.687 6 6 0 .927-.21 1.804-.585 2.588l7.998 7.998C44.196 28.21 45.073 28 46 28c3.314 0 6 2.687 6 6s-2.686 6-6 6-6-2.685-6-6c0-.925.21-1.802.585-2.586l-7.998-7.998c-.19.09-.386.17-.587.242v16.685c2.33.824 4 3.045 4 5.657 0 3.314-2.686 6-6 6s-6-2.686-6-6c0-2.612 1.67-4.833 4-5.657V23.657c-2.33-.824-4-3.045-4-5.657 0-.926.21-1.803.585-2.587L19.7 10.527 1.205 29.02c-1.61 1.61-1.61 4.22 0 5.83L29.15 62.79c1.61 1.61 4.22 1.61 5.83 0L62.793 34.98c1.61-1.61 1.61-4.222 0-5.832z"/></svg>