<svg xmlns="http://www.w3.org/2000/svg" width="64" height="64" viewBox="0 0 64 64"><path d="M58 26c-1.777 0-3.372.773-4.47 2H41.656l8.395-8.395c1.645.09 3.32-.49 4.576-1.747 2.343-2.343 2.343-6.142 0-8.485s-6.142-2.343-8.485 0c-1.256 1.256-1.838 2.93-1.747 4.576L36 22.343V10.472c1.228-1.1 2-2.694 2-4.47 0-3.315-2.685-6-6-6s-6 2.685-6 6c0 1.776.774 3.37 2 4.47v11.872l-8.394-8.395c.09-1.646-.49-3.32-1.747-4.577-2.344-2.343-6.143-2.343-8.486 0s-2.343 6.142 0 8.485c1.256 1.256 2.93 1.838 4.576 1.747L22.345 28H10.473c-1.1-1.227-2.694-2-4.47-2-3.315 0-6 2.686-6 6s2.685 6 6 6c1.776 0 3.37-.773 4.47-2h11.872l-8.395 8.395c-1.645-.09-3.32.49-4.576 1.747-2.343 2.343-2.343 6.142 0 8.485s6.142 2.343 8.485 0c1.255-1.256 1.837-2.93 1.746-4.576L28 41.657v11.872c-1.226 1.1-2 2.694-2 4.47 0 3.315 2.687 6 6 6s6-2.685 6-6c0-1.776-.772-3.37-2-4.47V41.656l8.396 8.395c-.09 1.646.49 3.32 1.747 4.577 2.343 2.343 6.142 2.343 8.485 0s2.343-6.142 0-8.485c-1.256-1.256-2.93-1.838-4.576-1.747L41.657 36H53.53c1.098 1.227 2.693 2 4.47 2 3.314 0 6-2.686 6-6s-2.686-6-6-6z"/></svg>