<svg xmlns="http://www.w3.org/2000/svg" width="64" height="64" viewBox="0 0 64 64"><path d="M59.11 23.003l-28-18.667c-.673-.448-1.548-.448-2.22 0l-28 18.667c-.556.37-.89.995-.89 1.664v18.667c0 .67.333 1.293.89 1.664l28 18.667c.336.224.723.336 1.11.336s.772-.11 1.108-.335l28-18.667c.556-.37.89-.995.89-1.664V24.667c0-.67-.333-1.293-.89-1.664zM30 40.93L19.605 34 30 27.07 40.395 34 30 40.93zm2-17.334V9.736l22.394 14.93L44 31.597l-12-8zm-4 0l-12 8-10.395-6.93L28 9.736v13.86zM12.395 34L4 39.596V28.403L12.395 34zM16 36.404l12 8v13.86L5.605 43.333 16 36.403zm16 8l12-8 10.395 6.93L32 58.264v-13.86zM47.605 34L56 28.404v11.193L47.605 34z"/></svg>