<svg xmlns="http://www.w3.org/2000/svg" width="64" height="64" viewBox="0 0 64 64"><path d="M16.142 27.91L6.984 12.045C12.848 4.706 21.874 0 32 0c11.715 0 21.957 6.296 27.533 15.688h-26.11c-.47-.04-.944-.063-1.424-.063-7.618 0-14.037 5.228-15.86 12.284zm27.315-7.597h18.34C63.22 23.933 64 27.876 64 32c0 17.553-14.13 31.8-31.637 31.996L45.45 41.33c1.843-2.65 2.925-5.865 2.925-9.33 0-4.572-1.885-8.713-4.918-11.687zM20.375 32c0-6.41 5.215-11.625 11.625-11.625S43.625 25.59 43.625 32 38.41 43.625 32 43.625 20.375 38.41 20.375 32zm16.01 15.778l-9.16 15.867C11.817 61.34 0 48.05 0 32c0-5.7 1.493-11.053 4.106-15.69L17.17 38.94c2.617 5.568 8.28 9.435 14.83 9.435 1.52 0 2.99-.21 4.386-.597z"/></svg>