<svg xmlns="http://www.w3.org/2000/svg" width="64" height="64" viewBox="0 0 64 64"><path d="M63.908 20.884l-.74 4.755s-1.06-8.804-2.36-12.096C58.82 8.5 57.934 8.54 57.93 8.55c1.332 3.387 1.09 5.207 1.09 5.207S56.656 7.32 50.41 5.27C43.494 3.004 39.75 3.624 39.32 3.74h-.19c.052.004.102.01.153.013l-.004.003c.028.034 7.644 1.33 8.995 3.187 0 0-3.234 0-6.454.928-.145.043 11.845 1.5 14.297 13.48 0 0-1.314-2.74-2.94-3.207 1.07 3.252.795 9.424-.224 12.49-.132.396-.266-1.704-2.27-2.608.64 4.603-.04 11.904-3.233 13.914-.25.156 2.002-7.208.453-4.36-8.92 13.674-19.463 6.31-24.203 3.068 2.43.53 7.04-.082 9.082-1.6l.006-.006c2.217-1.516 3.53-2.623 4.708-2.36 1.18.262 1.965-.92 1.05-1.972-.918-1.052-3.146-2.5-6.16-1.71-2.124.556-4.757 2.908-8.777.527-3.085-1.828-3.376-3.347-3.403-4.398.076-.374.172-.722.286-1.04.355-.992 1.432-1.29 2.03-1.527 1.017.174 1.892.49 2.812.963.012-.306.016-.712 0-1.172.087-.175.033-.703-.11-1.35-.08-.643-.213-1.31-.42-1.917l.01-.005c.006-.003.01-.007.014-.012l.003-.003c.004-.008.01-.017.01-.03.065-.288.752-.844 1.608-1.443.767-.536 1.67-1.106 2.38-1.547.628-.39 1.107-.68 1.208-.756.04-.028.085-.062.135-.1l.03-.023c.005-.005.01-.01.017-.014.338-.27.843-.778.95-1.85v-.007l.008-.096.005-.07.003-.052.004-.13v-.006c0-.104 0-.212-.006-.325-.002-.063-.007-.12-.018-.173 0-.003 0-.006-.002-.01 0-.004-.002-.01-.004-.014l-.008-.027v-.003l-.012-.03c-.11-.257-.52-.354-2.215-.382h-.004c-.692-.012-1.596-.012-2.78-.007-2.08.01-3.228-2.03-3.594-2.82.503-2.78 1.955-4.76 4.34-6.102.046-.025.037-.046-.016-.06.466-.283-5.64-.01-8.45 3.564-2.492-.62-4.665-.578-6.537-.138-.36-.01-.81-.055-1.34-.166-1.246-1.13-3.03-3.213-3.124-5.7L7.4 4.56c0-.023-.003-.047-.005-.07 0 0-3.795 2.917-3.227 10.868 0 .127-.004.25-.008.367-1.027 1.393-1.537 2.564-1.575 2.822C1.675 20.4.752 23.187 0 27.42c0 0 .525-1.666 1.58-3.553C.804 26.243.195 29.94.553 35.483c0 0 .095-1.23.43-3 .262 3.438 1.407 7.683 4.304 12.674 5.56 9.582 14.104 14.42 23.55 15.163 1.676.138 3.377.142 5.088.012.157-.01.315-.023.472-.036 1.935-.136 3.883-.428 5.827-.898 26.573-6.425 23.684-38.512 23.684-38.512z"/></svg>