<svg xmlns="http://www.w3.org/2000/svg" width="64" height="64" viewBox="0 0 64 64"><path d="M45.888 39.302H60.64c.115-1.023.16-2.07.16-3.137 0-5.014-1.346-9.717-3.695-13.767 2.43-6.457 2.343-11.937-.91-15.212-3.093-3.08-11.393-2.58-20.776 1.575-.695-.052-1.396-.078-2.103-.078-12.878 0-23.683 8.862-26.67 20.803 4.04-5.172 8.29-8.922 13.968-11.653-.516.484-3.528 3.478-4.035 3.985-14.972 14.967-19.693 34.52-14.613 39.6 3.862 3.86 10.86 3.21 18.898-.728 3.738 1.903 7.97 2.976 12.45 2.976 12.072 0 22.3-7.77 26.007-18.59H44.455c-2.046 3.774-6.047 6.343-10.64 6.343s-8.592-2.57-10.638-6.344c-.91-1.705-1.432-3.66-1.432-5.73v-.044h24.14zm-24.12-7.252c.342-6.07 5.388-10.912 11.55-10.912S44.523 25.98 44.864 32.05H21.77zM56.06 10.238c2.095 2.117 2.043 6.013.25 10.876-3.07-4.682-7.53-8.37-12.8-10.477 5.633-2.415 10.214-2.735 12.55-.4zM5.843 60.453C3.17 57.778 3.975 52.163 7.42 45.4c2.144 6.018 6.322 11.07 11.71 14.323-5.965 2.707-10.847 3.167-13.286.73z"/></svg>