<svg xmlns="http://www.w3.org/2000/svg" width="64" height="64" viewBox="0 0 64 64"><path d="M32 4c-1.504 0-2.982.112-4.427.326l-.06-.144c.8-.625 1.22-1.49 1.04-2.347C28.318.737 27.152 0 25.65 0c-.324 0-.654.035-.98.104-1.886.4-3.134 1.79-2.843 3.16.177.834.893 1.46 1.885 1.712-.002.06 0 .122.003.183C11.175 8.754 2 20.304 2 34c0 16.568 13.43 30 30 30s30-13.432 30-30C62 17.43 48.57 4 32 4zm-9.195-.943c-.17-.795.78-1.7 2.072-1.974.258-.055.518-.083.772-.083 1 0 1.792.43 1.923 1.043.1.47-.192.976-.712 1.37-.44-.31-1-.446-1.568-.326-.565.12-1.022.47-1.297.928-.637-.153-1.094-.505-1.19-.96zm25.282 47.03c-2.748 2.748-6.076 4.705-9.707 5.76l-2.65-4.298-.672 4.996c-1.006.135-2.027.204-3.058.204-6.077 0-11.79-2.367-16.087-6.663-2.748-2.748-4.705-6.076-5.76-9.707l4.298-2.65-4.997-.672C9.32 36.052 9.25 35.03 9.25 34c0-6.077 2.365-11.79 6.662-16.087 2.748-2.748 6.076-4.705 9.707-5.76l2.65 4.298.67-4.996c1.007-.134 2.027-.204 3.06-.204 6.076 0 11.79 2.366 16.086 6.663 2.748 2.748 4.705 6.076 5.76 9.707l-4.298 2.65 4.998.672c.135 1.006.204 2.026.204 3.058 0 6.077-2.367 11.79-6.663 16.087zm-.53-31.643L35.244 27.8c-.915-.478-1.93-.753-2.963-.794l-3.192-6.7-.192 7.417c-.83.41-1.57.98-2.18 1.684l-3.943-1.398 2.88 3.033c-.395.845-.616 1.752-.65 2.677l-6.698 3.192 7.42.192.074.143-9.356 12.31 12.31-9.356c.916.48 1.93.755 2.964.796l3.193 6.7.193-7.417c.83-.41 1.57-.98 2.18-1.685l3.943 1.398-2.88-3.034c.395-.846.616-1.753.65-2.677l6.698-3.192-7.42-.19-.074-.143 9.356-12.31zm-15.55 9.34zm-1.254.347c.42-.088.84-.13 1.253-.13.26 0 .516.016.768.05h.006c.545.072 1.073.22 1.57.43l-4.472 3.4-3.4 4.47c-.147-.35-.266-.717-.348-1.102-.69-3.24 1.38-6.427 4.62-7.116zm4.38 10.988c-.566.346-1.2.605-1.885.75-.42.09-.84.133-1.253.133-.26 0-.516-.016-.77-.05h-.003c-.546-.07-1.073-.22-1.57-.43l4.47-3.4 3.4-4.47c.148.35.267.717.35 1.102.542 2.555-.63 5.075-2.737 6.365z"/></svg>